<svg
  width="current"
  height="current"
  viewBox="0 0 14 16"
  fill="none"
  xmlns="http://www.w3.org/2000/svg"
>
  <path
    d="M0 13.8182V2.18182C0 0.976833 0.940202 9.37099e-08 2.1 0H8.52031C9.07719 5.82196e-05 9.6113 0.230087 10.0051 0.639205L13.3848 4.15057C13.7785 4.55969 13.9999 5.11461 14 5.69318V13.8182C14 15.0232 13.0598 16 11.9 16H2.1C0.940202 16 0 15.0232 0 13.8182ZM9.45 10.1818C9.8366 10.1818 10.15 10.5074 10.15 10.9091C10.15 11.3108 9.8366 11.6364 9.45 11.6364H3.5C3.1134 11.6364 2.8 11.3108 2.8 10.9091C2.8 10.5074 3.1134 10.1818 3.5 10.1818H9.45ZM9.45 7.27273C9.8366 7.27273 10.15 7.59834 10.15 8C10.15 8.40166 9.8366 8.72727 9.45 8.72727H3.5C3.1134 8.72727 2.8 8.40166 2.8 8C2.8 7.59834 3.1134 7.27273 3.5 7.27273H9.45ZM1.4 13.8182C1.4 14.2198 1.7134 14.5455 2.1 14.5455H11.9C12.2866 14.5455 12.6 14.2198 12.6 13.8182V5.69318C12.5999 5.50038 12.5261 5.31532 12.3949 5.17898L9.01523 1.66761C8.88401 1.53127 8.70589 1.4546 8.52031 1.45455H2.1C1.7134 1.45455 1.4 1.78016 1.4 2.18182V13.8182Z"
    fill="currentColor"
  />
</svg>
