<svg width="current" height="current" viewBox="0 0 16 16" fill="none" xmlns="http://www.w3.org/2000/svg">
<path fill-rule="evenodd" clip-rule="evenodd" d="M12.0029 0C12.4171 0 12.7529 0.335786 12.7529 0.75V1.75H14.3359L14.5068 1.75879C15.3472 1.84422 16.0029 2.55411 16.0029 3.41699V6.08105C16.0044 6.10041 16.0059 6.11991 16.0059 6.13965C16.0059 6.15905 16.0044 6.17823 16.0029 6.19727V14.083C16.0029 14.9459 15.3472 15.6558 14.5068 15.7412L14.3359 15.75H1.66992C0.749447 15.75 0.00292969 15.0035 0.00292969 14.083V6.19727C0.00148215 6.17823 0 6.15905 0 6.13965C0 6.11991 0.00143292 6.10041 0.00292969 6.08105V3.41699C0.00292969 2.49652 0.749447 1.75 1.66992 1.75H3.25293V0.75C3.25293 0.335786 3.58872 0 4.00293 0C4.41714 0 4.75293 0.335786 4.75293 0.75V1.75H11.2529V0.75C11.2529 0.335786 11.5887 0 12.0029 0ZM1.50293 6.88965V14.083C1.50293 14.1751 1.57787 14.25 1.66992 14.25H14.3359C14.428 14.25 14.5029 14.1751 14.5029 14.083V6.88965H1.50293ZM1.66992 3.25C1.57787 3.25 1.50293 3.32494 1.50293 3.41699V5.38965H14.5029V3.41699C14.5029 3.32495 14.428 3.25 14.3359 3.25H12.7529V3.97363C12.7529 4.3878 12.4171 4.72363 12.0029 4.72363C11.5888 4.72363 11.253 4.3878 11.2529 3.97363V3.25H4.75293V3.97363C4.75287 4.3878 4.41711 4.72363 4.00293 4.72363C3.58875 4.72363 3.25299 4.3878 3.25293 3.97363V3.25H1.66992Z" fill="currentColor"/>
</svg>
