<svg width="current" height="current" viewBox="0 0 24 24" fill="none" xmlns="http://www.w3.org/2000/svg">
  <g clipPath="url(#clip0_118_2)">
        <path
          d="M19.7916 3.125C20.6204 3.125 21.4152 3.45424 22.0013 4.04029C22.5873 4.62634 22.9166 5.4212 22.9166 6.25V18.75C22.9166 19.5788 22.5873 20.3737 22.0013 20.9597C21.4152 21.5458 20.6204 21.875 19.7916 21.875H5.20825C4.37945 21.875 3.58459 21.5458 2.99854 20.9597C2.41249 20.3737 2.08325 19.5788 2.08325 18.75V6.25C2.08325 5.4212 2.41249 4.62634 2.99854 4.04029C3.58459 3.45424 4.37945 3.125 5.20825 3.125H19.7916ZM12.4999 7.29167C11.1186 7.29167 9.79382 7.8404 8.81707 8.81715C7.84032 9.7939 7.29159 11.1187 7.29159 12.5C7.29159 13.8813 7.84032 15.2061 8.81707 16.1828C9.79382 17.1596 11.1186 17.7083 12.4999 17.7083C13.8813 17.7083 15.206 17.1596 16.1828 16.1828C17.1595 15.2061 17.7083 13.8813 17.7083 12.5C17.7083 11.1187 17.1595 9.7939 16.1828 8.81715C15.206 7.8404 13.8813 7.29167 12.4999 7.29167ZM12.4999 9.375C13.3287 9.375 14.1236 9.70424 14.7096 10.2903C15.2957 10.8763 15.6249 11.6712 15.6249 12.5C15.6249 13.3288 15.2957 14.1237 14.7096 14.7097C14.1236 15.2958 13.3287 15.625 12.4999 15.625C11.6711 15.625 10.8763 15.2958 10.2902 14.7097C9.70416 14.1237 9.37492 13.3288 9.37492 12.5C9.37492 11.6712 9.70416 10.8763 10.2902 10.2903C10.8763 9.70424 11.6711 9.375 12.4999 9.375ZM19.7916 6.25H18.7499C18.4844 6.25029 18.2291 6.35196 18.036 6.53422C17.8429 6.71648 17.7268 6.96558 17.7112 7.23062C17.6956 7.49566 17.7819 7.75664 17.9523 7.96024C18.1227 8.16384 18.3644 8.29468 18.628 8.32604L18.7499 8.33333H19.7916C20.0571 8.33304 20.3125 8.23138 20.5055 8.04912C20.6986 7.86686 20.8147 7.61776 20.8303 7.35271C20.8459 7.08767 20.7596 6.82669 20.5892 6.62309C20.4188 6.41949 20.1771 6.28865 19.9135 6.25729L19.7916 6.25Z"
          fill="currentColor"
        />
      </g>
      <defs>
        <clipPath id="clip0_118_2">
          <rect width="25" height="25" fill="white" />
        </clipPath>
      </defs>
</svg>