<svg width="current" height="current" viewBox="0 0 33 33" fill="none" xmlns="http://www.w3.org/2000/svg">
<path fill-rule="evenodd" clip-rule="evenodd" d="M14.3138 5.46875C13.651 5.46875 13.1138 6.00601 13.1138 6.66875V22.2687C13.1138 22.9315 13.651 23.4688 14.3138 23.4688H17.9138C18.5765 23.4688 19.1138 22.9315 19.1138 22.2687V6.66875C19.1138 6.00601 18.5765 5.46875 17.9138 5.46875H14.3138ZM15.1138 21.4688V7.46875H17.1138V21.4688H15.1138Z" fill="currentColor"/>
<path fill-rule="evenodd" clip-rule="evenodd" d="M6.31377 9.46875C5.65103 9.46875 5.11377 10.006 5.11377 10.6687V22.2687C5.11377 22.9315 5.65103 23.4688 6.31377 23.4688H9.91377C10.5765 23.4688 11.1138 22.9315 11.1138 22.2687V10.6687C11.1138 10.006 10.5765 9.46875 9.91377 9.46875H6.31377ZM7.11377 21.4688V11.4688H9.11377V21.4688H7.11377Z" fill="currentColor"/>
<path d="M6.11377 25.4688C5.56148 25.4688 5.11377 25.9165 5.11377 26.4688C5.11377 27.021 5.56148 27.4688 6.11377 27.4688H26.1138C26.6661 27.4688 27.1138 27.021 27.1138 26.4688C27.1138 25.9165 26.6661 25.4688 26.1138 25.4688H6.11377Z" fill="currentColor"/>
<path fill-rule="evenodd" clip-rule="evenodd" d="M21.1138 14.6687C21.1138 14.006 21.651 13.4688 22.3138 13.4688H25.9138C26.5765 13.4688 27.1138 14.006 27.1138 14.6687V22.2687C27.1138 22.9315 26.5765 23.4688 25.9138 23.4688H22.3138C21.651 23.4688 21.1138 22.9315 21.1138 22.2687V14.6687ZM23.1138 15.4688V21.4688H25.1138V15.4688H23.1138Z" fill="currentColor"/>
</svg>