<svg
  width="current"
  height="current"
  viewBox="0 0 17 17"
  fill="none"
  xmlns="http://www.w3.org/2000/svg"
>
  <path
    d="M12.1523 0C13.9068 0.000115871 15.2974 1.42486 15.165 3.10254L15.1631 3.14941L14.8193 9.0957C15.0872 9.20214 15.3278 9.35736 15.5312 9.55371C16.0006 9.99029 16.2478 10.609 16.1924 11.2637V11.2666C16.0871 12.4372 14.9988 13.2227 13.8691 13.2227H10.7383V13.6807C10.7383 15.0756 9.55184 16.1992 8.10059 16.1992C6.64947 16.1991 5.46387 15.0755 5.46387 13.6807V13.2227H2.24609C1.63877 13.2226 1.07897 12.9922 0.670898 12.5996L0.660156 12.5889L0.657227 12.5869C0.244302 12.1976 0 11.6603 0 11.0762C7.82546e-05 10.1853 0.575898 9.42417 1.38281 9.09961L1.03906 3.14941L1.03613 3.10352C0.903817 1.42578 2.2953 2.06194e-05 4.0498 0H12.1523ZM2.19629 10.2471C2.18655 10.2485 2.17539 10.25 2.16504 10.251C1.71713 10.2933 1.37022 10.6584 1.37012 11.0762C1.37012 11.2762 1.44276 11.4558 1.56543 11.5947L1.62305 11.6533L1.63477 11.6641L1.63574 11.665C1.78842 11.8145 2.00211 11.9062 2.24609 11.9062H6.14941C6.52331 11.9063 6.83481 12.1967 6.83496 12.5645V13.6807C6.83496 14.3396 7.3975 14.8836 8.10059 14.8838C8.80382 14.8838 9.36719 14.3397 9.36719 13.6807V12.5645C9.36734 12.1967 9.67881 11.9062 10.0527 11.9062H13.8691C14.3915 11.9062 14.7883 11.5488 14.8252 11.1562C14.8475 10.8885 14.7493 10.6585 14.5791 10.5C14.5784 10.4994 14.5774 10.4982 14.5762 10.4971C14.5741 10.4953 14.5698 10.4915 14.5654 10.4873C14.4268 10.351 14.2517 10.2683 14.0479 10.252C14.0335 10.2508 14.0188 10.249 14.0049 10.2471C14.0035 10.247 14.0021 10.2462 14.001 10.2461H2.20215C2.20087 10.2462 2.19825 10.247 2.19629 10.2471ZM2.20898 10.2441C2.20974 10.244 2.21083 10.2444 2.21191 10.2441C2.21347 10.2437 2.22021 10.2419 2.22656 10.2393C2.22964 10.238 2.2366 10.2346 2.24414 10.2295C2.24946 10.2259 2.27041 10.211 2.28125 10.1816C2.28356 10.1735 2.28281 10.1597 2.2832 10.1465H2.19434L2.20898 10.2441ZM13.9209 10.1816C13.9319 10.2111 13.9528 10.226 13.958 10.2295C13.9657 10.2347 13.9726 10.238 13.9756 10.2393C13.9816 10.2418 13.9865 10.2437 13.9883 10.2441H13.9912L14.0068 10.1465H13.9189C13.9193 10.1597 13.9186 10.1734 13.9209 10.1816ZM4.0498 1.31543C3.06824 1.31545 2.30718 2.12301 2.40527 3.0459C2.40623 3.05489 2.40756 3.06607 2.4082 3.07715L2.74512 8.92969H13.457L13.7939 3.07715V3.07422L13.7959 3.04785L13.7969 3.0459C13.8949 2.12303 13.1338 1.31554 12.1523 1.31543H8.78613L8.78516 2.73047L8.77051 2.86426C8.70577 3.16628 8.42686 3.38867 8.09961 3.38867C7.72561 3.38867 7.41409 3.09838 7.41406 2.73047L7.41504 1.31543H5.65625V4.37891C5.65612 4.7467 5.3446 5.03707 4.9707 5.03711C4.59677 5.03711 4.28528 4.74673 4.28516 4.37891V1.31543H4.0498Z"
    fill="currentColor"
  />
</svg>

