<svg
  width="current"
  height="current"
  viewBox="0 0 17 16"
  fill="none"
  xmlns="http://www.w3.org/2000/svg"
>
  <path
    d="M4.05166 1.01925C8.05172 -0.98055 12.052 0.0192438 14.702 3.51925C17.0518 7.01922 16.2861 12.1808 12.5516 14.6697L12.3602 14.7927C10.3343 16.0421 6.97358 16.6178 4.55165 15.0193C2.78385 15.7335 1.36168 16.1705 0.667897 15.5339L0.603444 15.4695C-0.0278956 14.7796 0.489877 13.0193 1.05168 11.5193C-1.35007 7.5164 0.66352 3.00725 4.05166 1.01925ZM9.53404 1.66573C8.09933 1.32294 6.47509 1.49504 4.76747 2.33761C1.94288 4.02257 0.476726 7.64602 2.33781 10.7478C2.57288 11.1397 2.61627 11.6176 2.45597 12.0456C2.18188 12.7775 1.9551 13.4824 1.85929 14.0486C1.8414 14.1543 1.83009 14.2458 1.82316 14.324C1.84679 14.3207 1.87232 14.3186 1.89933 14.3142C2.39352 14.2327 3.076 13.998 3.99014 13.6286L4.16396 13.5701C4.57528 13.46 5.01762 13.5296 5.37782 13.7673C6.27601 14.3601 7.41487 14.574 8.60729 14.4685C9.80518 14.3625 10.9373 13.9419 11.7196 13.4206C14.7084 11.4287 15.3684 7.24039 13.4754 4.38546C12.3374 2.89835 10.9711 2.00912 9.53404 1.66573Z"
    fill="currentColor"
  />
</svg>
