<svg width="current" height="current" viewBox="0 0 16 16" fill="none" xmlns="http://www.w3.org/2000/svg">
<path fill-rule="evenodd" clip-rule="evenodd" d="M8.90182 8.97917C11.4919 8.97917 12.2938 11.1094 12.5413 12.3646C12.6372 12.8523 12.2429 13.2604 11.7454 13.2604H6.05908L5.96699 13.2552C5.51397 13.2087 5.17323 12.8219 5.26325 12.3646C5.51073 11.1094 6.31198 8.97935 8.90182 8.97917ZM8.90182 10.3125C8.03694 10.3126 7.56228 10.6416 7.24414 11.0365C7.0351 11.2961 6.87957 11.6088 6.76455 11.9271H11.04C10.9249 11.6088 10.7694 11.2961 10.5604 11.0365C10.2422 10.6415 9.76699 10.3125 8.90182 10.3125Z" fill="currentColor"/>
<path fill-rule="evenodd" clip-rule="evenodd" d="M8.90182 3.62847C10.2329 3.62847 11.3118 4.70655 11.3119 6.03646C11.3117 7.3663 10.2329 8.44444 8.90182 8.44444C7.57094 8.44427 6.49191 7.36619 6.49175 6.03646C6.49183 4.70666 7.57089 3.62865 8.90182 3.62847ZM8.90182 4.96181C8.30791 4.96198 7.82632 5.44304 7.82624 6.03646C7.8264 6.62981 8.30796 7.11094 8.90182 7.11111C9.49584 7.11111 9.97725 6.62992 9.97741 6.03646C9.97733 5.44293 9.49589 4.96181 8.90182 4.96181Z" fill="currentColor"/>
<path fill-rule="evenodd" clip-rule="evenodd" d="M14.2207 0C15.2033 0.000117273 16 0.796011 16 1.77778V14.2222C16 15.204 15.2033 15.9999 14.2207 16H3.58384L3.40226 15.9905C2.5646 15.9056 1.89901 15.2406 1.81407 14.4036L1.80452 14.2222V13.9878H0.667246C0.298936 13.9876 -2.99541e-08 13.6892 0 13.3212C8.79632e-05 12.9531 0.299659 12.6545 0.668115 12.6545H1.80452V11.3273H0.667246C0.298936 11.327 -2.99541e-08 11.0286 0 10.6606C4.39835e-05 10.2924 0.299632 9.99392 0.668115 9.99392H1.80452V8.66667H0.667246C0.298936 8.66643 3.92299e-09 8.36804 0 8C2.99659e-08 7.63181 0.299605 7.33333 0.668115 7.33333H1.80452V6.00608H0.667246C0.298963 6.00584 4.39741e-05 5.70742 0 5.33941C2.99659e-08 4.97122 0.299605 4.67274 0.668115 4.67274H1.80452V3.34549H0.667246C0.29899 3.34525 8.79365e-05 3.04679 0 2.67882C2.99659e-08 2.31063 0.299605 2.01215 0.668115 2.01215H1.80452V1.77778C1.80452 0.795938 2.60115 2.29069e-07 3.58384 0H14.2207ZM3.58384 1.33333C3.33817 1.33333 3.13901 1.53232 3.13901 1.77778V14.2222C3.13901 14.4677 3.33817 14.6667 3.58384 14.6667H14.2207C14.4663 14.6665 14.6655 14.4676 14.6655 14.2222V1.77778C14.6655 1.53239 14.4663 1.33345 14.2207 1.33333H3.58384Z" fill="currentColor"/>
</svg>
