<svg
  width="current"
  height="current"
  viewBox="0 0 16 18"
  fill="none"
  xmlns="http://www.w3.org/2000/svg"
>
  <path
    d="M8 0C8.39605 0 8.78521 0.105811 9.12821 0.307114L9.1274 0.307929L14.8694 3.64301L14.8718 3.64383C15.1576 3.8116 15.4021 4.04159 15.5905 4.31508C15.6299 4.35407 15.6666 4.39715 15.6955 4.44786C15.721 4.49271 15.7388 4.54036 15.7524 4.58798C15.914 4.90973 15.9996 5.26587 16 5.62826V12.3033C15.9995 12.7055 15.8951 13.1005 15.6971 13.4487C15.4991 13.797 15.2145 14.0866 14.8718 14.2877L14.8694 14.2886L9.1274 17.6236L9.12821 17.6245C8.87728 17.7717 8.60143 17.8669 8.31651 17.9079C8.22374 17.9649 8.11629 18 8 18C7.88346 18 7.77559 17.9652 7.68269 17.9079C7.39804 17.8668 7.12249 17.7716 6.8718 17.6245L1.13061 14.2886L1.12821 14.2877C0.785527 14.0866 0.500906 13.797 0.302885 13.4487C0.104916 13.1005 0.000449476 12.7055 0 12.3033V5.62826L0.00480769 5.47755C0.0252163 5.16741 0.108467 4.86501 0.247596 4.58798C0.2612 4.54036 0.278969 4.49271 0.304487 4.44786C0.333387 4.39715 0.370098 4.35407 0.409455 4.31508C0.597938 4.04159 0.842375 3.8116 1.12821 3.64383L1.13061 3.64301L6.8718 0.307929C7.21481 0.106589 7.60392 0 8 0ZM1.23077 12.3017L1.23958 12.4377C1.2572 12.5728 1.30108 12.7035 1.36859 12.8222C1.45858 12.9805 1.58788 13.1121 1.74359 13.2035L7.38462 16.4807V9.33481L1.23077 5.71542V12.3017ZM8.61539 9.33481V16.4807L14.2564 13.2035C14.4121 13.1121 14.5414 12.9805 14.6314 12.8222C14.7212 12.6642 14.7689 12.485 14.7692 12.3025V5.71542L8.61539 9.33481ZM8 1.25127C7.82003 1.25127 7.64305 1.29911 7.48718 1.39057L7.48478 1.3922L1.8766 4.64989L8 8.25054L14.1226 4.64989L8.51522 1.3922L8.51282 1.39057C8.35695 1.29911 8.17997 1.25127 8 1.25127Z"
    fill="currentColor"
  />
</svg>
