<svg width="current" height="current" viewBox="0 0 170 140" fill="none" xmlns="http://www.w3.org/2000/svg">
<path d="M35 100C46.0457 100 55 91.0457 55 80C55 68.9543 46.0457 60 35 60C23.9543 60 15 68.9543 15 80C15 91.0457 23.9543 100 35 100Z" fill="currentColor"/>
<path d="M85 100C96.0457 100 105 91.0457 105 80C105 68.9543 96.0457 60 85 60C73.9543 60 65 68.9543 65 80C65 91.0457 73.9543 100 85 100Z" fill="currentColor"/>
<path d="M135 100C146.046 100 155 91.0457 155 80C155 68.9543 146.046 60 135 60C123.954 60 115 68.9543 115 80C115 91.0457 123.954 100 135 100Z" fill="currentColor"/>
</svg>
