<svg width="current" height="current" viewBox="0 0 20 20" fill="none" xmlns="http://www.w3.org/2000/svg">
<path d="M9.58712 0.833984C9.05021 0.833984 8.61447 1.26944 8.61447 1.80664V12.0798L5.69651 9.19295L4.32896 10.5605L8.88779 15.1504C9.26809 15.5298 9.90614 15.5298 10.2864 15.1504L14.8453 10.5605L13.4777 9.19295L10.5598 12.0798V1.80664C10.5598 1.26944 10.124 0.833887 9.58712 0.833984ZM1.8059 12.5058C1.269 12.5058 0.833252 12.9415 0.833252 13.4785V15.4238C0.833252 17.5723 2.57527 19.3144 4.72386 19.3144H14.4504C16.599 19.3144 18.341 17.5723 18.341 15.4238V13.4785C18.341 12.9415 17.9052 12.5058 17.3683 12.5058C16.8314 12.5058 16.3957 12.9415 16.3957 13.4785V15.4238C16.3957 16.4985 15.5252 17.3691 14.4504 17.3691H4.72386C3.64908 17.3691 2.77856 16.4985 2.77856 15.4238V13.4785C2.77856 12.9415 2.34281 12.5058 1.8059 12.5058Z" fill="currentColor"/>
</svg>
