<svg 
  width="current" 
  height="current" 
  viewBox="0 0 50 46" 
  fill="none" 
  xmlns="http://www.w3.org/2000/svg"
>
  <g clip-path="url(#clip0)">
    <path 
      d="M40.375 31.875H31V29H40.375V31.875ZM46.625 43.375H37.25V40.5H46.625V43.375ZM43.5 37.625H34.125V34.75H43.5V37.625Z" 
      fill="currentColor"
    />
    <path 
      d="M26.3178 31.875C26.3068 30.6621 25.9551 29.4723 25.297 28.4213C24.6388 27.3702 23.6965 26.4935 22.5615 25.8763L34.1256 7.4375L31.4225 6L19.5834 24.8686C18.1304 24.57 16.6193 24.6113 15.1881 24.9887C13.757 25.3662 12.4516 26.0677 11.3912 27.0292C5.54122 32.22 5.99435 44.3554 6.01622 44.87C6.03238 45.2412 6.2041 45.5922 6.49539 45.8495C6.78669 46.1068 7.17493 46.2503 7.57872 46.25H31.0022C31.3301 46.25 31.6497 46.1551 31.9158 45.9787C32.1818 45.8023 32.3808 45.5533 32.4845 45.2671C32.5882 44.9809 32.5914 44.6719 32.4936 44.3839C32.3958 44.0959 32.202 43.8435 31.9397 43.6625C26.4084 39.8445 26.3178 31.9526 26.3178 31.875ZM18.3912 27.5582C19.6418 27.5708 20.8389 28.0266 21.7336 28.8306C22.6282 29.6347 23.1514 30.7251 23.1943 31.875C23.1943 31.9296 23.1975 32.174 23.2209 32.5492L14.0022 28.7772C14.6094 28.3165 15.3102 27.9715 16.0636 27.7622C16.8171 27.553 17.6083 27.4836 18.3912 27.5582ZM23.8912 43.375C22.6423 42.205 21.8462 40.6897 21.6256 39.0625H18.5006C18.6125 40.5924 19.1319 42.0735 20.0131 43.375H16.5397C15.8971 41.5094 15.5061 39.5783 15.3756 37.625H12.2506C12.3514 39.5725 12.7001 41.5023 13.2897 43.375H9.1256C9.17404 40.7358 9.57872 34.9053 11.9428 31.0801L23.7131 35.8957C24.2786 38.5972 25.4843 41.1509 27.2444 43.375H23.8912Z" 
      fill="currentColor"
    />
  </g>
  <defs>
    <clipPath id="clip0">
      <rect width="50" height="46" fill="white"/>
    </clipPath>
  </defs>
</svg>
