<svg width="current" height="current" viewBox="0 0 18 17" fill="none" xmlns="http://www.w3.org/2000/svg">
<path d="M6.83353 1.0395C7.59242 -0.346462 9.58351 -0.346536 10.3423 1.0395L16.9273 13.0707C17.6564 14.4035 16.6916 16.0307 15.1724 16.0307V14.5307C15.5522 14.5307 15.7932 14.1237 15.6109 13.7905L9.02592 1.7602C8.83619 1.41367 8.33865 1.41363 8.14896 1.7602L1.564 13.7905C1.3817 14.1237 1.62363 14.5307 2.00345 14.5307V16.0307L1.86185 16.0258C0.471112 15.9319 -0.400847 14.4607 0.185095 13.1957L0.248572 13.0707L6.83353 1.0395ZM15.1724 14.5307V16.0307H2.00345V14.5307H15.1724Z" fill="currentColor"/>
<path d="M8.54706 10.5307C8.13285 10.5307 7.79706 10.1949 7.79706 9.78069V5.78069C7.79706 5.36648 8.13285 5.03069 8.54706 5.03069C8.96128 5.03069 9.29706 5.36648 9.29706 5.78069V9.78069C9.29706 10.1949 8.96128 10.5307 8.54706 10.5307Z" fill="currentColor"/>
<path d="M8.54706 13.2807C7.99478 13.2807 7.54706 12.833 7.54706 12.2807C7.54706 11.7284 7.99478 11.2807 8.54706 11.2807C9.09935 11.2807 9.54706 11.7284 9.54706 12.2807C9.54706 12.833 9.09935 13.2807 8.54706 13.2807Z" fill="currentColor"/>
</svg>
