<svg width="current" height="current" viewBox="0 0 22 22" fill="none" xmlns="http://www.w3.org/2000/svg">
<path d="M11.0002 5.4987C12.0127 5.4987 12.8335 4.67789 12.8335 3.66536C12.8335 2.65284 12.0127 1.83203 11.0002 1.83203C9.98764 1.83203 9.16683 2.65284 9.16683 3.66536C9.16683 4.67789 9.98764 5.4987 11.0002 5.4987Z" fill="currentColor" stroke="currentColor" stroke-width="0.458333"/>
<path d="M11.0002 12.8327C12.0127 12.8327 12.8335 12.0119 12.8335 10.9993C12.8335 9.98683 12.0127 9.16602 11.0002 9.16602C9.98764 9.16602 9.16683 9.98683 9.16683 10.9993C9.16683 12.0119 9.98764 12.8327 11.0002 12.8327Z" fill="currentColor" stroke="currentColor" stroke-width="0.458333"/>
<path d="M11.0002 20.1647C12.0127 20.1647 12.8335 19.3439 12.8335 18.3314C12.8335 17.3189 12.0127 16.498 11.0002 16.498C9.98764 16.498 9.16683 17.3189 9.16683 18.3314C9.16683 19.3439 9.98764 20.1647 11.0002 20.1647Z" fill="currentColor" stroke="currentColor" stroke-width="0.458333"/>
</svg>
