<svg xmlns="http://www.w3.org/2000/svg" width="current" height="current" viewBox="0 0 24 24" fill="none">

<path d="M12 5C17 5 21.4444 8.49999 22 12C21.4444 15.5 17 19 12 19V17.5C14.1568 17.5 16.2138 16.7419 17.7852 15.5996C19.2812 14.5121 20.2002 13.1824 20.4717 12C20.2002 10.8176 19.2812 9.48794 17.7852 8.40039C16.2138 7.25813 14.1568 6.5 12 6.5C9.84321 6.5 7.78621 7.25813 6.21484 8.40039C4.7187 9.488 3.79879 10.8175 3.52734 12C3.79878 13.1824 4.71869 14.512 6.21484 15.5996C7.78621 16.7419 9.84321 17.5 12 17.5V19C7 19 2.55556 15.5 2 12C2.55557 8.49999 7.00001 5 12 5Z" fill="currentColor"/>
<path d="M14.5 12C14.5 10.6193 13.3807 9.5 12 9.5C10.6193 9.5 9.5 10.6193 9.5 12C9.5 13.3807 10.6193 14.5 12 14.5V16C9.79086 16 8 14.2091 8 12C8 9.79086 9.79086 8 12 8C14.2091 8 16 9.79086 16 12C16 14.2091 14.2091 16 12 16V14.5C13.3807 14.5 14.5 13.3807 14.5 12Z" fill="currentColor"/>
</svg>