<svg
  width="current"
  height="current"
  viewBox="0 0 20 14"
  fill="none"
  xmlns="http://www.w3.org/2000/svg"
>
  <path
    d="M10 0C15 0 19.4444 3.49999 20 7C19.4444 10.5 15 14 10 14V12.5C12.1568 12.5 14.2138 11.7419 15.7852 10.5996C17.2812 9.51206 18.2002 8.18239 18.4717 7C18.2002 5.8176 17.2812 4.48794 15.7852 3.40039C14.2138 2.25813 12.1568 1.5 10 1.5C7.84321 1.5 5.78621 2.25813 4.21484 3.40039C2.7187 4.488 1.79879 5.81754 1.52734 7C1.79878 8.18244 2.71869 9.51199 4.21484 10.5996C5.78621 11.7419 7.84321 12.5 10 12.5V14C5 14 0.555556 10.5 0 7C0.555569 3.49999 5.00001 0 10 0Z"
    fill="currentColor"
  />
  <path
    d="M12.5 7C12.5 5.61929 11.3807 4.5 10 4.5C8.61929 4.5 7.5 5.61929 7.5 7C7.5 8.38071 8.61929 9.5 10 9.5V11C7.79086 11 6 9.20914 6 7C6 4.79086 7.79086 3 10 3C12.2091 3 14 4.79086 14 7C14 9.20914 12.2091 11 10 11V9.5C11.3807 9.5 12.5 8.38071 12.5 7Z"
    fill="currentColor"
  />
</svg>
