<svg
  width="current"
  height="current"
  viewBox="0 0 16 16"
  fill="none"
  xmlns="http://www.w3.org/2000/svg"
>
  <path
    d="M2.88889 14.6667V16H1.77778V14.6667H2.88889ZM14.2222 14.6667V16H7.77778V14.6667H14.2222ZM14.6667 14.2222V10.4444C14.6667 10.199 14.4677 10 14.2222 10H7.77778C7.53232 10 7.33333 10.199 7.33333 10.4444V14.2222C7.33333 14.4677 7.53232 14.6667 7.77778 14.6667V16C6.79594 16 6 15.2041 6 14.2222V10.4444C6 9.46261 6.79594 8.66667 7.77778 8.66667H14.2222C15.2041 8.66667 16 9.46261 16 10.4444V14.2222C16 15.2041 15.2041 16 14.2222 16V14.6667C14.4677 14.6667 14.6667 14.4677 14.6667 14.2222ZM3.33333 14.2222V10.4444C3.33333 10.199 3.13435 10 2.88889 10H1.77778C1.53232 10 1.33333 10.199 1.33333 10.4444V14.2222C1.33333 14.4677 1.53232 14.6667 1.77778 14.6667V16C0.795938 16 0 15.2041 0 14.2222V10.4444C0 9.46261 0.795938 8.66667 1.77778 8.66667H2.88889C3.87073 8.66667 4.66667 9.46261 4.66667 10.4444V14.2222C4.66667 15.2041 3.87073 16 2.88889 16V14.6667C3.13435 14.6667 3.33333 14.4677 3.33333 14.2222ZM8.22222 6V7.33333H1.77778V6H8.22222ZM14.2222 6V7.33333H13.1111V6H14.2222ZM14.6667 5.55556V1.77778C14.6667 1.53232 14.4677 1.33333 14.2222 1.33333H13.1111C12.8657 1.33333 12.6667 1.53232 12.6667 1.77778V5.55556C12.6667 5.80102 12.8657 6 13.1111 6V7.33333C12.1293 7.33333 11.3333 6.5374 11.3333 5.55556V1.77778C11.3333 0.795938 12.1293 0 13.1111 0H14.2222C15.2041 0 16 0.795938 16 1.77778V5.55556C16 6.5374 15.2041 7.33333 14.2222 7.33333V6C14.4677 6 14.6667 5.80102 14.6667 5.55556ZM8.66667 5.55556V1.77778C8.66667 1.53232 8.46768 1.33333 8.22222 1.33333H1.77778C1.53232 1.33333 1.33333 1.53232 1.33333 1.77778V5.55556C1.33333 5.80102 1.53232 6 1.77778 6V7.33333C0.795938 7.33333 0 6.5374 0 5.55556V1.77778C0 0.857199 0.699753 0.100449 1.59635 0.00954861L1.77778 0H8.22222C9.20406 0 10 0.795938 10 1.77778V5.55556C10 6.5374 9.20406 7.33333 8.22222 7.33333V6C8.46768 6 8.66667 5.80102 8.66667 5.55556Z"
    fill="currentColor"
  />
</svg>
