<svg width="current" height="current" viewBox="0 0 17 16" fill="none" xmlns="http://www.w3.org/2000/svg">
<path d="M12.334 0.0275919C12.77 -0.0288549 13.2136 0.00156704 13.6396 0.116459C14.1264 0.247768 14.579 0.486657 14.9648 0.816654C15.3517 1.14517 15.6625 1.55654 15.876 2.02173C16.0894 2.48708 16.1995 2.99521 16.1992 3.50904V10.8674C16.1993 11.688 15.9184 12.4836 15.4043 13.1145C14.8901 13.7453 14.1756 14.1726 13.3848 14.3206L9.19043 15.0999C8.46917 15.2339 7.73005 15.2339 7.00879 15.0999L2.81836 14.3206C2.02685 14.1733 1.31075 13.7465 0.795898 13.1155C0.281207 12.4847 0.000150871 11.6893 0 10.8684V3.50904C3.34706e-05 2.99512 0.11007 2.4873 0.323242 2.02173C0.536385 1.55627 0.847112 1.14411 1.2334 0.814701C1.61978 0.485308 2.07275 0.24636 2.55957 0.115483C3.04653 -0.0153761 3.55646 -0.0348299 4.05176 0.0578654L6.5957 0.530522C7.17186 0.637727 7.69689 0.930442 8.09961 1.36158C8.5013 0.931175 9.02485 0.638512 9.59961 0.530522L12.1475 0.0578654L12.334 0.0275919ZM3.43262 1.56372C2.92956 1.56381 2.44627 1.76756 2.08984 2.13208C1.73327 2.49677 1.5332 2.99235 1.5332 3.50904V10.8684C1.53325 11.3245 1.68937 11.7658 1.97461 12.1155C2.25984 12.4651 2.6557 12.701 3.09277 12.7825L7.2832 13.5608L7.33301 13.5686V3.31275C7.33237 3.01694 7.22994 2.73065 7.04492 2.50415C6.85998 2.27796 6.60396 2.12544 6.32129 2.07251L3.77441 1.59497C3.66164 1.57418 3.5472 1.564 3.43262 1.56372ZM13.251 1.62427C12.982 1.55165 12.7005 1.54114 12.4268 1.59205L9.87891 2.06861C9.59537 2.12143 9.33857 2.27513 9.15332 2.5022C8.96805 2.72937 8.86617 3.01626 8.86621 3.31275V13.5686C8.88271 13.5657 8.89943 13.5638 8.91602 13.5608L13.1064 12.7825C13.5435 12.701 13.9394 12.4651 14.2246 12.1155C14.5098 11.7658 14.666 11.3245 14.666 10.8684V3.50904C14.6664 3.22352 14.6053 2.94145 14.4873 2.68287C14.3693 2.42424 14.1972 2.19471 13.9834 2.01197C13.7697 1.82947 13.5198 1.69687 13.251 1.62427Z" fill="currentColor"/>
</svg>
