<svg width="current" height="current" viewBox="0 0 16 16" fill="none" xmlns="http://www.w3.org/2000/svg">
<path d="M5.97778 16H2.66716C1.95979 16 1.28138 15.719 0.781194 15.219C0.281004 14.7189 0 14.0406 0 13.3333V10C0 9.29276 0.281004 8.61448 0.781194 8.11438C1.28138 7.61428 1.95979 7.33333 2.66716 7.33333H8.57293C8.9338 7.3335 9.28851 7.42681 9.60274 7.60422C9.91697 7.78162 10.1801 8.03713 10.3666 8.346L12.5117 5.98933C12.6891 5.79426 12.9032 5.63606 13.1418 5.52377C13.3805 5.41149 13.6389 5.34732 13.9023 5.33494C14.1657 5.32256 14.429 5.3622 14.6771 5.45161C14.9252 5.54101 15.1532 5.67843 15.3482 5.856C15.7372 6.21329 15.9703 6.70899 15.9974 7.23641C16.0244 7.76384 15.8433 8.28079 15.4929 8.676L10.9587 13.7673C10.3327 14.4693 9.5653 15.0311 8.70691 15.4159C7.84852 15.8007 6.91849 15.9997 5.97778 16ZM2.66716 8.66667C2.31348 8.66667 1.97427 8.80714 1.72418 9.05719C1.47408 9.30724 1.33358 9.64638 1.33358 10V13.3333C1.33358 13.687 1.47408 14.0261 1.72418 14.2761C1.97427 14.5262 2.31348 14.6667 2.66716 14.6667H5.97778C6.72987 14.6664 7.4734 14.5072 8.15965 14.1995C8.8459 13.8918 9.45937 13.4426 9.95985 12.8813L14.4974 7.78933C14.6152 7.65666 14.6762 7.48304 14.6672 7.30585C14.6582 7.12866 14.58 6.96209 14.4494 6.842C14.3165 6.72262 14.1424 6.65972 13.9639 6.66667C13.8755 6.67041 13.7886 6.69173 13.7085 6.72939C13.6284 6.76705 13.5565 6.82029 13.4972 6.886L10.546 10.1333C10.4164 10.4918 10.1919 10.8085 9.89644 11.0494C9.60097 11.2903 9.24563 11.4465 8.86832 11.5013L5.42701 11.9933C5.25193 12.0184 5.07405 11.973 4.9325 11.867C4.79095 11.7609 4.69731 11.603 4.6722 11.428C4.64709 11.253 4.69256 11.0751 4.7986 10.9336C4.90464 10.7921 5.06257 10.6984 5.23764 10.6733L8.67962 10.182C8.87068 10.1553 9.04447 10.0571 9.1659 9.9072C9.28733 9.75732 9.34733 9.56695 9.33378 9.37454C9.32024 9.18213 9.23415 9.00204 9.09292 8.87065C8.95169 8.73925 8.76585 8.66635 8.57293 8.66667H2.66716ZM7.3347 6.04933C7.03248 6.05015 6.73908 5.94758 6.50321 5.75867C5.36166 4.84267 4.00074 3.46667 4.00074 2.13333C3.98437 1.58558 4.18563 1.05363 4.5605 0.653843C4.93537 0.254056 5.45334 0.0189681 6.00112 0C6.49944 0.00194055 6.97755 0.197212 7.3347 0.544667C7.69185 0.197212 8.16996 0.00194055 8.66828 0C9.21605 0.0189681 9.73402 0.254056 10.1089 0.653843C10.4838 1.05363 10.685 1.58558 10.6687 2.13333C10.6687 3.46667 9.30773 4.84267 8.16552 5.75933C7.92974 5.94786 7.63661 6.05018 7.3347 6.04933ZM6.00112 1.33333C5.80731 1.35278 5.62888 1.44748 5.50419 1.59708C5.3795 1.74669 5.3185 1.93924 5.33433 2.13333C5.33433 2.73333 6.1018 3.72667 7.3387 4.71933C8.56759 3.72667 9.33507 2.73333 9.33507 2.13333C9.35089 1.93924 9.2899 1.74669 9.16521 1.59708C9.04051 1.44748 8.86208 1.35278 8.66828 1.33333C8.47448 1.35278 8.29605 1.44748 8.17135 1.59708C8.04666 1.74669 7.98567 1.93924 8.00149 2.13333C8.00149 2.31014 7.93124 2.47971 7.80619 2.60474C7.68114 2.72976 7.51154 2.8 7.3347 2.8C7.15785 2.8 6.98825 2.72976 6.86321 2.60474C6.73816 2.47971 6.66791 2.31014 6.66791 2.13333C6.68373 1.93924 6.62274 1.74669 6.49804 1.59708C6.37335 1.44748 6.19492 1.35278 6.00112 1.33333Z" fill="currentColor"/>
</svg>
