<svg xmlns="http://www.w3.org/2000/svg" width="current" height="current" viewBox="0 0 24 24" fill="none">

<path d="M6.88889 18.6667V20H5.77778V18.6667H6.88889ZM18.2222 18.6667V20H11.7778V18.6667H18.2222ZM18.6667 18.2222V14.4444C18.6667 14.199 18.4677 14 18.2222 14H11.7778C11.5323 14 11.3333 14.199 11.3333 14.4444V18.2222C11.3333 18.4677 11.5323 18.6667 11.7778 18.6667V20C10.7959 20 10 19.2041 10 18.2222V14.4444C10 13.4626 10.7959 12.6667 11.7778 12.6667H18.2222C19.2041 12.6667 20 13.4626 20 14.4444V18.2222C20 19.2041 19.2041 20 18.2222 20V18.6667C18.4677 18.6667 18.6667 18.4677 18.6667 18.2222ZM7.33333 18.2222V14.4444C7.33333 14.199 7.13435 14 6.88889 14H5.77778C5.53232 14 5.33333 14.199 5.33333 14.4444V18.2222C5.33333 18.4677 5.53232 18.6667 5.77778 18.6667V20C4.79594 20 4 19.2041 4 18.2222V14.4444C4 13.4626 4.79594 12.6667 5.77778 12.6667H6.88889C7.87073 12.6667 8.66667 13.4626 8.66667 14.4444V18.2222C8.66667 19.2041 7.87073 20 6.88889 20V18.6667C7.13435 18.6667 7.33333 18.4677 7.33333 18.2222ZM12.2222 10V11.3333H5.77778V10H12.2222ZM18.2222 10V11.3333H17.1111V10H18.2222ZM18.6667 9.55556V5.77778C18.6667 5.53232 18.4677 5.33333 18.2222 5.33333H17.1111C16.8657 5.33333 16.6667 5.53232 16.6667 5.77778V9.55556C16.6667 9.80102 16.8657 10 17.1111 10V11.3333C16.1293 11.3333 15.3333 10.5374 15.3333 9.55556V5.77778C15.3333 4.79594 16.1293 4 17.1111 4H18.2222C19.2041 4 20 4.79594 20 5.77778V9.55556C20 10.5374 19.2041 11.3333 18.2222 11.3333V10C18.4677 10 18.6667 9.80102 18.6667 9.55556ZM12.6667 9.55556V5.77778C12.6667 5.53232 12.4677 5.33333 12.2222 5.33333H5.77778C5.53232 5.33333 5.33333 5.53232 5.33333 5.77778V9.55556C5.33333 9.80102 5.53232 10 5.77778 10V11.3333C4.79594 11.3333 4 10.5374 4 9.55556V5.77778C4 4.8572 4.69975 4.10045 5.59635 4.00955L5.77778 4H12.2222C13.2041 4 14 4.79594 14 5.77778V9.55556C14 10.5374 13.2041 11.3333 12.2222 11.3333V10C12.4677 10 12.6667 9.80102 12.6667 9.55556Z" fill="currentColor"/>
</svg>