<svg
  width="current"
  height="current"
  viewBox="0 0 18 16"
  fill="none"
  xmlns="http://www.w3.org/2000/svg"
>
  <path
    d="M9.0003 2.92018C9.01937 2.8809 10.8605 -0.887736 14.5433 0.195569C18.2455 1.28501 18.5209 5.10095 17.4632 7.82545L17.348 8.08912C16.0065 10.8859 9.92215 16.0003 9.0003 16.0003C8.04846 16 1.59518 10.5499 0.537406 7.82545C-0.487205 5.18616 -0.261273 1.52286 3.11944 0.305921L3.45733 0.195569C7.13862 -0.88732 8.97984 2.87808 9.0003 2.92018ZM14.1204 1.63502C12.9035 1.27693 12.0368 1.68956 11.3782 2.27272C11.0363 2.5755 10.77 2.91322 10.5882 3.1819C10.4988 3.31397 10.4341 3.42398 10.3939 3.49537C10.374 3.53058 10.36 3.55582 10.3528 3.56959L10.348 3.57936L10.3489 3.57643L10.3011 3.66725C10.0351 4.13078 9.5401 5.00048 9.0003 5.00049C8.46049 5.00047 7.96545 4.1308 7.69952 3.66725L7.65166 3.57643L7.65264 3.57936L7.65362 3.58131C7.65362 3.58131 7.65121 3.57721 7.64776 3.57057C7.64066 3.55693 7.62766 3.53076 7.60772 3.49537C7.56748 3.42398 7.50181 3.314 7.41241 3.1819C7.23056 2.91324 6.96429 2.57546 6.62237 2.27272C5.96373 1.6896 5.09704 1.27694 3.88018 1.63502C2.5574 2.02432 1.92686 2.83579 1.65752 3.80104C1.3651 4.84914 1.4948 6.14638 1.93584 7.28248C2.10306 7.71319 2.56178 8.40444 3.30987 9.27467C4.02882 10.111 4.91943 11.0042 5.82061 11.8274C6.72164 12.6505 7.60874 13.3805 8.31182 13.8958C8.58382 14.0951 8.8166 14.2492 9.0003 14.3635C9.184 14.2492 9.41674 14.0951 9.68877 13.8958C10.3918 13.3805 11.2789 12.6505 12.18 11.8274C13.0812 11.0042 13.9718 10.111 14.6907 9.27467C15.4388 8.40444 15.8975 7.71319 16.0648 7.28248C16.5058 6.14639 16.6355 4.84916 16.3431 3.80104C16.0737 2.83576 15.4432 2.02432 14.1204 1.63502Z"
    fill="currentColor"
  />
</svg>
