<svg
  width="current"
  height="current"
  viewBox="0 0 20 20"
  fill="none"
  xmlns="http://www.w3.org/2000/svg"
>
  <path
    d="M17.3226 2.61719C15.8335 1.12811 13.4193 1.12745 11.9302 2.61649L8.46711 5.97172C8.46711 5.97172 7.96711 6.47221 7.46711 5.97196C6.96711 5.47172 7.46711 4.97172 7.46711 4.97172L10.8696 1.55583L11.0678 1.36732C13.1534 -0.517027 16.3733 -0.453487 18.3833 1.55653L18.5718 1.75471C20.3951 3.77306 20.3952 6.8531 18.5718 8.87135L18.3833 9.06953L14.9297 12.5231C14.9297 12.5231 14.4671 12.9717 13.9671 12.4717C13.4671 11.9717 13.9017 11.4298 13.9017 11.4298L17.3226 8.00887C18.8115 6.51989 18.8114 4.10628 17.3226 2.61719Z"
    fill="currentColor"
  />
  <path
    d="M2.617 11.9297C1.12791 13.4188 1.12791 15.8337 2.617 17.3228C4.10611 18.8116 6.52039 18.8111 8.00938 17.3221L11.4065 13.9111C11.4065 13.9111 11.9158 13.3597 12.4671 13.9111C13.0185 14.4624 12.4671 14.9717 12.4671 14.9717L9.07003 18.3828L8.87185 18.5713C6.8536 20.3951 3.773 20.3954 1.75452 18.572L1.55634 18.3835C-0.453793 16.3733 -0.516864 13.1529 1.36782 11.0672L1.55634 10.8691L4.96711 7.47172C4.96711 7.47172 5.46711 6.98539 5.96711 7.48539C6.46711 7.98539 5.96711 8.59304 5.96711 8.59304L2.617 11.9297Z"
    fill="currentColor"
  />
  <path
    d="M12.9368 5.94138C13.2297 5.64849 13.7044 5.64849 13.9973 5.94138C14.2902 6.23427 14.2902 6.70903 13.9973 7.00193L6.99732 14.0019C6.70442 14.2948 6.22966 14.2948 5.93677 14.0019C5.64388 13.709 5.64388 13.2343 5.93677 12.9414L12.9368 5.94138Z"
    fill="currentColor"
  />
</svg>