<svg width="current" height="current" viewBox="0 0 21 21" fill="none" xmlns="http://www.w3.org/2000/svg">
<path d="M2.62402 5.33984C2.14102 5.33984 1.74902 5.73184 1.74902 6.21484C1.74902 6.69784 2.14102 7.08984 2.62402 7.08984H18.374C18.857 7.08984 19.249 6.69784 19.249 6.21484C19.249 5.73184 18.857 5.33984 18.374 5.33984H2.62402ZM2.62402 9.71484C2.14102 9.71484 1.74902 10.1068 1.74902 10.5898C1.74902 11.0728 2.14102 11.4648 2.62402 11.4648H18.374C18.857 11.4648 19.249 11.0728 19.249 10.5898C19.249 10.1068 18.857 9.71484 18.374 9.71484H2.62402ZM2.62402 14.0898C2.14102 14.0898 1.74902 14.4818 1.74902 14.9648C1.74902 15.4478 2.14102 15.8398 2.62402 15.8398H18.374C18.857 15.8398 19.249 15.4478 19.249 14.9648C19.249 14.4818 18.857 14.0898 18.374 14.0898H2.62402Z" fill="currentColor"/>
</svg>
