<svg width="current" height="current" viewBox="0 0 49 43" fill="none" xmlns="http://www.w3.org/2000/svg">
<path d="M32.6818 26.4286C36.0773 26.4286 38.7977 23.6529 38.7977 20.2143C38.7977 16.7757 36.0773 14 32.6818 14C29.2864 14 26.5455 16.7757 26.5455 20.2143C26.5455 23.6529 29.2864 26.4286 32.6818 26.4286ZM16.3182 26.4286C19.7136 26.4286 22.4341 23.6529 22.4341 20.2143C22.4341 16.7757 19.7136 14 16.3182 14C12.9227 14 10.1818 16.7757 10.1818 20.2143C10.1818 23.6529 12.9227 26.4286 16.3182 26.4286ZM16.3182 30.5714C11.5523 30.5714 2 32.995 2 37.8214V43H30.6364V37.8214C30.6364 32.995 21.0841 30.5714 16.3182 30.5714ZM32.6818 30.5714C32.0886 30.5714 31.4136 30.6129 30.6977 30.675C33.0705 32.415 34.7273 34.7557 34.7273 37.8214V43H47V37.8214C47 32.995 37.4477 30.5714 32.6818 30.5714Z" fill="currentColor"/>
</svg>
