<svg width="current" height="current" viewBox="0 0 16 16" fill="none" xmlns="http://www.w3.org/2000/svg">
<path d="M14.5 8C14.5 4.41015 11.5899 1.5 8 1.5C4.41015 1.5 1.5 4.41015 1.5 8C1.5 11.5899 4.41015 14.5 8 14.5V16C3.58172 16 0 12.4183 0 8C0 3.58172 3.58172 0 8 0C12.4183 0 16 3.58172 16 8C16 12.4183 12.4183 16 8 16V14.5C11.5899 14.5 14.5 11.5899 14.5 8Z" fill="currentColor"/>
<path d="M8.75002 12.0022C8.75002 12.4165 8.41423 12.7522 8.00002 12.7522C7.5858 12.7522 7.25002 12.4165 7.25002 12.0022C7.25002 11.588 7.5858 11.2522 8.00002 11.2522C8.41423 11.2522 8.75002 11.588 8.75002 12.0022Z" fill="currentColor"/>
<path d="M7.34961 9.83509V8.50013C7.34961 8.25407 7.489 8.02925 7.70898 7.91908C8.6347 7.45622 9.01851 7.03257 9.18555 6.74037C9.34697 6.45785 9.34961 6.22811 9.34961 6.00013C9.34961 5.48448 9.13307 5.2031 8.87402 5.0265C8.58176 4.82728 8.21544 4.75501 8 4.75501C7.48389 4.75501 7.1645 4.98232 6.95508 5.25794C6.72203 5.56469 6.65039 5.90261 6.65039 6.00013C6.65019 6.35895 6.35886 6.64954 6 6.64954C5.64114 6.64954 5.34981 6.35895 5.34961 6.00013C5.34961 5.59793 5.52806 4.98766 5.91992 4.47181C6.3355 3.92483 7.01614 3.45423 8 3.45423C8.42384 3.45423 9.0577 3.57907 9.60547 3.95228C10.1865 4.34837 10.6504 5.01581 10.6504 6.00013C10.6504 6.27212 10.6529 6.79255 10.3145 7.3849C10.0206 7.89914 9.50512 8.40718 8.65039 8.8888V9.83509C8.65028 10.194 8.35891 10.4845 8 10.4845C7.64109 10.4845 7.34972 10.194 7.34961 9.83509Z" fill="currentColor"/>
</svg>
