<svg
  width="current"
  height="current"
  viewBox="0 0 16 16"
  fill="none"
  xmlns="http://www.w3.org/2000/svg"
>
  <path
    d="M8.90724 4.4897C8.90724 4.13227 9.04795 3.78863 9.29816 3.53337L11.5713 1.25951C11.0542 1.15064 10.5184 1.14093 9.99312 1.23664C9.17385 1.38592 8.41935 1.78169 7.83051 2.37053C7.24187 2.95927 6.84668 3.71334 6.69738 4.53238C6.54812 5.35158 6.65208 6.19696 6.99533 6.9556C7.09576 7.17752 7.04794 7.43869 6.8757 7.61093L1.48365 13.003C1.28307 13.2036 1.17046 13.4759 1.17046 13.7597C1.17049 14.0434 1.28302 14.3157 1.48365 14.5163C1.68428 14.717 1.9566 14.8295 2.24034 14.8295C2.52406 14.8295 2.79636 14.7169 2.99702 14.5163L8.38907 9.1243L8.45765 9.06563C8.62601 8.94252 8.85022 8.9168 9.0444 9.00467C9.80306 9.34795 10.6484 9.45188 11.4676 9.30262C12.2867 9.15333 13.0407 8.75815 13.6295 8.16949C14.2183 7.58065 14.6141 6.82615 14.7634 6.00688C14.8591 5.48125 14.8488 4.9453 14.7397 4.42798L12.4666 6.70185C12.2114 6.95205 11.8677 7.09276 11.5103 7.09276C11.153 7.09269 10.8099 6.95199 10.5547 6.70185L10.5502 6.69804L9.30197 5.44985L9.29816 5.44528C9.048 5.19007 8.90729 4.84706 8.90724 4.4897ZM10.0777 4.4897C10.0778 4.54069 10.0984 4.58969 10.1341 4.62611L11.3739 5.86591C11.4103 5.90159 11.4593 5.92223 11.5103 5.9223C11.5614 5.9223 11.611 5.90165 11.6475 5.86591L14.585 2.92833L14.6384 2.88108C14.769 2.77909 14.938 2.73673 15.1032 2.76678C15.2922 2.80122 15.4523 2.92627 15.5315 3.10131C15.9728 4.07666 16.1066 5.1632 15.9148 6.21644C15.7229 7.26971 15.2148 8.23998 14.4578 8.99705C13.7007 9.75413 12.7305 10.2629 11.6772 10.4548C10.759 10.6221 9.81543 10.5411 8.94229 10.2254L3.82457 15.3439C3.40441 15.764 2.83449 16 2.24034 16C1.64618 16 1.07623 15.764 0.656098 15.3439C0.235967 14.9238 3.07411e-05 14.3538 0 13.7597C0 13.1655 0.236012 12.5956 0.656098 12.1754L5.77382 7.05695C5.45839 6.18405 5.37873 5.24072 5.54597 4.32282C5.7379 3.26951 6.24589 2.29928 7.00295 1.54221C7.76002 0.78521 8.73029 0.277143 9.78356 0.0852343C10.8368 -0.106611 11.9233 0.0271875 12.8987 0.46853C13.0737 0.547735 13.1988 0.707779 13.2332 0.896784C13.2676 1.08575 13.2075 1.2799 13.0717 1.41572L10.1371 4.34949L10.1333 4.35254C10.0976 4.389 10.0777 4.43866 10.0777 4.4897Z"
    fill="currentColor"
  />
</svg>


