<svg width="24" height="24" viewBox="0 0 24 24" fill="none" xmlns="http://www.w3.org/2000/svg">
<rect width="24" height="24" fill="white"/>
<path d="M5 17.8182V6.18182C5 4.97683 5.9402 4 7.1 4H13.5203C14.0772 4.00006 14.6113 4.23009 15.0051 4.6392L18.3848 8.15057C18.7785 8.55969 18.9999 9.11461 19 9.69318V17.8182C19 19.0232 18.0598 20 16.9 20H7.1C5.9402 20 5 19.0232 5 17.8182ZM14.45 14.1818C14.8366 14.1818 15.15 14.5074 15.15 14.9091C15.15 15.3108 14.8366 15.6364 14.45 15.6364H8.5C8.1134 15.6364 7.8 15.3108 7.8 14.9091C7.8 14.5074 8.1134 14.1818 8.5 14.1818H14.45ZM14.45 11.2727C14.8366 11.2727 15.15 11.5983 15.15 12C15.15 12.4017 14.8366 12.7273 14.45 12.7273H8.5C8.1134 12.7273 7.8 12.4017 7.8 12C7.8 11.5983 8.1134 11.2727 8.5 11.2727H14.45ZM6.4 17.8182C6.4 18.2198 6.7134 18.5455 7.1 18.5455H16.9C17.2866 18.5455 17.6 18.2198 17.6 17.8182V9.69318C17.5999 9.50038 17.5261 9.31532 17.3949 9.17898L14.0152 5.66761C13.884 5.53127 13.7059 5.4546 13.5203 5.45455H7.1C6.7134 5.45455 6.4 5.78016 6.4 6.18182V17.8182Z" fill="#6B7280"/>
</svg>
