<svg
  width="current"
  height="current"
  viewBox="0 0 16 16"
  fill="none"
  xmlns="http://www.w3.org/2000/svg"
>
  <path
    fill-rule="evenodd"
    clip-rule="evenodd"
    d="M13.3788 0.104771C14.9243 -0.410135 16.3948 1.06028 15.8798 2.6057L11.8706 14.6323C11.3296 16.2552 9.12199 16.4716 8.27621 14.9846L5.98488 10.954C5.7585 10.5559 5.42859 10.2261 5.03053 9.99967L0.999969 7.70834C-0.487312 6.86263 -0.270842 4.65496 1.35228 4.11392L13.3788 0.104771ZM14.5803 2.17223C14.738 1.69798 14.2866 1.24667 13.8123 1.40429L1.78575 5.41344C1.28753 5.57952 1.22075 6.25687 1.67693 6.51674L5.70749 8.80896C5.81049 8.86754 5.9095 8.93252 6.00628 8.99983L7.62065 7.38725C7.88815 7.11976 8.32177 7.11975 8.58927 7.38725C8.85637 7.65478 8.85662 8.08849 8.58927 8.35587L6.97669 9.96666C7.04702 10.067 7.11468 10.1699 7.17558 10.2771L9.4678 14.3076C9.72774 14.7635 10.405 14.6969 10.5711 14.1988L14.5803 2.17223Z"
    fill="currentColor"
  />
</svg>