<svg width="current" height="current" viewBox="0 0 170 140" fill="none" xmlns="http://www.w3.org/2000/svg">
<path d="M52.6923 76.3645C52.6923 75.159 53.1786 74.0028 54.0441 73.1503C54.9097 72.2979 56.0836 71.819 57.3077 71.819H112.692C113.916 71.819 115.09 72.2979 115.956 73.1503C116.821 74.0028 117.308 75.159 117.308 76.3645C117.308 77.5701 116.821 78.7263 115.956 79.5787C115.09 80.4312 113.916 80.9101 112.692 80.9101H57.3077C56.0836 80.9101 54.9097 80.4312 54.0441 79.5787C53.1786 78.7263 52.6923 77.5701 52.6923 76.3645ZM57.3077 99.0923H112.692C113.916 99.0923 115.09 98.6134 115.956 97.761C116.821 96.9085 117.308 95.7523 117.308 94.5468C117.308 93.3412 116.821 92.185 115.956 91.3326C115.09 90.4801 113.916 90.0012 112.692 90.0012H57.3077C56.0836 90.0012 54.9097 90.4801 54.0441 91.3326C53.1786 92.185 52.6923 93.3412 52.6923 94.5468C52.6923 95.7523 53.1786 96.9085 54.0441 97.761C54.9097 98.6134 56.0836 99.0923 57.3077 99.0923ZM145 49.0911V135.457C145 136.232 144.798 136.993 144.415 137.67C144.031 138.346 143.479 138.915 142.809 139.322C142.14 139.729 141.376 139.961 140.59 139.995C139.804 140.03 139.023 139.866 138.319 139.519L121.923 131.445L105.527 139.519C104.886 139.835 104.179 140 103.462 140C102.745 140 102.037 139.835 101.396 139.519L85 131.445L68.6038 139.519C67.9626 139.835 67.2555 140 66.5385 140C65.8214 140 65.1143 139.835 64.4731 139.519L48.0769 131.445L31.6808 139.519C30.9773 139.866 30.1955 140.03 29.4097 139.995C28.6238 139.961 27.8599 139.729 27.1906 139.322C26.5213 138.915 25.9687 138.346 25.5853 137.67C25.2019 136.993 25.0004 136.232 25 135.457V49.0911C25 46.68 25.9725 44.3676 27.7036 42.6627C29.4347 40.9578 31.7826 40 34.2308 40H135.769C138.217 40 140.565 40.9578 142.296 42.6627C144.027 44.3676 145 46.68 145 49.0911ZM135.769 49.0911H34.2308V128.104L46.0115 122.297C46.6528 121.981 47.3599 121.817 48.0769 121.817C48.7939 121.817 49.5011 121.981 50.1423 122.297L66.5385 130.377L82.9346 122.297C83.5758 121.981 84.283 121.817 85 121.817C85.717 121.817 86.4242 121.981 87.0654 122.297L103.462 130.377L119.858 122.297C120.499 121.981 121.206 121.817 121.923 121.817C122.64 121.817 123.347 121.981 123.988 122.297L135.769 128.104V49.0911Z" fill="currentColor"/>
</svg>
