<svg width="current" height="current" viewBox="0 0 17 12" fill="none" xmlns="http://www.w3.org/2000/svg">
<path d="M2.83691 0.00840485C3.31897 0.04623 3.78118 0.210778 4.17188 0.483991L6.55371 2.15001C6.61137 1.76494 6.76222 1.39725 6.99512 1.07676C7.26229 0.709163 7.62793 0.416948 8.05273 0.230085C8.47747 0.043289 8.94708 -0.0312507 9.41211 0.0132877C9.87706 0.0578902 10.3217 0.220144 10.6992 0.483991L15.127 3.57872C15.4588 3.81094 15.7295 4.11448 15.916 4.46544C16.1025 4.81644 16.1992 5.20528 16.1992 5.59923C16.1991 5.99302 16.1024 6.38117 15.916 6.73204C15.7295 7.08301 15.4588 7.38652 15.127 7.61876L10.6992 10.7135C10.3217 10.9773 9.87707 11.1396 9.41211 11.1842C8.94712 11.2288 8.47748 11.1541 8.05273 10.9674C7.62821 10.7807 7.26325 10.4889 6.99609 10.1217C6.7628 9.80096 6.61141 9.43296 6.55371 9.04747L4.17188 10.7145C3.72313 11.0293 3.18117 11.1992 2.625 11.1998C1.93052 11.1995 1.26304 10.9367 0.770508 10.4674C0.277944 9.99798 0.000553288 9.35999 4.56603e-08 8.69395V2.5045C-9.04964e-05 2.04074 0.134476 1.5865 0.388672 1.192C0.642915 0.79747 1.00643 0.477791 1.43848 0.269147C1.87044 0.06059 2.35481 -0.0293599 2.83691 0.00840485ZM9.24219 1.4752C9.0407 1.45951 8.83808 1.49771 8.6582 1.58458C8.47851 1.67143 8.3284 1.80403 8.22363 1.96641C8.11897 2.12873 8.06368 2.31479 8.06348 2.5045V3.57774C8.06338 3.71458 8.02299 3.84858 7.94824 3.96446C7.87354 4.08025 7.76751 4.17414 7.6416 4.23497C7.51571 4.29575 7.37453 4.32107 7.23438 4.31016C7.09415 4.29922 6.95894 4.25221 6.84473 4.17247L3.26855 1.67247C3.10619 1.55917 2.91337 1.49089 2.71191 1.4752C2.51048 1.45951 2.30875 1.49777 2.12891 1.58458C1.94905 1.67143 1.7982 1.80392 1.69336 1.96641C1.58876 2.1287 1.5334 2.31485 1.5332 2.5045V8.69395C1.53335 8.88383 1.58855 9.07057 1.69336 9.23301C1.7982 9.39549 1.94907 9.52801 2.12891 9.61485C2.30869 9.70158 2.51057 9.73893 2.71191 9.72325C2.91338 9.70755 3.10619 9.6393 3.26855 9.52598L6.84375 7.02696C6.97537 6.93484 7.13368 6.8853 7.2959 6.88536C7.49775 6.88536 7.69278 6.96187 7.83691 7.09923C7.98111 7.2367 8.06344 7.42415 8.06348 7.62071V8.69395C8.06363 8.88383 8.11883 9.07057 8.22363 9.23301C8.32844 9.39538 8.47848 9.52804 8.6582 9.61485C8.83808 9.70171 9.0407 9.73894 9.24219 9.72325C9.44341 9.70751 9.63564 9.63911 9.79785 9.52598L14.2256 6.43126L14.3242 6.35411C14.4175 6.27131 14.4951 6.17346 14.5527 6.06505C14.6296 5.92059 14.6689 5.76067 14.6689 5.59923C14.6689 5.43799 14.6294 5.27869 14.5527 5.13438C14.4759 4.98989 14.3635 4.86357 14.2256 4.76719L9.79785 1.67247C9.63566 1.55941 9.44335 1.49093 9.24219 1.4752Z" fill="currentColor"/>
</svg>
