<svg width="current" height="current" viewBox="0 0 18 18" fill="none" xmlns="http://www.w3.org/2000/svg">
<path d="M17.8738 6.66653C17.7203 6.16204 17.4138 5.72196 16.9995 5.41135C16.5851 5.10074 16.085 4.93611 15.5731 4.94179H12.2958L11.3004 1.73715C11.1438 1.23271 10.8362 0.792657 10.4219 0.480446C10.0076 0.168235 9.50803 0 8.99518 0C8.48234 0 7.98275 0.168235 7.56845 0.480446C7.15415 0.792657 6.84655 1.23271 6.69001 1.73715L5.69458 4.94179H2.41724C1.90696 4.94254 1.40995 5.10983 0.997218 5.41977C0.584485 5.72972 0.277134 6.16645 0.119065 6.6676C-0.0390026 7.16875 -0.0397023 7.70868 0.117067 8.21026C0.273835 8.71185 0.580054 9.14943 0.991982 9.46051L3.65947 11.475L2.64528 14.7192C2.48139 15.2223 2.47931 15.7667 2.63936 16.2712C2.79942 16.7757 3.11303 17.2132 3.53344 17.5186C3.94666 17.8338 4.4474 18.0026 4.96107 18C5.47473 17.9973 5.97382 17.8233 6.38396 17.5039L8.99518 15.5188L11.6072 17.5016C12.0196 17.8149 12.5177 17.9851 13.0297 17.9877C13.5417 17.9903 14.0413 17.8251 14.4567 17.5159C14.8721 17.2067 15.1819 16.7694 15.3415 16.2669C15.5012 15.7643 15.5024 15.2225 15.3451 14.7192L14.3309 11.475L17.0014 9.46051C17.418 9.15333 17.7278 8.71576 17.885 8.21255C18.0421 7.70934 18.0382 7.16725 17.8738 6.66653ZM16.1162 8.20918L13.0077 10.5561C12.88 10.6523 12.785 10.7877 12.7362 10.943C12.6875 11.0983 12.6874 11.2655 12.7361 11.4208L13.9176 15.1941C13.9774 15.3855 13.9768 15.5916 13.9161 15.7826C13.8554 15.9737 13.7376 16.1399 13.5796 16.2575C13.4216 16.375 13.2316 16.4378 13.0369 16.4368C12.8422 16.4357 12.6529 16.371 12.4961 16.2518L9.43926 13.9273C9.31051 13.8296 9.15493 13.777 8.99518 13.777C8.83543 13.777 8.67985 13.8296 8.5511 13.9273L5.4943 16.2518C5.33758 16.3726 5.14769 16.4387 4.95215 16.4405C4.75661 16.4424 4.56559 16.3798 4.40677 16.262C4.24796 16.1441 4.12961 15.9771 4.06889 15.7851C4.00816 15.5931 4.00822 15.3861 4.06904 15.1941L5.25425 11.4208C5.30295 11.2655 5.30292 11.0983 5.25415 10.943C5.20539 10.7877 5.11039 10.6523 4.98271 10.5561L1.87414 8.20918C1.71759 8.09079 1.60127 7.92432 1.54179 7.73356C1.48231 7.5428 1.48271 7.3375 1.54295 7.14699C1.60318 6.95648 1.72016 6.7905 1.87717 6.67277C2.03419 6.55503 2.22321 6.49156 2.41724 6.49142H6.24293C6.40175 6.49141 6.55647 6.43934 6.6848 6.34271C6.81314 6.24608 6.90847 6.10987 6.95706 5.9537L8.11977 2.21056C8.17946 2.01901 8.29644 1.85197 8.45389 1.73347C8.61133 1.61496 8.80112 1.55112 8.99593 1.55112C9.19074 1.55112 9.38053 1.61496 9.53798 1.73347C9.69542 1.85197 9.81241 2.01901 9.87209 2.21056L11.0348 5.9537C11.0834 6.10987 11.1787 6.24608 11.3071 6.34271C11.4354 6.43934 11.5901 6.49141 11.7489 6.49142H15.5746C15.7687 6.49156 15.9577 6.55503 16.1147 6.67277C16.2717 6.7905 16.3887 6.95648 16.4489 7.14699C16.5092 7.3375 16.5096 7.5428 16.4501 7.73356C16.3906 7.92432 16.2743 8.09079 16.1177 8.20918H16.1162Z" fill="currentColor"/>
</svg>
