<svg width="current" height="current" viewBox="0 0 37 37" fill="none" xmlns="http://www.w3.org/2000/svg">
<path  d="M18.5215 6.49714C13.7725 6.53464 9.42099 9.72665 8.28099 14.8011C5.36949 16.0251 3.52148 18.7881 3.52148 22.0596C3.52148 26.5746 7.0855 30.4971 11.4895 30.4971H12.5215C13.3495 30.4971 14.0215 29.8266 14.0215 28.9971C14.0215 28.1691 13.3495 27.4971 12.5215 27.4971H11.4895C8.8105 27.4971 6.52148 24.9786 6.52148 22.0596C6.52148 19.8201 7.92248 17.9586 10.0375 17.3256C10.597 17.1576 10.9855 16.6851 11.068 16.1061C11.647 12.0471 14.9095 9.52564 18.5215 9.49714C22.543 9.46564 26.053 12.9276 26.0215 16.9971C26.0215 17.0871 26.0215 18.2916 26.0215 18.6381C26.0215 19.3356 26.4655 19.9341 27.1465 20.0901C29.1205 20.5476 30.5215 22.0956 30.5215 23.7471C30.5215 25.7706 28.5475 27.4971 26.0215 27.4971H24.5215C23.6935 27.4971 23.0215 28.1691 23.0215 28.9971C23.0215 29.8251 23.6935 30.4971 24.5215 30.4971H26.0215C30.1225 30.4971 33.5215 27.5226 33.5215 23.7471C33.5215 21.0246 31.699 18.6156 29.002 17.5746C29.005 17.3076 29.0215 17.0361 29.0215 16.9971C29.0665 11.2431 24.208 6.45214 18.5215 6.49714ZM18.5215 15.4971L14.0035 20.0166L17.0215 19.9971V28.9971C17.0215 29.8251 17.6935 30.4971 18.5215 30.4971C19.3495 30.4971 20.0215 29.8251 20.0215 28.9971V19.9971L23.0395 20.0106L18.5215 15.4971Z" fill="currentColor"/>
</svg>
