<svg width="current" height="current" viewBox="0 0 24 24" fill="none" xmlns="http://www.w3.org/2000/svg">
<path d="M12.5 3H5C3.89543 3 3 3.89543 3 5V19C3 20.1046 3.89543 21 5 21H19C20.1046 21 21 20.1046 21 19V11.5" stroke="currentColor" stroke-width="2" stroke-linecap="round"/>
<path d="M17.7692 9.5553L11.4369 15.8419C11.2028 16.0743 10.9149 16.2452 10.5987 16.3394L6.84161 17.4584C6.65443 17.5141 6.47848 17.3434 6.52862 17.1546L7.44415 13.7085C7.53339 13.3726 7.70863 13.0657 7.95258 12.8182L14.4445 6.23064M17.7692 9.5553L19.5859 7.73859C20.3669 6.95754 20.3669 5.69122 19.5859 4.91017L19.0896 4.41394C18.3086 3.63289 17.0423 3.63289 16.2612 4.41394L14.4445 6.23064M17.7692 9.5553L14.4445 6.23064" stroke="currentColor" stroke-width="2"/>
</svg>
