<svg width="1140" height="1140" viewBox="0 0 1140 1140" fill="none" xmlns="http://www.w3.org/2000/svg">
<rect width="1140" height="1140" fill="white"/>
<path d="M116.023 673.592C116.023 609.08 128.695 551.864 154.039 501.944C180.151 452.024 215.479 413.624 260.023 386.744C304.567 359.864 354.103 346.424 408.631 346.424C450.103 346.424 489.655 355.64 527.287 374.072C564.919 391.736 594.871 415.544 617.143 445.496V142.52H780.727V995H617.143V900.536C597.175 932.024 569.143 957.368 533.047 976.568C496.951 995.768 455.095 1005.37 407.479 1005.37C353.719 1005.37 304.567 991.544 260.023 963.896C215.479 936.248 180.151 897.464 154.039 847.544C128.695 796.856 116.023 738.872 116.023 673.592ZM618.295 675.896C618.295 636.728 610.615 603.32 595.255 575.672C579.895 547.256 559.159 525.752 533.047 511.16C506.935 495.8 478.903 488.12 448.951 488.12C418.999 488.12 391.351 495.416 366.007 510.008C340.663 524.6 319.927 546.104 303.799 574.52C288.439 602.168 280.759 635.192 280.759 673.592C280.759 711.992 288.439 745.784 303.799 774.968C319.927 803.384 340.663 825.272 366.007 840.632C392.119 855.992 419.767 863.672 448.951 863.672C478.903 863.672 506.935 856.376 533.047 841.784C559.159 826.424 579.895 804.92 595.255 777.272C610.615 748.856 618.295 715.064 618.295 675.896Z" fill="#282828"/>
<path d="M959.929 1003.48C929.225 1003.48 903.773 994.192 883.573 975.608C864.181 956.216 854.485 932.38 854.485 904.1C854.485 875.82 864.181 852.388 883.573 833.804C903.773 814.412 929.225 804.716 959.929 804.716C989.825 804.716 1014.47 814.412 1033.86 833.804C1053.25 852.388 1062.95 875.82 1062.95 904.1C1062.95 932.38 1053.25 956.216 1033.86 975.608C1014.47 994.192 989.825 1003.48 959.929 1003.48Z" fill="#2563EB"/>
</svg>
