<svg width="1140" height="1140" viewBox="0 0 1140 1140" fill="none" xmlns="http://www.w3.org/2000/svg">
<rect width="1140" height="1140" fill="white"/>
<path d="M150.323 673.592C150.323 609.08 162.995 551.864 188.339 501.944C214.451 452.024 249.779 413.624 294.323 386.744C338.867 359.864 388.403 346.424 442.931 346.424C484.403 346.424 523.955 355.64 561.587 374.072C599.219 391.736 629.171 415.544 651.443 445.496V142.52H815.027V995H651.443V900.536C631.475 932.024 603.443 957.368 567.347 976.568C531.251 995.768 489.395 1005.37 441.779 1005.37C388.019 1005.37 338.867 991.544 294.323 963.896C249.779 936.248 214.451 897.464 188.339 847.544C162.995 796.856 150.323 738.872 150.323 673.592ZM652.595 675.896C652.595 636.728 644.915 603.32 629.555 575.672C614.195 547.256 593.459 525.752 567.347 511.16C541.235 495.8 513.203 488.12 483.251 488.12C453.299 488.12 425.651 495.416 400.307 510.008C374.963 524.6 354.227 546.104 338.099 574.52C322.739 602.168 315.059 635.192 315.059 673.592C315.059 711.992 322.739 745.784 338.099 774.968C354.227 803.384 374.963 825.272 400.307 840.632C426.419 855.992 454.067 863.672 483.251 863.672C513.203 863.672 541.235 856.376 567.347 841.784C593.459 826.424 614.195 804.92 629.555 777.272C644.915 748.856 652.595 715.064 652.595 675.896Z" fill="#282828"/>
<path d="M936.629 1003.48C905.925 1003.48 880.473 994.192 860.273 975.608C840.881 956.216 831.185 932.38 831.185 904.1C831.185 875.82 840.881 852.388 860.273 833.804C880.473 814.412 905.925 804.716 936.629 804.716C966.525 804.716 991.169 814.412 1010.56 833.804C1029.95 852.388 1039.65 875.82 1039.65 904.1C1039.65 932.38 1029.95 956.216 1010.56 975.608C991.169 994.192 966.525 1003.48 936.629 1003.48Z" fill="#2563EB"/>
</svg>
