<svg width="797" height="758" viewBox="0 0 797 758" fill="none" xmlns="http://www.w3.org/2000/svg">
<g clip-path="url(#clip0_2511_21484)">
<path d="M61.8258 445.8C61.8258 401 70.6258 361.267 88.2258 326.6C106.359 291.933 130.892 265.267 161.826 246.6C192.759 227.933 227.159 218.6 265.026 218.6C293.826 218.6 321.292 225 347.426 237.8C373.559 250.067 394.359 266.6 409.826 287.4V77H523.426V669H409.826V603.4C395.959 625.267 376.492 642.867 351.426 656.2C326.359 669.533 297.292 676.2 264.226 676.2C226.892 676.2 192.759 666.6 161.826 647.4C130.892 628.2 106.359 601.267 88.2258 566.6C70.6258 531.4 61.8258 491.133 61.8258 445.8ZM410.626 447.4C410.626 420.2 405.292 397 394.626 377.8C383.959 358.067 369.559 343.133 351.426 333C333.292 322.333 313.826 317 293.026 317C272.226 317 253.026 322.067 235.426 332.2C217.826 342.333 203.426 357.267 192.226 377C181.559 396.2 176.226 419.133 176.226 445.8C176.226 472.467 181.559 495.933 192.226 516.2C203.426 535.933 217.826 551.133 235.426 561.8C253.559 572.467 272.759 577.8 293.026 577.8C313.826 577.8 333.292 572.733 351.426 562.6C369.559 551.933 383.959 537 394.626 517.8C405.292 498.067 410.626 474.6 410.626 447.4Z" fill="#282828"/>
<path d="M631.233 676.14C605.393 676.14 583.973 668.32 566.973 652.68C550.653 636.36 542.493 616.3 542.493 592.5C542.493 568.7 550.653 548.98 566.973 533.34C583.973 517.02 605.393 508.86 631.233 508.86C656.393 508.86 677.133 517.02 693.453 533.34C709.773 548.98 717.933 568.7 717.933 592.5C717.933 616.3 709.773 636.36 693.453 652.68C677.133 668.32 656.393 676.14 631.233 676.14Z" fill="#2563EB"/>
</g>
<defs>
<clipPath id="clip0_2511_21484">
<rect width="797" height="758" fill="white"/>
</clipPath>
</defs>
</svg>
