<svg width="403" height="375" viewBox="0 0 403 375" fill="none" xmlns="http://www.w3.org/2000/svg">
<path d="M0.636719 230.5C0.636719 202.5 6.13672 177.667 17.1367 156C28.4701 134.333 43.8034 117.667 63.1367 106C82.4701 94.3333 103.97 88.5 127.637 88.5C145.637 88.5 162.803 92.5 179.137 100.5C195.47 108.167 208.47 118.5 218.137 131.5V-4.76837e-06H289.137V370H218.137V329C209.47 342.667 197.303 353.667 181.637 362C165.97 370.333 147.803 374.5 127.137 374.5C103.803 374.5 82.4701 368.5 63.1367 356.5C43.8034 344.5 28.4701 327.667 17.1367 306C6.13672 284 0.636719 258.833 0.636719 230.5ZM218.637 231.5C218.637 214.5 215.303 200 208.637 188C201.97 175.667 192.97 166.333 181.637 160C170.303 153.333 158.137 150 145.137 150C132.137 150 120.137 153.167 109.137 159.5C98.1367 165.833 89.1367 175.167 82.1367 187.5C75.4701 199.5 72.1367 213.833 72.1367 230.5C72.1367 247.167 75.4701 261.833 82.1367 274.5C89.1367 286.833 98.1367 296.333 109.137 303C120.47 309.667 132.47 313 145.137 313C158.137 313 170.303 309.833 181.637 303.5C192.97 296.833 201.97 287.5 208.637 275.5C215.303 263.167 218.637 248.5 218.637 231.5Z" fill="white"/>
<path d="M351.604 374.2C336.404 374.2 323.804 369.6 313.804 360.4C304.204 350.8 299.404 339 299.404 325C299.404 311 304.204 299.4 313.804 290.2C323.804 280.6 336.404 275.8 351.604 275.8C366.404 275.8 378.604 280.6 388.204 290.2C397.804 299.4 402.604 311 402.604 325C402.604 339 397.804 350.8 388.204 360.4C378.604 369.6 366.404 374.2 351.604 374.2Z" fill="#2563EB"/>
</svg>
