<svg width="1140" height="1140" viewBox="0 0 1140 1140" fill="none" xmlns="http://www.w3.org/2000/svg">
<rect width="1140" height="1140" fill="white"/>
<path d="M644.609 100.44V999H794.369V100.44H644.609ZM209.153 734.04C209.153 792.408 221.057 842.328 244.865 883.8C268.673 925.272 300.161 956.76 339.329 978.264C378.497 999.768 419.969 1010.52 463.745 1010.52C508.289 1010.52 547.457 999.384 581.249 977.112C615.809 954.84 642.689 922.968 661.889 881.496C681.857 840.024 691.841 790.872 691.841 734.04C691.841 676.44 681.857 627.288 661.889 586.584C642.689 545.112 615.809 513.24 581.249 490.968C547.457 468.696 508.289 457.56 463.745 457.56C419.969 457.56 378.497 468.312 339.329 489.816C300.161 511.32 268.673 542.808 244.865 584.28C221.057 624.984 209.153 674.904 209.153 734.04ZM363.521 734.04C363.521 702.552 370.049 675.288 383.105 652.248C396.161 629.208 413.825 611.544 436.097 599.256C458.369 586.968 482.177 580.824 507.521 580.824C529.793 580.824 551.297 586.968 572.033 599.256C593.537 610.776 610.817 628.056 623.873 651.096C637.697 674.136 644.609 701.784 644.609 734.04C644.609 766.296 637.697 793.944 623.873 816.984C610.817 840.024 593.537 857.688 572.033 869.976C551.297 881.496 529.793 887.256 507.521 887.256C482.177 887.256 458.369 881.112 436.097 868.824C413.825 856.536 396.161 838.872 383.105 815.832C370.049 792.792 363.521 765.528 363.521 734.04Z" fill="#282828"/>
<path d="M749.801 926.784C749.801 952.896 759.185 975.744 777.953 995.328C797.537 1014.91 821.609 1024.7 850.169 1024.7C879.545 1024.7 903.617 1014.91 922.385 995.328C941.153 975.744 950.537 952.896 950.537 926.784C950.537 899.04 941.153 875.784 922.385 857.016C903.617 837.432 879.545 827.64 850.169 827.64C821.609 827.64 797.537 837.432 777.953 857.016C759.185 875.784 749.801 899.04 749.801 926.784Z" fill="#2563EB"/>
</svg>
