<svg width="15" height="8" viewBox="0 0 15 8" fill="none" xmlns="http://www.w3.org/2000/svg">
    <path d="M13.9588 0.179359L7.49934 6.55527L1.03984 0.179359C0.924426 0.0652126 0.769497 0.00130859 0.608168 0.00130859C0.446839 0.00130859 0.291911 0.0652126 0.176501 0.179359C0.12062 0.234801 0.076225 0.300975 0.0459179 0.374008C0.0156107 0.447041 0 0.525463 0 0.604682C0 0.6839 0.0156107 0.762322 0.0459179 0.835355C0.076225 0.908388 0.12062 0.974563 0.176501 1.03L7.04829 7.81423C7.16896 7.93334 7.33082 8 7.49934 8C7.66786 8 7.82971 7.93334 7.95039 7.81423L14.8222 1.03131C14.8785 0.97583 14.9232 0.909493 14.9537 0.836218C14.9843 0.762943 15 0.684216 15 0.604682C15 0.525148 14.9843 0.44642 14.9537 0.373145C14.9232 0.29987 14.8785 0.233533 14.8222 0.17805C14.7068 0.0639034 14.5518 0 14.3905 0C14.2292 0 14.0743 0.0639034 13.9588 0.17805V0.179359Z" fill="#545454"/>
</svg>
