<svg width="15" height="8" viewBox="0 0 15 8" fill="none" xmlns="http://www.w3.org/2000/svg">
    <path d="M1.14611 7.82064L7.10695 1.44473L13.0678 7.82064C13.1743 7.93479 13.3173 7.99869 13.4661 7.99869C13.615 7.99869 13.758 7.93479 13.8645 7.82064C13.916 7.7652 13.957 7.69902 13.985 7.62599C14.0129 7.55296 14.0273 7.47454 14.0273 7.39532C14.0273 7.3161 14.0129 7.23768 13.985 7.16464C13.957 7.09161 13.916 7.02544 13.8645 6.97L7.52318 0.18577C7.41182 0.0666614 7.26246 0 7.10695 0C6.95144 0 6.80208 0.0666614 6.69071 0.18577L0.349425 6.96869C0.297493 7.02417 0.256217 7.09051 0.228033 7.16378C0.199849 7.23706 0.185329 7.31578 0.185329 7.39532C0.185329 7.47485 0.199849 7.55358 0.228033 7.62686C0.256217 7.70013 0.297493 7.76647 0.349425 7.82195C0.455925 7.9361 0.598894 8 0.747768 8C0.896644 8 1.03961 7.9361 1.14611 7.82195V7.82064Z" fill="#545454"/>
</svg>
