<?xml version="1.0" encoding="UTF-8"?>
<svg id="_레이어_2" data-name="레이어 2" xmlns="http://www.w3.org/2000/svg" viewBox="0 0 255.71 245.93">
  <defs>
    <style>
      .cls-1 {
        fill: #ffd9e0;
      }

      .cls-2 {
        fill: #ffa4b8;
      }

      .cls-3 {
        fill: #ff8ca5;
      }

      .cls-4 {
        fill: #ffbfcb;
      }
    </style>
  </defs>
  <g id="_레이어_1-2" data-name="레이어 1">
    <g>
      <path class="cls-2" d="m55.46,158.15c3.33-2.77,6.65-5.54,10.31-8.59-10.91-1.07-21.7-1.33-31.97-4.83-.13-.47-.12-1.08-.42-1.4-4.86-5.19-6.99-11.57-8.33-18.39-1.72-8.73,2.54-15.56,11.1-17.79,2.5-.65,5.05-.51,7.61-.76-.34-1.7-1.58-1.93-2.43-2.59-6.54-5.08-8.97-13.38-5.22-19.07,6.51-9.88,15.73-15.16,27.66-15.77,5.94-.31,11.5,1.73,17.29,2.26,2.37,1.53,4.76,3.04,7.1,4.61,1.23.83,1.78.63,1.72-.89,1.38.56,2.72,1.22,4.14,1.66,8.56,2.65,16.66-1.74,15.36-11.01-.89-6.36-.56-12.68-.57-19.01-.02-6.95,1.67-13.69,5.33-19.55,3.26-5.22,7.04-10.3,13.52-12.14,1.79-2.41,2.38-5.42,4.12-7.91,4.27-6.09,9.53-8.1,16.56-5.58,13.22,4.76,20.28,14.43,22.74,28.13,2.91,16.21-1.13,31.5-5.28,47.32,4.23-2.71,8.14-5.38,12.21-7.78,9.16-5.42,18.76-9.74,29.29-11.89,14.49-2.96,28.9,2.64,36.72,14.51,3.32,5.04,2.8,11.3-1.2,15.88-1.88,2.16-3.6,4.46-5.32,6.59,7.12.11,14.77,1.33,18.19,10.06v9c-1.65,5.18-2.95,10.49-6.32,14.96-6.71,8.92-16.09,13.57-26.48,16.47-10.62,2.97-21.55,4.16-32.51,4.71-.03.31-.09.49-.04.54.36.33.74.65,1.13.95,10.75,8.24,20.6,17.33,27.73,29.03,8.86,14.54,8.49,29.86-1.09,42.24-3.31,4.28-8.94,5.96-13.94,3.94-2.95-1.19-5.77-2.69-9.09-4.26.45,2.27.83,4.07,1.17,5.87,1.65,8.59-2.25,14.67-10.65,16.88-1.39.37-3.01.21-4.14,1.38h-9.75c-1.15-1.23-2.81-.81-4.21-1.23-11.89-3.53-19.6-12.02-26.07-21.9-5.97-9.12-10.14-19.12-13.56-29.99-2.14,6.26-4.17,12.01-6.83,17.52-7.94,16.48-17.63,31.09-37.05,35.6h-10.5c-.73-1.05-1.98-1.09-3-1.31-11.18-2.4-12.17-10.39-10.89-17.98.24-1.44.63-2.86.96-4.35-1.85-.38-2.83,1.27-4.31,1.33-.06-3-1.56-5.71-1.54-8.76.07-10.94,4.54-20.16,10.76-28.78,2.53-3.51,6.19-6.26,7.77-10.38,3.83-9.98-6.43-18.54-15.14-17.44-.89.11-1.84,1.11-2.69-.11Zm78.77-62.99c.01-10.21.06-20.42.03-30.63-.01-4.38-2.19-6.69-6.18-6.77-4.21-.08-6.54,2.25-6.55,6.77-.03,10.21.01,20.42.03,30.63-5.16,1.05-9.78,3.17-14.17,6.15-4.11,2.79-6.59,6.93-9.85,10.43-5.79-.54-10.89-3.43-16.43-4.82-4.94-1.24-9.57-3.62-14.68-4.14-3.09-.31-6.47,2.13-6.9,5.02-.47,3.13.81,5.92,3.8,6.98,9.84,3.51,19.67,7.1,29.79,9.76-.85,10.67,2.33,20.07,8.92,28.39-5.23,8.63-11.86,16.26-17.49,24.6-2.03,3-1.69,7.35.95,9.42,2.88,2.26,7.35,1.6,9.63-1.46,3.49-4.69,7.19-9.24,10.32-14.15,2.32-3.64,5.91-6.46,7.06-10.85,10.25,4.95,20.51,4.71,30.77,0,.08,1.31.76,2.34,1.51,3.36,5.24,7.1,10.47,14.21,15.7,21.31,2.44,3.31,6.83,4.12,9.8,1.79,2.74-2.15,2.93-6.4.71-9.7-5.54-8.25-12.15-15.75-17.25-24.32,6.58-8.33,9.79-17.71,8.91-28.38,10.11-2.63,19.91-6.19,29.71-9.74,2.86-1.04,4.82-3.63,3.9-6.83-.89-3.08-2.86-5.47-6.73-5.27-5.47.28-10.13,3.19-15.29,4.46-5.38,1.32-10.33,4.18-15.98,4.57-1.05-.38-1.35-1.39-1.9-2.19-5.4-7.84-12.88-12.47-22.13-14.38Z"/>
      <path class="cls-4" d="m81.08,71.21c-5.79-.53-11.35-2.57-17.29-2.26-11.93.61-21.16,5.89-27.66,15.77-3.75,5.7-1.32,13.99,5.22,19.07.85.66,2.09.89,2.43,2.59-2.56.25-5.12.11-7.61.76-8.56,2.22-12.83,9.06-11.1,17.79,1.34,6.82,3.47,13.19,8.33,18.39.3.32.29.93.42,1.4C14.06,140.51-1.39,126.8.1,105.73c.32-4.52,3.15-7.47,6.96-9.51,3.45-1.85,7.33-2.12,11.15-2.68.04-1.3-1.1-1.53-1.8-2.16-9.43-8.59-9.3-15.41-2.07-23.43,9.32-10.33,21.2-13.33,34.59-10.77,11.38,2.18,21.67,7.13,31.47,13.16.3.18.46.57.69.86Z"/>
      <path class="cls-4" d="m127.68,14.9c-6.48,1.83-10.26,6.92-13.52,12.14-3.67,5.87-5.35,12.6-5.33,19.55.02,6.33-.31,12.65.57,19.01,1.3,9.27-6.8,13.66-15.36,11.01-1.41-.44-2.76-1.1-4.14-1.66-3.55-8.44-4.96-17.32-6.05-26.38-1.07-8.84-.48-17.37,2.3-25.72,3.77-11.32,11.63-18.61,22.94-22.21,5.44-1.73,10.8.18,14.07,4.91,1.99,2.88,3.71,5.9,4.52,9.36Z"/>
      <path class="cls-4" d="m55.46,158.15c.85,1.21,1.8.22,2.69.11,8.71-1.1,18.97,7.47,15.14,17.44-1.58,4.12-5.23,6.87-7.77,10.38-6.22,8.62-10.7,17.85-10.76,28.78-.02,3.05,1.48,5.76,1.54,8.76-7.97,5.94-15.73,3.58-20.24-3.27-9.41-14.29-7.3-28.33,1.35-42,4.87-7.71,10.59-14.77,18.06-20.2Z"/>
      <path class="cls-1" d="m97.54,111.73c3.26-3.49,5.74-7.63,9.85-10.43,4.38-2.98,9.01-5.1,14.16-6.15,4.22-.85,8.45-.85,12.67,0,9.25,1.91,16.73,6.54,22.13,14.38.55.8.86,1.82,1.9,2.19,1.66,4.21,3.32,8.41,4.4,12.82.87,10.67-2.33,20.05-8.91,28.38-3.27,2.82-6.59,5.59-10.47,7.56-10.26,4.71-20.51,4.94-30.77,0-3.89-1.97-7.1-4.87-10.47-7.56-6.59-8.33-9.78-17.72-8.92-28.39,1.47-4.27,2.95-8.54,4.43-12.8Z"/>
      <path class="cls-3" d="m102.04,152.93c3.37,2.69,6.58,5.59,10.47,7.56-1.15,4.39-4.74,7.21-7.06,10.85-3.14,4.91-6.84,9.46-10.32,14.15-2.28,3.06-6.75,3.72-9.63,1.46-2.64-2.07-2.98-6.42-.95-9.42,5.63-8.34,12.27-15.97,17.49-24.6Z"/>
      <path class="cls-3" d="m143.27,160.49c3.88-1.97,7.2-4.74,10.47-7.56,5.1,8.57,11.7,16.06,17.25,24.32,2.22,3.3,2.03,7.55-.71,9.7-2.97,2.33-7.36,1.52-9.8-1.79-5.23-7.11-10.46-14.21-15.7-21.31-.75-1.01-1.43-2.05-1.51-3.36Z"/>
      <path class="cls-3" d="m162.65,124.55c-1.09-4.4-2.74-8.61-4.4-12.82,5.65-.39,10.6-3.25,15.98-4.57,5.16-1.27,9.83-4.18,15.29-4.46,3.87-.2,5.85,2.19,6.73,5.27.92,3.21-1.03,5.8-3.9,6.83-9.8,3.55-19.61,7.11-29.71,9.74Z"/>
      <path class="cls-3" d="m97.54,111.73c-1.48,4.27-2.95,8.53-4.43,12.8-10.12-2.67-19.95-6.26-29.79-9.76-2.98-1.06-4.27-3.85-3.8-6.98.44-2.89,3.81-5.33,6.9-5.02,5.11.52,9.74,2.9,14.68,4.14,5.54,1.39,10.64,4.27,16.43,4.82Z"/>
      <path class="cls-3" d="m134.22,95.16c-4.22-.85-8.45-.85-12.67,0-.01-10.21-.06-20.42-.03-30.63.01-4.52,2.34-6.85,6.55-6.77,3.99.08,6.17,2.39,6.18,6.77.03,10.21-.02,20.42-.03,30.63Z"/>
    </g>
  </g>
</svg>