<svg width="50" height="49" viewBox="0 0 50 49" fill="none" xmlns="http://www.w3.org/2000/svg">
<path fill-rule="evenodd" clip-rule="evenodd" d="M17.1416 3.22068C18.659 1.70374 20.5868 0.663685 22.6879 0.228571C24.7889 -0.206544 26.9712 -0.0177176 28.9663 0.771798C30.9613 1.56131 32.6819 2.91705 33.9162 4.67206C35.1505 6.42708 35.8446 8.50475 35.913 10.6492C38.6403 9.86316 41.5661 10.1653 44.0751 11.4921C46.5842 12.8189 48.481 15.067 49.3666 17.7635C50.2414 20.4517 50.0376 23.3782 48.7982 25.919C47.5588 28.4598 45.3807 30.4196 42.7237 31.385C44.2995 33.7286 44.9001 36.5941 44.398 39.3732C43.8959 42.1524 42.3307 44.6266 40.0344 46.2707C37.7339 47.9321 34.8819 48.6434 32.0706 48.257C29.2593 47.8706 26.7049 46.4161 24.938 44.1957C23.8377 45.58 22.4208 46.6796 20.8067 47.4019C19.1926 48.1243 17.4286 48.4481 15.6632 48.3463C13.8977 48.2444 12.1827 47.7198 10.6624 46.8166C9.14208 45.9134 7.86108 44.6581 6.92729 43.1564C5.82868 41.3823 5.26462 39.3291 5.30263 37.2427C5.34063 35.1563 5.97909 33.1251 7.14158 31.3921C4.48996 30.4112 2.32127 28.4415 1.09053 25.8962C-0.140205 23.3508 -0.337345 20.4278 0.540474 17.7403C1.41829 15.0528 3.30285 12.8097 5.79874 11.4816C8.29464 10.1535 11.2079 9.84369 13.9273 10.6171C14.0246 7.83486 15.1732 5.193 17.1416 3.22425V3.22068ZM32.7951 25.1778C32.7951 29.4992 29.2702 32.9992 24.9201 32.9992C22.8388 33.0059 20.84 32.1857 19.3633 30.719C17.8865 29.2523 17.0527 27.2592 17.0452 25.1778C17.0452 20.8564 20.5701 17.3564 24.9201 17.3564C29.2702 17.3564 32.7951 20.8564 32.7951 25.1778Z" fill="#F97CA9"/>
</svg>
