<svg width="230" height="230" viewBox="0 0 230 230" fill="none" xmlns="http://www.w3.org/2000/svg">
<path d="M186.875 143.75H143.75V129.375H186.875V143.75ZM215.625 201.25H172.5V186.875H215.625V201.25ZM201.25 172.5H158.125V158.125H201.25V172.5Z" fill="#E0E7FF"/>
<path d="M122.209 143.75C122.158 137.685 120.541 131.737 117.513 126.481C114.486 121.226 110.151 116.843 104.93 113.757L158.125 21.5625L145.691 14.375L91.231 108.718C84.5473 107.225 77.596 107.432 71.0127 109.319C64.4295 111.206 58.4245 114.714 53.5469 119.521C26.6369 145.475 28.7213 206.152 28.8219 208.725C28.8962 210.581 29.6862 212.336 31.0261 213.622C32.3661 214.909 34.152 215.626 36.0094 215.625H143.757C145.266 215.625 146.736 215.15 147.96 214.268C149.184 213.386 150.099 212.141 150.576 210.71C151.053 209.279 151.068 207.734 150.618 206.294C150.168 204.855 149.277 203.593 148.07 202.688C122.626 183.598 122.209 144.138 122.209 143.75ZM85.747 122.166C91.4996 122.229 97.0064 124.508 101.122 128.528C105.237 132.548 107.644 138 107.841 143.75C107.841 144.023 107.856 145.245 107.964 147.121L65.5573 128.261C68.3506 125.958 71.574 124.232 75.0401 123.186C78.5061 122.14 82.1457 121.793 85.747 122.166ZM111.047 201.25C105.302 195.4 101.64 187.824 100.625 179.688H86.2501C86.7648 187.337 89.1543 194.742 93.2076 201.25H77.2298C74.2739 191.922 72.4755 182.266 71.8751 172.5H57.5001C57.9636 182.237 59.5678 191.887 62.2798 201.25H43.1251C43.3479 188.054 45.2094 158.901 56.0841 139.775L110.228 163.853C112.829 177.361 118.375 190.129 126.471 201.25H111.047Z" fill="#E0E7FF"/>
</svg>
