<svg width="10" height="15" viewBox="0 0 10 15" fill="none" xmlns="http://www.w3.org/2000/svg">
<path d="M1.04586 13.6274C2.43935 15.4575 4.70858 15.4575 6.10059 13.6274L9.96152 8.56033C9.98667 8.5273 9.99999 8.48261 9.99999 8.43598C9.99999 8.38935 9.98667 8.34467 9.96152 8.31164L9.41567 7.59472C9.39072 7.56209 9.35694 7.54377 9.32173 7.54377C9.28652 7.54377 9.25275 7.56209 9.2278 7.59472L5.36686 12.6617C4.88757 13.2912 4.25 13.6371 3.57248 13.6371C2.89497 13.6371 2.2574 13.2912 1.77959 12.6617C1.3003 12.0323 1.03698 11.1949 1.03698 10.307C1.03698 9.41714 1.3003 8.5817 1.77959 7.95221L5.71449 2.78609L6.35206 1.94871C6.94822 1.16573 7.91715 1.16573 8.5133 1.94871C8.80176 2.32757 8.96005 2.83078 8.96005 3.36701C8.96005 3.90324 8.80176 4.40645 8.5133 4.78531L4.60946 9.91063C4.51035 10.0389 4.38017 10.1107 4.24112 10.1107H4.23964C4.10059 10.1107 3.97189 10.0389 3.87426 9.91063C3.77515 9.78046 3.72189 9.60948 3.72189 9.42685C3.72189 9.24616 3.77663 9.07519 3.87426 8.94696L7.06508 4.76005C7.09023 4.72703 7.10354 4.68234 7.10354 4.63571C7.10354 4.58908 7.09023 4.5444 7.06508 4.51137L6.51922 3.79444C6.49427 3.76182 6.4605 3.7435 6.42529 3.7435C6.39008 3.7435 6.3563 3.76182 6.33135 3.79444L3.14201 7.98329C2.84763 8.36992 2.68639 8.88284 2.68639 9.42879C2.68639 9.97474 2.84911 10.4896 3.14201 10.8743C3.75 11.6728 4.73816 11.6709 5.34615 10.8743L5.72485 10.375L9.24851 5.74898C9.48766 5.43672 9.67724 5.06521 9.80624 4.65598C9.93523 4.24676 10.0011 3.80797 9.99999 3.36507C9.99999 2.46551 9.73224 1.62036 9.24851 0.98504C8.74703 0.328347 8.09023 3.3831e-07 7.43342 3.3831e-07C6.77662 3.3831e-07 6.11982 0.328347 5.61982 0.98504L1.04586 6.98854C0.372785 7.87449 4.58398e-06 9.05382 4.58398e-06 10.307C-0.0014747 11.5621 0.371306 12.7414 1.04586 13.6274Z" fill="#666666"/>
</svg>
