<svg width="24" height="25" viewBox="0 0 24 25" fill="none" xmlns="http://www.w3.org/2000/svg">
<path d="M13.4954 2.31055C12.8511 2.31055 12.3282 2.83309 12.3282 3.47773V15.8055L8.82663 12.3413L7.18557 13.9824L12.6562 19.4903C13.1125 19.9455 13.8782 19.9455 14.3346 19.4903L19.8052 13.9824L18.1641 12.3413L14.6625 15.8055V3.47773C14.6625 2.83309 14.1396 2.31043 13.4954 2.31055ZM4.1579 16.3167C3.51362 16.3167 2.99072 16.8396 2.99072 17.4839V19.8183C2.99072 22.3966 5.08115 24.487 7.65945 24.487H19.3313C21.9096 24.487 24 22.3966 24 19.8183V17.4839C24 16.8396 23.4771 16.3167 22.8328 16.3167C22.1885 16.3167 21.6656 16.8396 21.6656 17.4839V19.8183C21.6656 21.108 20.621 22.1526 19.3313 22.1526H7.65945C6.36971 22.1526 5.32509 21.108 5.32509 19.8183V17.4839C5.32509 16.8396 4.80219 16.3167 4.1579 16.3167Z" fill="#4B5563"/>
</svg>
