<svg width="25" height="25" viewBox="0 0 25 25" fill="none" xmlns="http://www.w3.org/2000/svg">
<path d="M12.4996 7.69992C13.3833 7.69992 14.0996 6.98359 14.0996 6.09996C14.0996 5.21633 13.3833 4.5 12.4996 4.5C11.616 4.5 10.8997 5.21633 10.8997 6.09996C10.8997 6.98359 11.616 7.69992 12.4996 7.69992Z" fill="#6B7280" stroke="#6B7280" stroke-width="0.1"/>
<path d="M12.4996 14.1003C13.3833 14.1003 14.0996 13.384 14.0996 12.5004C14.0996 11.6167 13.3833 10.9004 12.4996 10.9004C11.616 10.9004 10.8997 11.6167 10.8997 12.5004C10.8997 13.384 11.616 14.1003 12.4996 14.1003Z" fill="#6B7280" stroke="#6B7280" stroke-width="0.1"/>
<path d="M12.4996 20.4987C13.3833 20.4987 14.0996 19.7824 14.0996 18.8988C14.0996 18.0152 13.3833 17.2988 12.4996 17.2988C11.616 17.2988 10.8997 18.0152 10.8997 18.8988C10.8997 19.7824 11.616 20.4987 12.4996 20.4987Z" fill="#6B7280" stroke="#6B7280" stroke-width="0.1"/>
</svg>
