<svg width="50" height="50" viewBox="0 0 50 50" fill="none" xmlns="http://www.w3.org/2000/svg">
<path fill-rule="evenodd" clip-rule="evenodd" d="M17.2217 3.97165C18.739 2.45472 20.6669 1.41466 22.7679 0.979547C24.8689 0.544433 27.0513 0.733259 29.0464 1.52277C31.0414 2.31229 32.762 3.66802 33.9963 5.42304C35.2306 7.17806 35.9247 9.25573 35.9931 11.4002C38.7203 10.6141 41.6461 10.9163 44.1552 12.2431C46.6643 13.5699 48.5611 15.8179 49.4467 18.5145C50.3215 21.2027 50.1177 24.1292 48.8783 26.67C47.6389 29.2107 45.4608 31.1706 42.8038 32.1359C44.3796 34.4796 44.9802 37.345 44.4781 40.1242C43.976 42.9034 42.4108 45.3775 40.1145 47.0217C37.814 48.683 34.9619 49.3944 32.1507 49.008C29.3394 48.6216 26.785 47.1671 25.0181 44.9467C23.9178 46.331 22.5009 47.4306 20.8868 48.1529C19.2727 48.8752 17.5086 49.1991 15.7432 49.0972C13.9778 48.9954 12.2627 48.4707 10.7424 47.5676C9.22215 46.6644 7.94116 45.4091 7.00737 43.9074C5.90876 42.1332 5.3447 40.0801 5.3827 37.9937C5.42071 35.9073 6.05917 33.876 7.22166 32.1431C4.57003 31.1622 2.40135 29.1924 1.17061 26.6471C-0.0601268 24.1018 -0.257267 21.1788 0.620552 18.4913C1.49837 15.8038 3.38292 13.5606 5.87882 12.2326C8.37472 10.9045 11.288 10.5947 14.0074 11.3681C14.1047 8.58584 15.2533 5.94398 17.2217 3.97523V3.97165ZM32.8752 25.9288C32.8752 30.2502 29.3502 33.7502 25.0002 33.7502C22.9189 33.7569 20.9201 32.9367 19.4434 31.47C17.9666 30.0033 17.1328 28.0101 17.1252 25.9288C17.1252 21.6074 20.6502 18.1074 25.0002 18.1074C29.3502 18.1074 32.8752 21.6074 32.8752 25.9288Z" fill="#9CA3AF"/>
</svg>
