<svg width="32" height="25" viewBox="0 0 32 25" fill="none" xmlns="http://www.w3.org/2000/svg">
<path d="M1 24.1805V22.8169C1 17.5451 5.27363 13.2715 10.5454 13.2715C15.8172 13.2715 20.0908 17.5451 20.0908 22.8169V24.1805" stroke="black" strokeWidth="1.1262" strokeLinecap="round"/>
<path d="M17.3643 15.9998C17.3643 12.2343 20.4169 9.18164 24.1824 9.18164C27.9479 9.18164 31.0006 12.2343 31.0006 15.9998V16.6816" stroke="black" strokeWidth="1.1262" strokeLinecap="round"/>
<path d="M10.5444 13.2733C13.5568 13.2733 15.9989 10.8312 15.9989 7.81878C15.9989 4.80633 13.5568 2.36426 10.5444 2.36426C7.53191 2.36426 5.08984 4.80633 5.08984 7.81878C5.08984 10.8312 7.53191 13.2733 10.5444 13.2733Z" stroke="black" strokeWidth="1.1262" strokeLinecap="round" strokeLinejoin="round"/>
<path d="M24.1817 9.18178C26.4411 9.18178 28.2726 7.35022 28.2726 5.09089C28.2726 2.83156 26.4411 1 24.1817 1C21.9223 1 20.0908 2.83156 20.0908 5.09089C20.0908 7.35022 21.9223 9.18178 24.1817 9.18178Z" stroke="black" strokeWidth="1.1262" strokeLinecap="round" strokeLinejoin="round"/>
</svg>
