<svg width="19" height="12" viewBox="0 0 19 12" fill="none" xmlns="http://www.w3.org/2000/svg">
<path d="M1.78304 0.958984C1.30983 0.958984 0.925781 1.34303 0.925781 1.81624C0.925781 2.28944 1.30983 2.67349 1.78304 2.67349H17.2136C17.6868 2.67349 18.0709 2.28944 18.0709 1.81624C18.0709 1.34303 17.6868 0.958984 17.2136 0.958984H1.78304ZM1.78304 5.24526C1.30983 5.24526 0.925781 5.62931 0.925781 6.10251C0.925781 6.57572 1.30983 6.95977 1.78304 6.95977H17.2136C17.6868 6.95977 18.0709 6.57572 18.0709 6.10251C18.0709 5.62931 17.6868 5.24526 17.2136 5.24526H1.78304ZM1.78304 9.53153C1.30983 9.53153 0.925781 9.91558 0.925781 10.3888C0.925781 10.862 1.30983 11.246 1.78304 11.246H17.2136C17.6868 11.246 18.0709 10.862 18.0709 10.3888C18.0709 9.91558 17.6868 9.53153 17.2136 9.53153H1.78304Z" fill="#9CA3AF"/>
</svg>
