<svg width="49" height="49" viewBox="0 0 49 49" fill="none" xmlns="http://www.w3.org/2000/svg">
<mask id="mask0_451_19" style="mask-type:alpha" maskUnits="userSpaceOnUse" x="6" y="6" width="37" height="37">
<path d="M6.125 14.125C6.125 10.3538 6.125 8.46815 7.29657 7.29657C8.46815 6.125 10.3538 6.125 14.125 6.125H34.875C38.6462 6.125 40.5319 6.125 41.7034 7.29657C42.875 8.46815 42.875 10.3538 42.875 14.125V34.875C42.875 38.6462 42.875 40.5319 41.7034 41.7034C40.5319 42.875 38.6462 42.875 34.875 42.875H14.125C10.3538 42.875 8.46815 42.875 7.29657 41.7034C6.125 40.5319 6.125 38.6462 6.125 34.875V14.125Z" fill="black"/>
</mask>
<g mask="url(#mask0_451_19)">
<path d="M26.6199 30.5069L8.79905 10.904L8.79897 10.9039C8.76247 10.8638 8.7442 10.8437 8.72617 10.8248C8.36145 10.4441 7.86113 10.2228 7.33406 10.209C7.30798 10.2083 7.28081 10.2083 7.22647 10.2083C6.94886 10.2083 6.81006 10.2083 6.69944 10.2022C4.35731 10.0724 2.6291 7.96428 2.96111 5.64218C2.97679 5.53251 3.00401 5.3964 3.05846 5.12418L3.87318 1.05057C4.43482 -1.75761 4.71563 -3.1617 5.66936 -4.04258C5.78499 -4.14938 5.90683 -4.24927 6.03424 -4.34172C7.08506 -5.10416 8.51696 -5.10416 11.3808 -5.10416H37.7297C41.5903 -5.10416 43.5205 -5.10416 44.698 -3.89611C45.8755 -2.68805 45.826 -0.7584 45.7271 3.1009L44.9166 34.7083L36.5465 27.7332C34.7578 26.2426 33.8635 25.4974 32.9167 25.6954C31.9699 25.8935 31.4493 26.9347 30.408 29.0172L29.8886 30.056C29.2964 31.2405 29.0003 31.8327 28.4782 31.9047C27.9561 31.9768 27.5107 31.4868 26.6199 30.5069Z" fill="#9CA3AF" fill-opacity="0.25" stroke="#9CA3AF" stroke-width="1.2" stroke-linecap="round"/>
</g>
<path d="M6.125 26.5417V14.125C6.125 10.3538 6.125 8.46815 7.29657 7.29657C8.46815 6.125 10.3538 6.125 14.125 6.125H34.875C38.6462 6.125 40.5319 6.125 41.7034 7.29657C42.875 8.46815 42.875 10.3538 42.875 14.125V34.875C42.875 38.6462 42.875 40.5319 41.7034 41.7034C40.5319 42.875 38.6462 42.875 34.875 42.875H24.5" stroke="#9CA3AF" stroke-width="1.2"/>
<circle cx="33.6875" cy="15.3125" r="3.0625" fill="#9CA3AF"/>
<path d="M16.3334 32.6667V32.0667H16.9334V32.6667H16.3334ZM6.49986 41.3019C6.2411 41.5089 5.86353 41.4669 5.65652 41.2082C5.44951 40.9494 5.49147 40.5718 5.75022 40.3648L6.49986 41.3019ZM15.7334 42.875V32.6667H16.9334V42.875H15.7334ZM16.3334 33.2667H6.12504V32.0667H16.3334V33.2667ZM16.7082 33.1352L6.49986 41.3019L5.75022 40.3648L15.9586 32.1981L16.7082 33.1352Z" fill="#9CA3AF"/>
</svg>
