<svg width="22" height="23" viewBox="0 0 22 23" fill="none" xmlns="http://www.w3.org/2000/svg">
<path d="M10.9987 1.94141C5.93613 1.94141 1.83203 6.04533 1.83203 11.1081C1.83203 16.1709 5.93613 20.2748 10.9987 20.2748C16.0613 20.2748 20.1654 16.1709 20.1654 11.1081C20.1654 6.04533 16.0613 1.94141 10.9987 1.94141ZM10.9987 3.77474C15.0488 3.77474 18.332 7.05825 18.332 11.1081C18.332 15.1579 15.0488 18.4414 10.9987 18.4414C6.94859 18.4414 3.66536 15.1579 3.66536 11.1081C3.66536 7.05825 6.94859 3.77474 10.9987 3.77474ZM10.9987 6.52475C10.4924 6.52475 10.082 6.93542 10.082 7.44142C10.082 7.94742 10.4924 8.35809 10.9987 8.35809C11.505 8.35809 11.9154 7.94742 11.9154 7.44142C11.9154 6.93542 11.505 6.52475 10.9987 6.52475ZM10.9987 9.27476C10.4924 9.27476 10.082 9.68543 10.082 10.1914V14.7748C10.082 15.2808 10.4924 15.6914 10.9987 15.6914C11.505 15.6914 11.9154 15.2808 11.9154 14.7748V10.1914C11.9154 9.68543 11.505 9.27476 10.9987 9.27476Z" fill="#9CA3AF"/>
</svg>
