<svg width="24" height="24" viewBox="0 0 24 24" fill="none" xmlns="http://www.w3.org/2000/svg">
<path d="M12.3889 5H7C5.89543 5 5 5.89543 5 7V17C5 18.1046 5.89543 19 7 19H17C18.1046 19 19 18.1046 19 17V11.6111" stroke="#6B7280" stroke-width="1.5" stroke-linecap="round"/>
<path d="M16.487 10.0999L11.6412 14.9108C11.4071 15.1432 11.1191 15.3141 10.803 15.4082L8.08281 16.2184C7.89563 16.2742 7.71968 16.1034 7.76983 15.9146L8.42619 13.444C8.51543 13.1081 8.69066 12.8013 8.93462 12.5537L13.9012 7.51402M16.487 10.0999L17.707 8.87985C18.4211 8.16579 18.4211 7.00807 17.707 6.29401V6.29401C16.993 5.57995 15.8353 5.57995 15.1212 6.29401L13.9012 7.51402M16.487 10.0999L13.9012 7.51402" stroke="#6B7280" stroke-width="1.5"/>
</svg>
