<svg width="24" height="23" viewBox="0 0 24 23" fill="none" xmlns="http://www.w3.org/2000/svg">
<path d="M20 11.4999C20 7.26573 16.5675 3.83325 12.3333 3.83325H12C7.58172 3.83325 4 7.41498 4 11.8333V16.3787C4 17.1119 4 17.4785 4.09497 17.7756C4.29195 18.3918 4.77482 18.8746 5.39103 19.0716C5.68811 19.1666 6.0547 19.1666 6.78788 19.1666H12.3333C16.5675 19.1666 20 15.7341 20 11.4999V11.4999Z" stroke="#9CA3AF" stroke-opacity="0.5" stroke-width="1.2"/>
<path d="M14.4648 7.92969V15H13.332L9.98242 10.166H9.92383V15H8.6543V7.92969H9.80664L13.1367 12.7637H13.2051V7.92969H14.4648Z" fill="#9CA3AF" fill-opacity="0.5"/>
</svg>
