<?xml version="1.0" encoding="UTF-8"?>
<svg id="_레이어_2" data-name="레이어 2" xmlns="http://www.w3.org/2000/svg" viewBox="0 0 338.02 199.1">
  <defs>
    <style>
      .cls-1 {
        fill: #01ca41;
      }

      .cls-2 {
        fill: #01c73d;
      }

      .cls-3 {
        fill: #f9fdf8;
      }

      .cls-4 {
        fill: #a4f9bd;
      }

      .cls-5 {
        fill: #fdfefd;
      }

      .cls-6 {
        fill: #01c338;
      }

      .cls-7 {
        fill: #fcfdfb;
      }

      .cls-8 {
        fill: #00cb40;
      }

      .cls-9 {
        fill: #fefdfd;
      }

      .cls-10 {
        fill: #5acb74;
      }

      .cls-11 {
        fill: #00c73c;
      }

      .cls-12 {
        fill: #03c840;
      }

      .cls-13 {
        fill: #0cbe3b;
      }

      .cls-14 {
        fill: #00c53a;
      }

      .cls-15 {
        fill: #00c338;
      }

      .cls-16 {
        fill: #01c43a;
      }

      .cls-17 {
        fill: #01c53b;
      }

      .cls-18 {
        fill: #fdfdfd;
      }

      .cls-19 {
        fill: #45bf6b;
      }

      .cls-20 {
        fill: #5ef487;
      }

      .cls-21 {
        fill: #00c035;
      }

      .cls-22 {
        fill: #fafefb;
      }

      .cls-23 {
        fill: #fbfefb;
      }

      .cls-24 {
        fill: #8cd593;
      }

      .cls-25 {
        fill: #d1eed5;
      }

      .cls-26 {
        fill: #fefefe;
      }
    </style>
  </defs>
  <g id="_레이어_1-2" data-name="레이어 1">
    <g>
      <path class="cls-11" d="m.05,185.86c0-.14,0-.29,0-.43,0-.19,0-.37,0-.56,0-.14,0-.29,0-.43,0-.19,0-.37,0-.56,0-.14,0-.29,0-.43,0-.19,0-.37,0-.56,0-.14,0-.29,0-.44,0-.19,0-.37,0-.56,0-.14,0-.29,0-.43,0-.19,0-.37,0-.56,0-.14,0-.29,0-.43,0-.19,0-.37,0-.56,0-.14,0-.29,0-.43,0-.19,0-.37,0-.56,0-.14,0-.29,0-.43,0-.19,0-.37,0-.56,0-.14,0-.29,0-.43,0-.19,0-.37,0-.56,0-.14,0-.29,0-.43,0-.19,0-.37,0-.56,0-.14,0-.29,0-.43,0-.19,0-.37,0-.56,0-.14,0-.29,0-.43,0-.19,0-.37,0-.56,0-.14,0-.29,0-.43,0-.19,0-.37,0-.56,0-.14,0-.29,0-.43,0-.19,0-.37,0-.56,0-.14,0-.29,0-.43,0-.19,0-.37,0-.56,0-.14,0-.29,0-.43,0-.19,0-.37,0-.56,0-.14,0-.29,0-.43,0-.19,0-.37,0-.56,0-.14,0-.29,0-.43,0-.19,0-.37,0-.56,0-.14,0-.29,0-.43,0-.19,0-.37,0-.56,0-.14,0-.29,0-.43,0-.19,0-.37,0-.56,0-.14,0-.29,0-.43,0-.19,0-.37,0-.56,0-.14,0-.29,0-.43,0-.19,0-.37,0-.56,0-.14,0-.29,0-.43,0-.19,0-.37,0-.56,0-.14,0-.29,0-.43,0-.19,0-.37,0-.56,0-.14,0-.29,0-.43,0-.19,0-.37,0-.56,0-.15,0-.29,0-.44.06-.26.13-.52.19-.78.15-.41.44-.83.44-1.24.03-5.31,0-10.61.04-15.92,0-.81.22-1.62.33-2.43.3-2.11.81-4.21.86-6.33.13-5.14.04-10.28.04-15.42,0-.44,0-.89,0-1.33.13.06.25.12.38.18.43-.47.87-.93,1.29-1.4.4-.45.77-1.29,1.16-1.3,1.09-.02,1.61-.73,2.28-1.32.26-.23.64-.33.94-.52.53-.31,1.05-.62,1.55-.98.52-.37.99-.81,1.52-1.17.4-.27.89-.39,1.29-.66.59-.41,1.12-.92,1.71-1.33.39-.27.89-.4,1.29-.67.59-.41,1.12-.92,1.71-1.32.4-.27.89-.4,1.29-.67.59-.41,1.12-.91,1.71-1.32.4-.27.89-.4,1.28-.67.59-.41,1.12-.91,1.71-1.32.4-.27.89-.4,1.28-.68.56-.4,1.03-.93,1.59-1.33.48-.34,1.08-.51,1.57-.85.47-.33.94-1.15,1.28-1.08,1.13.23,1.4-.67,1.99-1.16.37-.31.74-.64,1.15-.89.47-.29,1.03-.45,1.48-.76.54-.36.98-.87,1.51-1.23.46-.31,1.02-.46,1.48-.76.57-.36,1.07-.84,1.63-1.21.37-.24.84-.34,1.2-.6.62-.43,1.18-.96,1.8-1.39.36-.25.83-.35,1.2-.6.62-.43,1.18-.96,1.8-1.39.36-.25.83-.35,1.2-.6.62-.43,1.18-.96,1.8-1.39.36-.25.83-.35,1.2-.61.62-.43,1.18-.95,1.8-1.38.36-.25.85-.34,1.19-.61.53-.44.93-1.03,1.47-1.45.53-.41,1.16-.67,1.74-1.02,1.43-.86,2.85-1.73,4.29-2.57.23-.14.56-.18.84-.17,6.05.07,12.11.15,18.16.22.4,0,.85-.07,1.19-.26.26-.15.58-.57.53-.81-.06-.33-.4-.64-.7-.87-.28-.22-.65-.33-.99-.48.35-.18.69-.36,1.04-.54.23-.35.62-.69.67-1.07.3-2.36.6-4.72.76-7.09.09-1.35-.55-2.89,1.37-3.54.2-.07.26-.49.44-.71.22-.28.45-.67.75-.77,2.01-.64,2.77-2.96,5.01-3.47.87-.2,1.37-1.95,2.86-1.92.32,0,.66-.31.98-.47.03.41.08.82.1,1.23.01.21-.01.41-.02.62-.06,2.89-.12,5.78-.15,8.67,0,.26.24.51.26.57.7-.48,1.27-.87,1.84-1.26l.09,1.34c.08,1.11.58.36.94.2.33-.03.67-.05,1-.08.38.4.68.95,1.41.45.47-.32,1.04-.51,1.79-.87,0-.07-.03-.47-.09-.85-.19-1.13-.53-2.25-.56-3.38-.05-1.49.13-2.99.21-4.49,1.33-.02,2.65-.03,3.98-.05.25-.06.5-.13.75-.19,1-.28,1.99-.56,2.99-.85.09.54-.27,1.35.81,1.28.97-.07,2.32-1.11,2.59-2.03.2-.67.4-1.34.67-2.24-.2-.19-.61-.57-1.01-.94l.25-.5c.31-.28.83-.52.9-.85.11-.57-.1-1.16-.91-1.14,0-.33,0-.67.01-1-.08-.41-.16-.82-.24-1.23-.04-.22-.08-.44-.11-.66.32-.79.65-1.54-.3-2.2-.15-.1-.1-.87.11-1.05,1.07-.96,2.18-1.9,3.37-2.72.76-.53,1.77-.71,2.49-1.27.85-.68,1.6-1.31,2.64-1.82,1.17-.58,2.28-1.6,3.56-2.28.86-.45,1.1-1.87,2.47-1.63.11.02.28-.16.39-.28.71-.82,1.26-1.83,2.61-1.72.16.01.34-.33.53-.48,1.46-1.14,2.93-2.27,4.39-3.4.03-.02.08-.06.11-.05,1.19.39,1.47-.78,2.17-1.24.64-.41,1.5-.53,2.06-1.02.83-.73,1.32-1.87,2.71-1.79.19.01.42-.36.6-.58,1.15-1.48,3.36-1.58,4.33-3.3.02-.03.08-.06.11-.05,1.14.4,1.47-.63,2.07-1.17.28-.25.58-.76.81-.73,1.42.21,1.77-1.13,2.64-1.68.51-.32,1.28-.28,1.7-.67.82-.75,1.35-1.86,2.72-1.77.14,0,.31-.25.45-.39.7-.69,1.16-1.73,2.43-1.55.16.02.38-.27.56-.44.7-.69,1.16-1.73,2.44-1.55.16.02.38-.27.56-.44.7-.69,1.16-1.73,2.44-1.55.16.02.38-.27.56-.44.7-.69,1.16-1.71,2.44-1.56.21.02.47-.41.7-.63.49-.48.94-1,1.48-1.42.47-.36,1.04-.57,1.54-.88,1.35-.85,2.66-1.77,4.04-2.58.39-.23.96-.25,1.44-.24.78.01,1.56.18,2.34.19,7.31.02,14.62.02,21.93,0,3.47,0,6.9-.2,10.08-1.81.44-.22.89-.42,1.34-.63.37-.01.75-.04,1.12-.04C247.96,0,284.7,0,321.43,0c.37,0,.75.03,1.12.04-.42.15-.83.43-1.25.44-4.19.03-8.39.04-12.58.01-2.09-.02-4.16-.11-5.9,1.36-.11.1-.32.08-.47.14-1.43.66-2.96,1.18-4.28,2.02-1.64,1.04-3.12,2.34-4.68,3.53-.1.07-.23.09-.33.16-1.44.84-2.93,1.62-4.31,2.56-1.5,1.02-2.9,2.18-4.35,3.27-.06.05-.15.08-.22.12-1.48.86-3,1.64-4.42,2.59-1.5,1.01-2.9,2.18-4.35,3.27-.06.05-.15.07-.22.11-1.51.89-3.06,1.71-4.51,2.69-1.47.99-2.85,2.12-4.26,3.18-.06.05-.15.07-.22.11-1.51.89-3.05,1.72-4.5,2.69-1.47.99-2.85,2.12-4.27,3.18-.06.05-.15.06-.22.1-1.53.92-3.1,1.79-4.59,2.79-1.44.96-2.79,2.06-4.18,3.09-.06.05-.16.05-.23.1-1.47.87-3.01,1.64-4.4,2.63-1.8,1.29-3.48,2.76-5.22,4.15-.1.08-.22.12-.32.18-1.5.89-3.05,1.72-4.5,2.69-1.47.99-2.85,2.12-4.27,3.18-.06.05-.15.06-.22.1-1.53.92-3.1,1.79-4.59,2.79-1.44.96-2.79,2.06-4.18,3.09-.06.05-.16.05-.23.1-1.53.93-3.1,1.8-4.58,2.8-1.44.97-2.79,2.06-4.18,3.09-.06.05-.16.05-.23.09-1.44.84-2.93,1.62-4.31,2.55-1.5,1.02-2.9,2.18-4.35,3.27-.1.07-.23.09-.33.15-1.44.84-2.92,1.62-4.3,2.56-1.5,1.02-2.9,2.18-4.35,3.27-.06.05-.15.08-.22.12-1.48.86-3,1.65-4.42,2.6-1.5,1.01-2.91,2.17-4.35,3.27-.06.05-.15.07-.22.11-1.51.89-3.05,1.72-4.5,2.69-1.47.99-2.85,2.12-4.27,3.18-.06.05-.15.07-.22.11-1.45.83-2.94,1.59-4.32,2.52-1.5,1.01-2.9,2.18-4.34,3.28-.03.03-.07.05-.1.07-1.43.79-2.96,1.43-4.26,2.39-1.85,1.38-3.52,2.99-5.27,4.5-1.94-1.85-3.97-3.55-6.56-4.48-1.87-.67-3.76-1.11-5.75-1.03-1.26.05-2.53.14-3.79.21-.59-.54-1.09-.46-1.74.29h0c-.25.07-.5.14-.75.21-.39.21-.77.47-1.18.61-2.73.93-4.73,2.87-6.39,5.04-3.32,4.34-4.18,9.51-4.39,14.82-.07,1.73-.04,3.47-.05,5.2-.32.05-.71,0-.96.15-1.43.89-3.21,1.17-4.36,2.56-.19.23-.54.34-.81.51-1.39.9-2.96,1.63-4.13,2.76-1.44,1.38-2.49,1.61-4.1.24.08-.91.15-1.82.23-2.73.07-.89.22-1.79.21-2.68-.03-1.93-.14-3.86-.21-5.79-.09-.64-.25-1.28-.27-1.93-.11-3.63-.91-7.1-2.54-10.33-2.04-4.06-5.15-6.99-9.64-8.22-2.69-.74-5.4-1.03-8.22-.7-4.58.53-8.1,2.71-10.75,6.35-1.98,2.71-3.25,5.74-3.58,9.12-.05.13-.09.26-.14.39-.18,1.32-.48,2.63-.52,3.96-.08,3.1-.06,6.21-.01,9.31.03,1.8.03,3.63.33,5.4.67,3.94,2.22,7.56,4.53,10.82.6.85,1.33,1.7,2.19,2.26,1.39.91,2.94,1.59,4.42,2.37-1.16,1.08-2.17,2.47-3.53,3.15-.94.46-1.71.97-2.41,1.68-.17.17-.41.43-.59.41-1.16-.11-1.6.84-2.29,1.44-.22.19-.44.54-.65.53-1.22-.03-1.75.9-2.46,1.61-.17.17-.41.42-.59.41-1.16-.11-1.6.85-2.29,1.44-.22.19-.45.54-.65.53-1.2-.08-1.67.89-2.38,1.52-.21.19-.47.52-.67.49-1.13-.14-1.52.84-2.21,1.36-.26.19-.5.63-.73.62-1.2-.07-1.67.9-2.38,1.53-.21.19-.47.51-.68.49-1.12-.13-1.52.84-2.21,1.36-.26.2-.5.63-.73.61-1.2-.07-1.66.9-2.38,1.53-.21.19-.47.5-.68.48-1.12-.12-1.51.85-2.2,1.37-.26.2-.5.62-.73.61-1.21-.08-1.66.91-2.37,1.53-.21.19-.47.49-.68.47-1.12-.11-1.51.85-2.2,1.37-.26.2-.51.62-.74.6-1.16-.09-1.6.85-2.29,1.44-.25.21-.49.53-.77.57-1.77.23-2.46,2.29-4.25,2.48-.06,0-.1.12-.16.18-.8.77-1.49,1.9-2.43,2.2-1.03.33-1.67.91-2.37,1.56-.21.19-.45.54-.65.53-1.2-.08-1.67.89-2.38,1.52-.21.19-.47.51-.67.49-1.12-.13-1.52.84-2.21,1.36-.26.2-.5.63-.73.62-1.2-.07-1.67.9-2.38,1.53-.21.19-.47.51-.68.48-1.12-.12-1.52.85-2.2,1.36-.26.2-.5.63-.73.61-1.21-.08-1.66.9-2.37,1.53-.21.19-.47.5-.68.48-1.12-.11-1.51.85-2.2,1.37-.26.2-.5.62-.74.61-1.21-.08-1.65.93-2.38,1.53-.3.24-.71.35-1.05.54-.4.22-.82.43-1.17.72-.46.38-.83.88-1.3,1.24-.55.43-1.29.67-1.72,1.18-.48.56-.81.97-1.62.64-.5-.2-1.02-.08-.97.68-3.71-1.07-7.65-4.9-7.53-9.9-.02-.19-.04-.38-.05-.57-.01-.15-.02-.29-.04-.44,0-.19,0-.37,0-.56,0-.14,0-.29,0-.43,0-.19,0-.37,0-.56ZM143.8,53.26h0c.08-.25.16-.5.25-.75h0c.08-.25.16-.5.25-.75h0c.02-.25.04-.5.06-.74-.27-.17-.52-.46-.8-.49-.81-.07-1.62-.02-2.3-.02-.49.93-1.02,1.75-1.37,2.65-.24.62-.09,1.41-.36,2-.38.83-.57,1.66-.74,2.54-.09.45-.46.85-.82,1.48.22.84-.76,4.06-1.7,4.77-.25-.9-.49-1.75-.72-2.61-.14-.29-.28-.58-.42-.87-.86-2.78-1.7-5.56-2.6-8.33-.19-.59-.62-1.1-.94-1.65-.49,0-.99-.02-1.48-.03-.34,0-.67.01-1.01.02-.2-.4-.4-.79-.6-1.19-.46.27-.92.55-1.37.83-.28.17-.67.58-.82.5-.93-.48-1.77-1.13-2.71-1.59-1.11-.54-2.13-1.43-3.55-1.03-.37.1-.81-.09-1.22-.12-.46-.02-.91,0-1.37,0-.03.13-.07.27-.1.4.4.16.79.4,1.2.47.89.14,1.8.17,2.7.27,1.25.14,2.16,1.18,1.79,2.02l-.69-.31c-.18-.07-.35-.14-.53-.21-.66-.11-1.31-.22-1.97-.32h-.23c-.26-.01-.52-.01-.77-.01-.16,0-.32.01-.47.02-.51.08-1.01.16-1.52.25-.27-.58-.39-1.26-1.29-1.27-.23,0-.43-.45-.68-.66-.22-.18-.48-.3-.72-.44-.04.32-.24.75-.1.93.45.62,1.02,1.15,1.54,1.72-.72.35-1.45.7-2.17,1.05-.22-.37-.43-.73-.54-.91-.65.13-1.27.24-2.02.39,0,.39-.07.9.02,1.36.08.38.29.96.57,1.04.52.15,1.28.38,1.48-.57.06.13.12.26.18.39,0,.28-.01.56,0,.83.03.93.38,1.05,1.04.4.24-.08.47-.15.71-.23.25-.15.5-.3.75-.46,1.98-1.04,3.98-1.3,6.02-.14-.08.39-.05.88-.28,1.14-.56.62-.63,1.15-.12,1.82.15.19.08.54.11.82-1,0-1.99,0-2.99,0,.58-1.63.48-1.83-1.09-2.12-.05.71-.11,1.42-.16,2.12-1.53-.04-2.8.61-3.95,1.55-.09.09-.18.18-.27.28,0,0,.02-.01.02-.01-.5.06-1,.12-1.5.18-.01.13-.02.26-.04.4.27.22.54.44.82.66-.12.57-.24,1.14-.36,1.72-.23.12-.45.24-.68.36.23.29.45.59.68.88.02.33.03.66.05.99.08.25.17.5.25.75h0c.07.08.14.17.21.25,1.07,2.09,2.93,2.87,5.13,2.98,1.86.09,3.55-.42,4.91-1.81.7,1.73,2.25,2.16,3.49,1.06.03-.02.08-.05.08-.06,0-.06-.04-.12-.06-.17,0-.17,0-.34-.01-.52,0-.82,0-1.65,0-2.47,0-.25,0-.51,0-.76.03-.02.08-.05.08-.07-.02-.06-.05-.11-.08-.17v-.76c0-1.41,0-2.81,0-4.22,0-.25,0-.51,0-.76,1.15-1.38.84-3.05,1.2-4.68-.76.09-1.25.15-1.73.21-.2-.32-.39-.65-.59-.97.96.06,1.97-1.11,2.76.09.47-.32.87-.59,1.26-.86.85,2.44,1.71,4.89,2.55,7.33.59,1.72,1.18,3.44,1.74,5.17.12.37.01.87.23,1.14.9,1.12,1.41,2.33,1.22,3.78-.04.11-.07.22-.11.33h0c-1.14-.06-.86.57-.59,1.19-.36.97-.69,1.95-1.1,2.9-.67,1.59.76,1.47,1.5,1.81.68.31,1.28.12,1.58-.69.6-1.62,1.25-3.22,1.88-4.83.11-.33.23-.66.34-.99,0,0,0,.01,0,.01.08-.13.16-.25.24-.38.25-.79.5-1.57.75-2.36.09-.25.18-.5.28-.75.17-.41.35-.82.52-1.23,0-.16.02-.33.03-.49.32-.75.64-1.5.96-2.25.07-.26.15-.51.22-.77,0,0-.01.01-.01.01.02-.16.05-.32.07-.48.14-.34.28-.67.43-1.01.16-.35.32-.69.48-1.04l-.02.02c.04-.24.07-.48.11-.71.24-.5.47-1,.71-1.5.07-.2.14-.41.21-.61.08-.3.17-.59.25-.89.09-.25.18-.5.27-.76.04-.08.09-.17.13-.25.04-.08.08-.15.12-.23Zm-87.77,50.77c.05.17.11.34.16.51,0,.24,0,.47-.01.71,0,.1.01.2.02.29,0,.15,0,.31.01.46-.05.32-.15.64-.15.96-.02,11.79-.03,23.58-.02,35.37,0,.33.19.67.3,1,2.97,0,5.95,0,8.92.03.85,0,1.01-.42.97-1.14-.03-.61,0-1.23.02-1.84.01-.12.04-.25.04-.37,0-14.26-.01-28.51-.03-42.77,0-.41-.09-.81-.14-1.22,0-.14,0-.27,0-.41.05-.1.11-.2.16-.3.82-.29.9-.91.55-1.56-.15-.28-.59-.42-.89-.62-.25.41-.51.82-.89,1.43.01,0-.25.1-.51.2-4.01.02-8.03.07-12.04.02-1.02-.01-1.57.35-2.05,1.22-.59,1.07-1.38,2.04-2.08,3.05h-2.18c.36.81.61,1.39.87,1.97-.24.34-.48.67-.72,1.01-.33.15-.87.23-.95.47-.39,1.14.71,1.32,1.48,1.8-.58.25-1.01.44-1.72.75.58.22.89.35,1.22.45,1.43.46,2.8.1,4.22-.18,1.17-.23,1.81-.79,2.23-1.8,0,0-.02-.08-.02-.08.1,0,.19,0,.29,0,.57-.02,1.14-.05,1.71-.07.11,0,.21-.01.32-.02.12,0,.25,0,.37.01.18.22.37.44.55.67Zm8.14-10.84c.04-.23.08-.45.11-.68-.59-.23-1.18-.62-1.78-.65-1.82-.09-3.66-.1-5.48,0-1.3.07-2.6.33-3.88.59-.31.06-.54.47-.81.73.35.13.69.29,1.05.39.15.04.33-.04.49-.05,2.56-.05,5.13-.08,7.69-.14.87-.02,1.74-.12,2.6-.18Zm68.24-43.88c.09-.08.18-.16.28-.25-.63-.43-1.24-.9-1.9-1.29-.32-.19-.71-.33-1.07-.31-.12,0-.4.67-.29.81.23.32.62.62,1,.73.64.18,1.32.21,1.98.31Zm-38.71,21.02c.41.26.67.54.81.49.25-.09.42-.39.62-.6-.19-.17-.4-.49-.58-.47-.24.02-.46.29-.86.58Zm11.49-9.57c.06-.15.13-.3.19-.45-.31-.18-.63-.35-.94-.53l-.24.61c.33.12.66.24.99.36Zm-56.15,34.65c-.19,0-.37,0-.56,0v1.03c.19-.02.53-.01.54-.05.05-.32.02-.65.02-.98Zm-5.17,7.31l.43-.13c-.06-.24-.12-.49-.21-.71-.01-.02-.27.06-.42.09.07.25.13.5.2.75Zm1.95-2.56c-.47-.31-.64-.49-.82-.51-.18-.03-.38.11-.56.17.09.12.17.23.26.35h1.13Zm3.99-7.56c.03.27.06.53.09.78l.36-.37c-.15-.14-.3-.28-.45-.41Zm63.27-43.28c-.11-.11-.18-.22-.26-.23-.1-.02-.2.06-.31.09.07.1.13.24.23.29.05.03.18-.08.33-.15Zm-.03,6.78c-.03.07-.06.14-.09.21.07.03.15.1.2.08.05-.02.06-.13.09-.2-.07-.03-.14-.06-.21-.09Zm-3.82,5.69c.07.03.15.1.2.08.05-.02.06-.13.1-.2-.07-.03-.15-.1-.2-.08-.05.02-.07.13-.1.2Zm-42.82,30.48c-.07-.03-.15-.1-.2-.08-.05.02-.06.13-.09.2.07.03.15.1.2.08.05-.02.06-.13.09-.2Zm-22.19,11.44c-.07-.03-.15-.1-.2-.08-.05.02-.06.13-.1.2.07.03.15.1.2.08.05-.02.07-.13.1-.2Z"/>
      <path class="cls-21" d="m318.57,94.57c-.17,1.62-.49,3.25-.48,4.87.07,7.69,3.63,13.42,10.17,17.33,1.45.86,3.08,1.48,4.71,1.97,1.58.47,3.26.63,5.04.96v1.17c0,22.02.03,44.05-.02,66.07-.01,6.4-3.44,10.6-9.84,12.09-.55.13-1.16.05-1.74.05-65.4,0-130.8,0-196.2,0-.29,0-.58-.03-.87-.04.12-.14.24-.41.37-.42,1.7-.12,3.4-.27,5.1-.28,9.14-.03,18.27,0,27.41-.05.74,0,1.48-.49,2.23-.75-.05-.07-.09-.14-.14-.21-1.89,0-3.79,0-5.68,0-7.56,0-15.12,0-22.68-.01-.36,0-.73-.22-1.09-.33.15-.35.2-.8.45-1.03,1.15-1.08,2.36-2.09,3.56-3.13.03-.03.08-.03.11-.05,1.64-.95,3.29-1.86,4.9-2.86.49-.3.81-.9,1.3-1.2,1.59-.99,3.24-1.88,4.84-2.87.46-.28.74-.85,1.2-1.13,1.59-.99,3.23-1.91,4.84-2.87.07-.04.09-.14.16-.19.46-.34.94-.67,1.4-1.01.57-.43,1.13-.87,1.7-1.3.26-.2.5-.41.78-.58,1.61-.95,3.29-1.82,4.84-2.86,1.34-.89,2.49-2.05,3.83-2.95,1.42-.95,2.97-1.69,4.41-2.6.63-.4,1.1-1.06,1.73-1.47,1.4-.9,2.9-1.65,4.29-2.57,1.27-.83,2.43-1.83,3.69-2.69,1.99-1.37,4.01-2.68,6.01-4.01,1.97-1.31,3.94-2.62,5.91-3.94,2.01-1.34,4.01-2.67,6.02-4,2.01-1.33,4.02-2.66,6.02-4.01,1.24-.83,2.42-1.75,3.69-2.54.96-.59,2.02-1.01,3.01-1.56.61-.34,1.43-.66,1.65-1.2.17-.43-.4-1.18-.7-1.76-.47-.89-1.92-1.36-1.14-2.77.17.25.33.49.5.74.11.15.21.3.32.46l-.02-.02c.08.1.15.2.23.3.16.17.32.34.47.51.08.08.15.16.23.25h.01c.08.09.15.17.23.26.26.22.53.45.79.67.24.19.48.38.72.57.5.33,1,.66,1.49.99.12.07.24.14.37.21h.08s.05.07.05.07c.1.06.2.12.3.18l-.02-.02c.24.1.48.21.72.31h0c.36.16.72.31,1.08.47,3.25.97,6.53,1.52,9.89.59-.02.25-.06.5-.04.74.02.32-.02.79.16.93.24.18.84.27.99.11.21-.21.16-.69.18-1.06.02-.33-.02-.66-.04-.99.58-.1,1.16-.2,1.74-.31.07.22.14.44.21.66.07-.02.15-.03.22-.05l.08-.84c.66-.35,1.32-.7,1.98-1.05.63.26,1.42.91,1.84.72,1.36-.62,1.64-1.63,1.16-3,.02-.08.07-.14.15-.17.24-.07.48-.14.72-.21-.08-.11-.17-.22-.25-.33.05-.07.11-.14.16-.21.07-.09.14-.18.21-.27.29-.42.59-.84.88-1.26.44-.03.88-.05,1.5-.09-.3-.55-.49-.89-.67-1.23.06-.14.12-.28.18-.42.43-.06.86-.12,1.41-.2-.39-.49-.6-.76-.81-1.02.1-.24.21-.49.31-.73.54-.14,1.09-.28,1.34-.35.28-1.44.57-2.69.72-3.95.03-.28-.39-.61-.61-.92.1-.91.2-1.83.29-2.74.23-.12.59-.19.67-.38.31-.76.47-1.57.8-2.32.46-1.07.9-2.18,1.58-3.11.37-.51,1.28-.61,1.84-1.03.57-.43,1.02-.89,1.85-.68.25.06.64-.38.95-.61.25-.18.47-.39.71-.58.03.08.05.16.05.24.01.34.03.68.04,1.02,0,.06-.02.12-.03.18-.13.77.15,1.16.97,1.04.07,0,.15.01.22.02l.02.03c.13.14.26.28.39.42.07,0,.11.04.11.11.17.14.34.28.51.41.66.44,1.33.87,1.99,1.31.3.05.6.1.9.15,0,0,.08,0,.08,0-.17.66-.33,1.33-.5,1.99h-7.67c.34,1.4.7,2.51.87,3.65.1.73.55.3.82.42-.3.4-.6.81-.94,1.25.52.68,1.04,1.08,2.05.84.64-.15,1.56.01,2.09.4,1.23.91,1.9.12,2.78-.52.87-.63.36-1.31.25-1.99.41.11.82.21,1.24.32,0,1.03-.06,1.98.02,2.93.07.96-.41,1.21-1.24,1.21-1.08,0-2.15.03-3.23.05-.09,0-.18-.01-.27-.02-.17-.31-.35-.63-.52-.94-.16.16-.47.39-.44.46.17.34.42.63.65.93.03.04.15.01.23.01.06.26.12.52.18.79-.02,2.38-.03,4.76-.05,7.14,0,.11,0,.22,0,.32,0,.22,0,.45.01.67,0,.11-.01.21-.02.32.01.4.02.79.03,1.19.13.17.26.33.39.5h25.14v-1.98c-.07-1.08-.14-2.15-.2-3.23-.39-.08-.79-.23-1.18-.24-5.57-.02-11.13-.02-16.7-.01-.36,0-.72.09-1.09.14-.15,0-.31,0-.46,0-.18-.04-.37-.07-.55-.11-.07-1.34-.17-2.68-.16-4.02,0-.17.61-.46.95-.47,1.15-.06,2.3-.02,3.54-.02v-6.15c1.93-.28,3.83-.78,5.72-.78,2.94,0,2.42-.38,2.45-2.66,0-.21.06-.46-.04-.61-.18-.28-.47-.72-.69-.71-1.17.08-2.39-.64-3.51.21-1.17.07-2.33.14-3.5.21-.25.08-.5.16-.75.24.02-.62-1.46-.45-.75-1.43.32-.09.65-.19.97-.28.09,0,.18,0,.28.01l.5-.21c.58-.18,1.17-.35,1.75-.53,0,1.08.82.74,1.33.67.19-.03.34-.61.43-.96.06-.23-.01-.49-.03-.74.18-.24.36-.48.54-.72.34.24.69.48,1.08.75.69-.92.17-1.26-.58-1.49.09-.25.18-.5.26-.75.88.1,1.01-.58,1.08-1.16.02-.16-.54-.39-.83-.58-.27-.9-.53-1.81-.8-2.71.02-.32.04-.63.05-.95-.19.09-.38.17-.58.26-.07-.06-.14-.11-.21-.17-.16-.14-.33-.28-.49-.42h-.02c-.1-.08-.2-.15-.3-.23-1.15-.49-2.3-.98-3.45-1.47-.33-.03-.65-.07-.98-.1-.33-.07-.67-.15-1-.22.25-.24.48-.64.75-.68.95-.14,1.92-.15,2.98-.21-.14-.39-.27-.76-.31-.89.71-.71,1.31-1.36,1.95-1.95.38-.35.8-.65,1.23-.94.36-.25.78-.41,1.14-.67,1.46-1.04,2.87-2.15,4.36-3.13,1.39-.91,2.9-1.64,4.3-2.55,1.27-.83,2.43-1.84,3.68-2.7,1.98-1.37,4.01-2.68,6.01-4.01,2.01-1.33,4.01-2.67,6.02-4,1.97-1.31,3.94-2.63,5.91-3.94,2.01-1.34,4.01-2.67,6.02-4,2.01-1.33,4-2.69,6.02-4,.68-.44,1.5-.68,2.12-1.18,1.29-1.06,2.37-2.38,4.03-2.98.48-.17.81-.74,1.23-1.1.25-.21.53-.37.81-.54,1.62-.95,3.28-1.83,4.84-2.87,1.34-.89,2.5-2.04,3.83-2.94,1.48-1,3.04-1.88,4.59-2.77.46-.26,1.29-.65,1.47-.48.42.41.76,1.11.77,1.7.06,4.1.02,8.21.04,12.31,0,.81-.22,1.26-1.12,1.22-.35-.01-.71.16-1.06.25,0,.13,0,.26,0,.39.44.11.91.16,1.31.35.73.35,1.41.79,2.12,1.19-.42.07-.84.14-1.26.22-.24,0-.48.02-.73.03-.42.07-.85.14-1.27.21-.24.04-.48.07-.72.11-.09.06-.17.12-.26.18-.18-.67-1.24-1.39-1.79-1.13-.98.45,0,.92.03,1.38,0,.08,0,.16.01.25-.49.11-.99.22-1.48.32-.17.07-.34.14-.51.21,0,.07,0,.14,0,.22l-.08.06h-.1c-.11.06-.21.12-.32.19-1.08.68-2.16,1.37-3.23,2.05-.56-.13-1.32-.56-1.65-.34-.85.58-1.65,1.36-2.2,2.23-.27.43.06,1.24.12,1.88-.26.34-.54.66-.77,1.02-.3.46-.55.95-.82,1.43-.06.06-.11.12-.17.18-.05.07-.12.1-.21.08-.98-.43-1.25,0-1.2.94.02.31-.05.77-.26.92-1.13.82-1.17,1.37-.08,2.36Zm-38.83,16.38c-.04-.15-.09-.29-.13-.44,1.22-.55.06-1.09.09-1.49h-3.12v.46c.66.09,1.35.11,1.99.29.33.09.58.46.87.7-1.49.01-2.99.02-4.48.03-.17.3-.48.61-.49.91-.03,4.09,0,8.19,0,12.28v5.74h-6.25c0,.82.04,1.56-.01,2.29-.06.84.19,1.2,1.11,1.16,1.37-.07,2.74.02,4.11-.02.86-.03,1.27.13,1.07,1.15-.08.39.3,1.24.51,1.25,1.58.11,3.18.06,4.62.06.11-1.12.2-2.02.29-2.93,0-5.5.02-11,.01-16.5,0-1.4-.05-2.8-.08-4.21,0-.14,0-.28-.01-.42-.02-.11-.05-.21-.07-.32Zm-27.87,11.89c0,.15.01.3.02.46.71.11,1.42.25,2.13.32.19.02.41-.2.61-.3-.11-.2-.21-.57-.32-.57-.81,0-1.62.06-2.44.1Zm20.21-.66c-.02-.17-.03-.34-.05-.51-.58.04-1.16.08-1.74.12,0,.13.02.26.03.39h1.76Zm-4.93-12.13l-.11.66c.5.08,1.01.17,1.51.25.03-.18.07-.35.1-.53-.5-.13-1.01-.26-1.51-.38Zm56.88-28.97c.08.19.15.37.23.56.42-.22.84-.43,1.25-.65-.07-.14-.13-.27-.2-.41-.43.16-.86.33-1.29.49Zm-41.29,36.46c.15.05.29.11.44.16.06-.25.12-.5.16-.76,0-.03-.12-.08-.27-.18-.11.27-.22.52-.32.77Zm.63-3.67c-.11,0-.22-.01-.33-.02v.96c.09,0,.18,0,.27,0l.05-.95Zm40.13-31.29c-.12-.07-.23-.13-.35-.2-.12.26-.23.51-.35.77.09.05.19.09.28.14.14-.24.28-.47.42-.71Z"/>
      <path class="cls-8" d="m210.11.04c-.45.21-.9.41-1.34.63-3.18,1.61-6.62,1.81-10.08,1.81-7.31.01-14.62,0-21.93,0-.78,0-1.56-.18-2.34-.19-.48,0-1.04.01-1.44.24-1.38.81-2.69,1.72-4.04,2.58-.5.32-1.08.52-1.54.88-.54.42-.99.94-1.48,1.42-.23.23-.5.66-.7.63-1.28-.15-1.74.87-2.44,1.56-.17.17-.39.47-.56.44-1.28-.18-1.74.86-2.44,1.55-.17.17-.39.47-.56.44-1.28-.18-1.74.86-2.44,1.55-.17.17-.39.47-.56.44-1.28-.18-1.74.87-2.43,1.55-.14.14-.31.4-.45.39-1.37-.08-1.9,1.02-2.72,1.77-.42.38-1.19.35-1.7.67-.87.55-1.22,1.89-2.64,1.68-.23-.03-.53.48-.81.73-.6.54-.93,1.57-2.07,1.17-.03,0-.09.02-.11.05-.97,1.72-3.18,1.82-4.33,3.3-.17.22-.41.59-.6.58-1.39-.09-1.88,1.06-2.71,1.79-.56.49-1.42.6-2.06,1.02-.7.45-.98,1.63-2.17,1.24-.03,0-.08.03-.11.05-1.47,1.13-2.93,2.27-4.39,3.4-.19.15-.37.49-.53.48-1.34-.11-1.9.9-2.61,1.72-.1.12-.28.3-.39.28-1.37-.24-1.61,1.18-2.47,1.63-1.28.68-2.39,1.7-3.56,2.28-1.03.51-1.79,1.14-2.64,1.82-.71.57-1.73.75-2.49,1.27-1.18.82-2.29,1.76-3.37,2.72-.21.18-.26.95-.11,1.05.95.66.63,1.41.3,2.2-.79-1.69-2-2.96-3.83-3.45-3.8-1.03-7.68-.5-11.58-.62,0,.75,0,1.33,0,1.9-.01,6.75-.03,13.5-.04,20.25-.57.39-1.15.78-1.84,1.26-.03-.05-.27-.31-.26-.57.03-2.89.1-5.78.15-8.67,0-.21.03-.41.02-.62-.02-.41-.06-.82-.1-1.23-.33.17-.66.48-.98.47-1.49-.03-1.99,1.72-2.86,1.92-2.25.52-3.01,2.84-5.01,3.47-.3.1-.53.48-.75.77-.17.22-.24.64-.44.71-1.91.65-1.27,2.19-1.37,3.54-.16,2.37-.46,4.73-.76,7.09-.05.38-.44.71-.67,1.07-.01-.5-.04-.99-.04-1.49,0-11.48,0-22.97,0-34.45,0-.44,0-.88,0-1.31h-37.81v37.75c4.02,0,7.96,0,11.9,0,8.3.01,16.61.03,24.91.04.33.16.7.26.99.48.29.23.63.54.7.87.05.24-.27.66-.53.81-.34.19-.79.27-1.19.26-6.05-.06-12.11-.15-18.16-.22-.28,0-.6.04-.84.17-1.44.84-2.86,1.72-4.29,2.57-.58.35-1.22.61-1.74,1.02-.54.42-.94,1.01-1.47,1.45-.34.28-.83.36-1.19.61-.62.43-1.18.95-1.8,1.38-.36.25-.83.35-1.2.61-.62.43-1.18.96-1.8,1.39-.36.25-.83.35-1.2.6-.62.43-1.18.96-1.8,1.39-.36.25-.83.35-1.2.6-.62.43-1.17.96-1.8,1.39-.36.25-.83.35-1.2.6-.56.37-1.06.84-1.63,1.21-.47.3-1.03.45-1.48.76-.54.36-.98.87-1.51,1.23-.46.31-1.01.47-1.48.76-.41.25-.78.58-1.15.89-.59.49-.86,1.39-1.99,1.16-.34-.07-.81.76-1.28,1.08-.49.34-1.08.51-1.57.85-.56.39-1.03.92-1.59,1.33-.39.28-.89.41-1.28.68-.59.41-1.12.91-1.71,1.32-.4.27-.89.4-1.28.67-.59.41-1.12.91-1.71,1.32-.4.27-.89.4-1.29.67-.59.41-1.12.92-1.71,1.32-.39.27-.89.4-1.29.67-.59.41-1.11.92-1.71,1.33-.39.27-.89.4-1.29.66-.53.35-1,.8-1.52,1.17-.5.35-1.03.66-1.55.98-.31.18-.68.29-.94.52-.67.59-1.19,1.3-2.28,1.32-.4,0-.77.85-1.16,1.3-.42.48-.86.94-1.29,1.4-.13-.06-.25-.12-.38-.18,0,.44,0,.89,0,1.33,0,5.14.09,10.28-.04,15.42-.05,2.12-.56,4.22-.86,6.33-.12.81-.33,1.62-.33,2.43-.03,5.31,0,10.61-.04,15.92,0,.42-.29.83-.44,1.24-.06-.26-.13-.52-.19-.78,0-.15,0-.29,0-.44,0-.19,0-.37,0-.56,0-.15,0-.29,0-.44,0-.19,0-.37,0-.56,0-.15,0-.29,0-.44,0-.19,0-.37,0-.56,0-.15,0-.29,0-.44,0-.19,0-.37,0-.56,0-.15,0-.29,0-.44,0-.19,0-.37,0-.56,0-.15,0-.29,0-.44,0-.19,0-.37,0-.56,0-.15,0-.29,0-.44,0-.19,0-.37,0-.56,0-.15,0-.29,0-.44,0-.19,0-.37,0-.56,0-.15,0-.29,0-.44,0-.19,0-.37,0-.56,0-.15,0-.29,0-.44,0-.19,0-.37,0-.56,0-.15,0-.29,0-.44,0-.19,0-.37,0-.56,0-.15,0-.29,0-.44,0-.19,0-.37,0-.56,0-.15,0-.29,0-.44,0-.19,0-.37,0-.56,0-.15,0-.29,0-.44,0-.19,0-.37,0-.56,0-.15,0-.29,0-.44,0-.19,0-.37,0-.56,0-.15,0-.29,0-.44,0-.19,0-.37,0-.56,0-.15,0-.29,0-.44,0-.19,0-.37,0-.56,0-.15,0-.29,0-.44,0-.19,0-.37,0-.56,0-.15,0-.29,0-.44,0-.19,0-.37,0-.56,0-.15,0-.29,0-.44,0-.19,0-.37,0-.56,0-.15,0-.29,0-.44,0-.19,0-.37,0-.56,0-.15,0-.29,0-.44,0-.19,0-.37,0-.56,0-.15,0-.29,0-.44,0-.19,0-.37,0-.56,0-.15,0-.29,0-.44,0-.19,0-.37,0-.56,0-.15,0-.29,0-.44,0-.19,0-.37,0-.56,0-.15,0-.29,0-.44,0-.19,0-.37,0-.56,0-.15,0-.29,0-.44,0-.19,0-.37,0-.56,0-.15,0-.29,0-.44,0-.19,0-.37,0-.56,0-.15,0-.29,0-.44,0-.19,0-.37,0-.56,0-.15,0-.29,0-.44,0-.19,0-.37,0-.56,0-.15,0-.29,0-.44,0-.19,0-.37,0-.56,0-.15,0-.29,0-.44,0-.19,0-.37,0-.56,0-.15,0-.29,0-.44,0-.19,0-.37,0-.56,0-.15,0-.29,0-.44,0-.19,0-.37,0-.56,0-.15,0-.29,0-.44,0-.19,0-.37,0-.56,0-.15,0-.29,0-.44,0-.19,0-.37,0-.56,0-.15,0-.29,0-.44,0-.19,0-.37,0-.56,0-.15,0-.29,0-.44,0-.19,0-.37,0-.56,0-.15,0-.29,0-.44,0-.19,0-.37,0-.56,0-.15,0-.29,0-.44,0-.19,0-.37,0-.56,0-.15,0-.29,0-.44,0-.19,0-.37,0-.56,0-.15,0-.29,0-.44,0-.19,0-.37.01-.56,0-.15,0-.29,0-.44,0-.19,0-.37,0-.56,0-.15,0-.29,0-.44,0-.19,0-.37,0-.56,0-.15,0-.29,0-.44,0-.19,0-.37,0-.56,0-.15,0-.29,0-.44,0-.19,0-.37,0-.56,0-.15,0-.29,0-.44,0-.19,0-.37,0-.56,0-.15,0-.29,0-.44,0-.19,0-.37,0-.56,0-.15,0-.29,0-.44,0-.19,0-.37,0-.56,0-.15,0-.29,0-.44,0-.19,0-.37,0-.56,0-.15,0-.29,0-.44,0-.19,0-.37,0-.56,0-.15,0-.29,0-.44,0-.19,0-.37,0-.56,0-.15,0-.29,0-.44,0-.19,0-.37,0-.56,0-.15,0-.29,0-.44,0-.19,0-.37,0-.56,0-.15,0-.29,0-.44,0-.19,0-.37,0-.56,0-.15,0-.29,0-.44,0-.19,0-.37,0-.56,0-.15,0-.29,0-.44,0-.19,0-.37,0-.56,0-.15,0-.29,0-.44,0-.19,0-.37,0-.56,0-.15,0-.29,0-.44,0-.19,0-.37,0-.56,0-.15,0-.29,0-.44,0-.19,0-.37,0-.56,0-.15,0-.29,0-.44,0-.19,0-.37,0-.56,0-.15,0-.29,0-.44,0-.19,0-.37,0-.56,0-.15,0-.29,0-.44,0-.19,0-.37,0-.56,0-.15,0-.29,0-.44,0-.19,0-.37,0-.56,0-.15,0-.29,0-.44,0-.19,0-.37,0-.56,0-.15,0-.29,0-.44,0-.19,0-.37,0-.56,0-.15,0-.29,0-.44,0-.19,0-.37,0-.56,0-.15,0-.29,0-.44,0-.19,0-.37,0-.56,0-.15,0-.29,0-.44,0-.19,0-.37,0-.56,0-.15,0-.29,0-.44,0-.19,0-.37,0-.56,0-.15,0-.29,0-.44,0-.19,0-.37,0-.56,0-.15,0-.29,0-.44,0-.19,0-.37,0-.56,0-.15,0-.29,0-.44,0-.19,0-.37,0-.56,0-.15,0-.29,0-.44,0-.19,0-.37,0-.56,0-.15,0-.29,0-.44,0-.19,0-.37,0-.56,0-.15,0-.29,0-.44,0-.19,0-.37,0-.56,0-.15,0-.29,0-.44,0-.19,0-.37,0-.56,0-.15,0-.29,0-.44,0-.19,0-.37,0-.56,0-.15,0-.29,0-.44,0-.19,0-.37,0-.56,0-.15,0-.29,0-.44,0-.19,0-.37,0-.56,0-.15,0-.29,0-.44,0-.19,0-.37,0-.56,0-.15,0-.29,0-.44,0-.19,0-.37,0-.56,0-.15,0-.29,0-.44,0-.19,0-.37,0-.56,0-.15,0-.29,0-.44,0-.19,0-.37,0-.56,0-.15,0-.29,0-.44,0-.19,0-.37,0-.56,0-.15,0-.29,0-.44,0-.19,0-.37,0-.56,0-.15,0-.29,0-.44,0-.19,0-.37,0-.56,0-.15,0-.29,0-.44,0-.19,0-.37,0-.56,0-.15,0-.29,0-.44,0-.19,0-.37,0-.56,0-.15,0-.29,0-.44,0-.19,0-.37,0-.56,0-.15,0-.29,0-.44,0-.19,0-.37,0-.56,0-.15,0-.29,0-.44,0-.19,0-.37,0-.56,0-.15,0-.29,0-.44,0-.19,0-.37,0-.56,0-.15,0-.29,0-.44,0-.19,0-.37,0-.56,0-.15,0-.29,0-.44,0-.19,0-.37,0-.56,0-.15,0-.29,0-.44,0-.19,0-.37,0-.56,0-.15,0-.29,0-.44,0-.19,0-.37,0-.56,0-.15,0-.29,0-.44,0-.19,0-.37,0-.56,0-.15,0-.29,0-.44,0-.19,0-.37,0-.56,0-.15,0-.29,0-.44,0-.19,0-.37,0-.56,0-.15,0-.29,0-.44,0-.19,0-.37,0-.56,0-.15,0-.29,0-.44,0-.19,0-.37,0-.56,0-.15,0-.29,0-.44,0-.19,0-.37,0-.56,0-.15,0-.29,0-.44,0-.19,0-.37,0-.56,0-.15,0-.29,0-.44,0-.19,0-.37,0-.56,0-.15,0-.29,0-.44,0-.19,0-.37,0-.56,0-.15,0-.29,0-.44,0-.19,0-.37,0-.56,0-.15,0-.29,0-.44,0-.19,0-.37,0-.56,0-.15,0-.29,0-.44,0-.19,0-.37,0-.56,0-.15,0-.29,0-.44,0-.19,0-.37,0-.56,0-.15,0-.29,0-.44,0-.19,0-.37,0-.56,0-.15,0-.29,0-.44,0-.19,0-.37,0-.56,0-.15,0-.29,0-.44,0-.19,0-.37,0-.56,0-.15,0-.29,0-.44,0-.19,0-.37,0-.56,0-.15,0-.29,0-.44,0-.19,0-.37,0-.56,0-.15,0-.29,0-.44,0-.19,0-.37,0-.56,0-.15,0-.29,0-.44,0-.19,0-.37,0-.56,0-.15,0-.29,0-.44,0-.19,0-.37,0-.56,0-.15,0-.29,0-.44,0-.19,0-.37,0-.56,0-.15,0-.29,0-.44,0-.19,0-.37,0-.56,0-.15,0-.29,0-.44,0-.19,0-.37,0-.56,0-.15,0-.29,0-.44,0-.19,0-.37,0-.56,0-.15,0-.29,0-.44,0-.19,0-.37,0-.56,0-.15,0-.29,0-.44,0-.19,0-.37,0-.56,0-.15,0-.29,0-.44,0-.19,0-.37,0-.56,0-.15,0-.29,0-.44,0-.19,0-.37,0-.56,0-.15,0-.29,0-.44,0-.19,0-.37,0-.56,0-.15,0-.29,0-.44,0-.19,0-.37,0-.56,0-.15,0-.29,0-.44,0-.19,0-.37,0-.56,0-.15,0-.29,0-.44,0-.19,0-.37,0-.56,0-.15,0-.29,0-.44,0-.19,0-.37,0-.56,0-.15,0-.29,0-.44,0-.19,0-.37,0-.56,0-.15,0-.29,0-.44,0-.19,0-.37,0-.56,0-.15,0-.29,0-.44,0-.19,0-.37,0-.56,0-.15,0-.29,0-.44,0-.19,0-.37,0-.56,0-.15,0-.29,0-.44,0-.19,0-.37,0-.56,0-.15,0-.29,0-.44,0-.19,0-.37,0-.56,0-.15,0-.29,0-.44,0-.19,0-.37,0-.56,0-.15,0-.29,0-.44,0-.19,0-.37,0-.56,0-.15,0-.29,0-.44,0-.19,0-.37,0-.56,0-.15,0-.29,0-.44,0-.19,0-.37,0-.56,0-.15,0-.29,0-.44,0-.19,0-.37,0-.56,0-.15,0-.29,0-.44,0-.19,0-.37,0-.56,0-.15,0-.29,0-.44,0-.19,0-.37,0-.56,0-.15,0-.29,0-.44,0-.19,0-.37,0-.56,0-.15,0-.29,0-.44,0-.18,0-.37,0-.55,0-.15,0-.3,0-.45,0-.18,0-.37,0-.55,0-.15,0-.3.01-.44-.01-.35-.03-.69-.04-1.04C.14,6.45,3.59,1.57,8.7.52,10.42.17,12.21.02,13.96.02,78.85,0,143.73,0,208.62,0c.5,0,.99.03,1.49.04Z"/>
      <path class="cls-14" d="m157.16,99.08c1.75-1.51,3.42-3.12,5.27-4.5,1.3-.96,2.83-1.6,4.26-2.39.04-.02.07-.05.1-.07,1.44-1.1,2.84-2.27,4.34-3.28,1.38-.93,2.88-1.69,4.32-2.52.07-.04.16-.06.22-.11,1.42-1.06,2.79-2.2,4.27-3.18,1.45-.97,3-1.8,4.5-2.69.07-.04.16-.06.22-.11,1.45-1.09,2.85-2.26,4.35-3.27,1.42-.95,2.94-1.74,4.42-2.6.07-.04.15-.07.22-.12,1.45-1.1,2.85-2.26,4.35-3.27,1.38-.93,2.86-1.71,4.3-2.56.11-.06.24-.08.33-.15,1.45-1.09,2.85-2.26,4.35-3.27,1.38-.93,2.87-1.71,4.31-2.55.07-.04.17-.04.23-.09,1.39-1.03,2.74-2.12,4.18-3.09,1.48-1,3.05-1.87,4.58-2.8.07-.04.16-.05.23-.1,1.39-1.03,2.74-2.13,4.18-3.09,1.48-1,3.05-1.87,4.59-2.79.07-.04.16-.06.22-.1,1.42-1.06,2.8-2.19,4.27-3.18,1.45-.97,3-1.8,4.5-2.69.11-.06.23-.11.32-.18,1.73-1.39,3.41-2.85,5.22-4.15,1.38-.99,2.93-1.76,4.4-2.63.07-.04.16-.05.23-.1,1.39-1.03,2.74-2.13,4.18-3.09,1.48-1,3.05-1.87,4.59-2.79.07-.04.16-.06.22-.1,1.42-1.06,2.8-2.19,4.27-3.18,1.45-.97,3-1.8,4.5-2.69.07-.04.16-.06.22-.11,1.42-1.07,2.79-2.2,4.26-3.18,1.45-.97,3-1.8,4.51-2.69.07-.04.15-.07.22-.11,1.45-1.1,2.85-2.26,4.35-3.27,1.42-.95,2.94-1.74,4.42-2.59.07-.04.15-.07.22-.12,1.45-1.1,2.85-2.26,4.35-3.27,1.38-.93,2.87-1.71,4.31-2.56.11-.06.24-.08.33-.16,1.55-1.19,3.03-2.49,4.68-3.53,1.32-.84,2.84-1.36,4.28-2.02.15-.07.35-.05.47-.14,1.74-1.46,3.82-1.37,5.9-1.36,4.19.03,8.39.02,12.58-.01.42,0,.83-.28,1.25-.44,2.58.24,5.22.21,7.71.8,2.09.5,3.95,1.79,5.25,3.66.17.24.34.48.51.72,1.64,2.56,2.03,5.39,2.01,8.37-.06,7.66-.04,15.32-.06,22.99-.24-.55-.67-1.11-.68-1.66-.05-5.26-.03-10.53-.03-15.8v-1.34c-2.12.43-4.02.91-5.37,2.55-.1.12-.3.14-.44.23-1.45.87-2.93,1.7-4.33,2.64-1.48,1-2.88,2.11-4.32,3.17-.1.07-.23.1-.33.16-1.45.88-2.92,1.7-4.32,2.65-1.48,1-2.88,2.11-4.33,3.17-.1.07-.23.1-.34.16-1.44.88-2.92,1.71-4.32,2.65-1.48,1-2.89,2.11-4.33,3.16-.1.07-.23.1-.34.16-1.44.88-2.92,1.71-4.32,2.65-1.48,1-2.89,2.11-4.33,3.16-.13.1-.31.12-.45.21-1.34.81-2.75,1.53-4.01,2.45-1.62,1.19-3.12,2.56-4.68,3.83-.15.12-.39.12-.56.22-.61.36-1.21.73-1.8,1.12-.34.22-.61.66-.97.73-1.01.19-1.75.65-2.27,1.54-.13.22-.45.42-.71.46-1.02.15-1.75.64-2.28,1.52-.15.25-.55.35-.82.53-.69.46-1.38.92-2.07,1.38-.31.2-.62.41-.92.61-.69.46-1.38.92-2.07,1.38-.31.2-.61.41-.92.61-.69.46-1.38.92-2.07,1.37-.31.2-.6.43-.92.61-.7.41-1.44.75-2.11,1.21-1.43,1-2.82,2.06-4.23,3.09-.1.07-.23.1-.33.16-1.45.87-2.93,1.7-4.33,2.64-1.48,1-2.88,2.11-4.32,3.17-.1.07-.23.1-.33.16-1.53.96-3.09,1.9-4.59,2.9-1.42.95-2.78,1.98-4.17,2.96-.89.63-1.73,1.41-2.72,1.79-1.17.46-2.11,1.04-2.78,2.1-.1.17-.44.18-.65.29-.61.31-1.22.62-1.8.97-.45.28-.84.66-1.29.94-1.43.9-2.88,1.76-4.32,2.66-.78.49-1.55,1-2.3,1.55-.46.34-.93.71-1.24,1.17-.44.65-.37,1.19.64,1.17.91-.02,1.83,0,2.74,0l.05.6c-.84.13-1.71.46-2.52.36-1.74-.23-3.41-.25-5.13.25-.8.23-1.31.44-1.26,1.33l-5.43,2.97c-.77-.08-1.15.22-1.02,1.03h0c-1.6.61-2.86,1.56-3.34,3.27-.61,0-1.34-.22-1.8.04-1.27.72-2.51,1.56-3.62,2.51-1.48,1.27-1.96,1.43-3.78.6-1.34-3.43-3.49-6.28-6.41-8.52-.72-.56-1.49-1.21-2.34-1.42-1.87-.47-3.82-.62-5.71-1.03-2.36-.52-4.65-.07-6.89.51-5.71,1.46-8.92,5.69-10.94,10.79-1.29,3.28-1.51,6.9-1.55,10.43-.04,4.04.11,8.09.18,12.13-.15.12-.42.25-.42.37.02,2.25-1.92,2.89-3.29,3.97-.94.74-1.94,1.39-2.92,2.09.05.06.11.13.16.19l-2.18.1c1.5-3.49,1.89-7.21,2.24-10.94v-8.23c-.36-2.74-.58-5.52-1.16-8.21-.63-2.93-2.14-5.53-3.97-7.92Z"/>
      <path class="cls-15" d="m221.35,94.36c-.05-.89.46-1.1,1.26-1.33,1.72-.5,3.38-.48,5.13-.25.81.11,1.68-.22,2.52-.36l-.05-.6c-.91,0-1.83-.02-2.74,0-1.01.03-1.07-.51-.64-1.17.31-.46.78-.83,1.24-1.17.74-.55,1.51-1.06,2.3-1.55,1.43-.9,2.88-1.76,4.32-2.66.45-.28.84-.66,1.29-.94.58-.36,1.19-.66,1.8-.97.21-.11.55-.12.65-.29.67-1.06,1.61-1.64,2.78-2.1.99-.39,1.83-1.17,2.72-1.79,1.39-.98,2.75-2.01,4.17-2.96,1.51-1.01,3.06-1.94,4.59-2.9.1-.07.24-.09.33-.16,1.44-1.06,2.84-2.17,4.32-3.17,1.4-.94,2.88-1.77,4.33-2.64.11-.06.24-.09.33-.16,1.41-1.03,2.8-2.09,4.23-3.09.66-.46,1.41-.8,2.11-1.21.32-.19.62-.41.92-.61.69-.46,1.38-.92,2.07-1.37.31-.2.61-.41.92-.61.69-.46,1.38-.92,2.07-1.38.31-.2.62-.41.92-.61.69-.46,1.38-.92,2.07-1.38.27-.18.67-.28.82-.53.53-.89,1.26-1.38,2.28-1.52.26-.04.58-.24.71-.46.52-.89,1.26-1.35,2.27-1.54.35-.07.63-.5.97-.73.59-.39,1.19-.76,1.8-1.12.17-.1.42-.1.56-.22,1.56-1.28,3.06-2.64,4.68-3.83,1.26-.93,2.67-1.65,4.01-2.45.14-.08.32-.11.45-.21,1.44-1.05,2.85-2.16,4.33-3.16,1.4-.94,2.88-1.78,4.32-2.65.11-.06.24-.09.34-.16,1.44-1.06,2.85-2.17,4.33-3.16,1.4-.94,2.88-1.77,4.32-2.65.11-.06.24-.09.34-.16,1.44-1.06,2.84-2.17,4.33-3.17,1.4-.94,2.88-1.77,4.32-2.65.11-.06.24-.09.33-.16,1.44-1.06,2.84-2.17,4.32-3.17,1.4-.94,2.88-1.77,4.33-2.64.14-.09.34-.11.44-.23,1.34-1.64,3.25-2.11,5.37-2.55v1.34c0,5.27-.02,10.53.03,15.8,0,.56.44,1.11.68,1.66.01,3.98.04,7.96.04,11.94,0,9.99,0,19.99-.02,29.98,0,.37-.31.73-.48,1.1-.7-.4-1.39-.84-2.12-1.19-.4-.19-.87-.24-1.31-.35,0-.13,0-.26,0-.39.35-.09.71-.27,1.06-.25.9.04,1.13-.41,1.12-1.22-.02-4.1.02-8.21-.04-12.31,0-.59-.35-1.29-.77-1.7-.18-.17-1.01.21-1.47.48-1.55.88-3.11,1.76-4.59,2.77-1.33.9-2.49,2.05-3.83,2.94-1.56,1.04-3.22,1.92-4.84,2.87-.28.17-.57.33-.81.54-.42.36-.75.93-1.23,1.1-1.66.6-2.74,1.91-4.03,2.98-.61.51-1.44.74-2.12,1.18-2.02,1.31-4.02,2.66-6.02,4-2.01,1.33-4.01,2.67-6.02,4-1.97,1.31-3.94,2.63-5.91,3.94-2.01,1.34-4.01,2.67-6.02,4-2.01,1.33-4.03,2.65-6.01,4.01-1.25.86-2.41,1.87-3.68,2.7-1.39.91-2.91,1.64-4.3,2.55-1.5.98-2.9,2.09-4.36,3.13-.36.25-.77.42-1.14.67-.43.29-.86.59-1.23.94-.64.6-1.24,1.24-1.95,1.95.05.13.18.5.31.89-1.06.07-2.03.08-2.98.21-.28.04-.5.44-.75.68-.33,0-.67,0-1,0-.08,0-.16,0-.25,0-.64.09-1.3.12-1.92.27-2.93.7-6.43,2.15-6.1,6.48-.23.2-.46.4-.71.58-.31.23-.7.67-.95.61-.83-.21-1.28.25-1.85.68-.56.42-1.46.52-1.84,1.03-.68.93-1.11,2.04-1.58,3.11-.32.75-.49,1.56-.8,2.32-.08.19-.44.26-.67.38.08-.91.16-1.82.23-2.73,0-2.74,0-5.49.01-8.23-.25-2.1-.44-4.2-.77-6.29-.63-3.94-2.07-7.57-4.99-10.36-1.51-1.45-3.31-2.73-5.2-3.61-1.67-.78-3.57-1.11-5.53-1.23-2.49-.16-4.84.21-7.23.65Zm11.59-1.63c0-.15.01-.3.02-.45-.66-.06-1.33-.12-1.99-.19.58.86,1.19,1.38,1.97.64Z"/>
      <path class="cls-15" d="m160.05,134.38l2.18-.1c-.05-.06-.11-.13-.16-.19.98-.69,1.98-1.34,2.92-2.09,1.37-1.08,3.31-1.72,3.29-3.97,0-.12.27-.24.42-.37.09.52.19,1.03.28,1.55.51,2.86,1.55,5.53,3.04,8.02,1.16,1.95,2.6,3.57,4.58,4.83,1.33.85,2.72,1.51,4.15,1.97,3.19,1.02,6.45,1,9.76.31,4.32-.9,7.63-3.1,9.9-6.86,2.6-4.32,3.44-9.12,3.76-14.05,0-2.74,0-5.49.01-8.23-.29-3.53-.61-7.06-1.82-10.43,1.82.83,2.3.67,3.78-.6,1.11-.95,2.35-1.79,3.62-2.51.46-.26,1.19-.04,1.8-.04.48-1.71,1.74-2.67,3.34-3.27-1.18,2.01-2.54,3.93-3.5,6.04-1.48,3.26-1.89,6.82-1.98,10.35-.11,4.16.05,8.32.26,12.48.09,1.67.42,3.39.99,4.96.71,1.96,1.78,3.79,2.69,5.68-.79,1.4.67,1.88,1.14,2.77.3.58.87,1.33.7,1.76-.22.54-1.04.86-1.65,1.2-.99.55-2.05.97-3.01,1.56-1.27.79-2.45,1.7-3.69,2.54-2,1.35-4.01,2.67-6.02,4.01-2.01,1.33-4.01,2.67-6.02,4-1.97,1.31-3.94,2.62-5.91,3.94-2.01,1.34-4.03,2.65-6.01,4.01-1.25.86-2.42,1.86-3.69,2.69-1.39.91-2.89,1.67-4.29,2.57-.63.4-1.09,1.07-1.73,1.47-1.45.91-3,1.65-4.41,2.6-1.33.9-2.49,2.06-3.83,2.95-1.56,1.04-3.23,1.91-4.84,2.86-.28.16-.52.38-.78.58-.57.43-1.13.87-1.7,1.3-.46.35-.94.67-1.4,1.01-.06.05-.09.15-.16.19-1.61.95-3.25,1.88-4.84,2.87-.46.28-.74.85-1.2,1.13-1.59.99-3.25,1.88-4.84,2.87-.49.31-.81.9-1.3,1.2-1.61.99-3.26,1.91-4.9,2.86-.04.02-.08.03-.11.05-1.19,1.04-2.4,2.05-3.56,3.13-.25.23-.31.68-.45,1.03.36.11.73.33,1.09.33,7.56.02,15.12.01,22.68.01,1.89,0,3.79,0,5.68,0,.05.07.09.14.14.21-.74.26-1.48.75-2.23.75-9.14.05-18.27.02-27.41.05-1.7,0-3.4.16-5.1.28-.13,0-.25.27-.37.42-.29.01-.58.04-.87.04-21.03,0-42.05,0-63.08,0-.29,0-.58-.03-.87-.04,1.09-.32,2.19-.9,3.28-.91,8.47-.08,16.94-.04,25.41-.05.44,0,.88-.06,1.33-.1-.01-.14-.02-.29-.03-.43h-26.92c-.04-.12-.09-.25-.13-.37.28-.24.53-.51.83-.72.43-.31.91-.56,1.35-.87,1.39-.99,2.76-2,4.15-2.99.13-.09.31-.12.45-.2,1.45-.85,2.9-1.7,4.35-2.56.06-.04.08-.16.14-.2,1.46-1.06,2.92-2.12,4.38-3.17.03-.02.08-.02.12-.04,1.54-.93,3.08-1.85,4.62-2.8.16-.1.23-.34.38-.48.24-.22.49-.43.75-.61,1.86-1.29,3.72-2.56,5.58-3.85.27-.19.47-.48.75-.65,1.43-.83,2.92-1.56,4.3-2.47,1.49-.99,2.87-2.13,4.29-3.21.13-.1.25-.22.39-.3,1.44-.82,2.92-1.55,4.3-2.47,1.49-.99,2.87-2.13,4.29-3.21.13-.1.25-.22.39-.3,1.99-1.15,4.15-2.06,5.75-3.81.15-.17.45-.18.66-.31.59-.36,1.17-.73,1.74-1.12.34-.23.61-.56.96-.77,1.51-.93,3.08-1.77,4.55-2.76,1.45-.97,2.8-2.08,4.2-3.12.06-.05.15-.06.22-.11,1.55-.94,3.14-1.84,4.65-2.85,1.41-.95,2.75-2.02,4.12-3.03.06-.05.15-.07.23-.1q2.21-.83,2.21-3.22c.87-.01,1.76.09,2.6-.06,2.43-.45,5.02-.61,7.21-1.62,3.76-1.73,6.27-4.87,7.68-8.81Z"/>
      <path class="cls-14" d="m142.55,144.87q0,2.39-2.21,3.22c-.08.03-.16.05-.23.1-1.37,1.01-2.7,2.08-4.12,3.03-1.51,1.01-3.1,1.9-4.65,2.85-.07.04-.16.06-.22.11-1.4,1.04-2.75,2.15-4.2,3.12-1.47.99-3.04,1.83-4.55,2.76-.35.21-.62.54-.96.77-.57.39-1.15.76-1.74,1.12-.21.13-.51.15-.66.31-1.6,1.75-3.76,2.66-5.75,3.81-.14.08-.26.2-.39.3-1.43,1.08-2.8,2.22-4.29,3.21-1.37.91-2.86,1.65-4.3,2.47-.14.08-.26.2-.39.3-1.43,1.08-2.81,2.22-4.29,3.21-1.37.91-2.87,1.64-4.3,2.47-.28.16-.48.46-.75.65-1.85,1.29-3.72,2.57-5.58,3.85-.27.18-.52.39-.75.61-.15.14-.22.38-.38.48-1.53.94-3.08,1.87-4.62,2.8-.03.02-.08.02-.12.04-1.46,1.06-2.92,2.11-4.38,3.17-.06.05-.07.16-.14.2-1.45.86-2.9,1.71-4.35,2.56-.14.08-.32.11-.45.2-1.39.99-2.76,2-4.15,2.99-.43.31-.91.56-1.35.87-.3.21-.55.48-.83.72.04.12.09.25.13.37h26.92c.01.14.02.29.03.43-.44.03-.88.1-1.33.1-8.47,0-16.94-.03-25.41.05-1.1,0-2.19.59-3.28.91-.41.01-.83.04-1.24.04-17.57,0-35.13.01-52.7-.03-.97,0-1.93-.47-2.9-.73-.05-.76.46-.88.97-.68.82.33,1.15-.08,1.62-.64.43-.51,1.17-.75,1.72-1.18.47-.37.84-.86,1.3-1.24.35-.29.77-.5,1.17-.72.34-.19.75-.29,1.05-.54.73-.6,1.17-1.6,2.38-1.53.23.01.48-.41.74-.61.69-.52,1.08-1.48,2.2-1.37.21.02.47-.29.68-.48.71-.63,1.17-1.61,2.37-1.53.23.01.47-.42.73-.61.69-.52,1.08-1.49,2.2-1.36.21.02.47-.3.68-.48.71-.63,1.18-1.6,2.38-1.53.23.01.47-.42.73-.62.69-.52,1.08-1.49,2.21-1.36.2.02.46-.3.67-.49.71-.63,1.18-1.6,2.38-1.52.2.01.44-.33.65-.53.7-.65,1.34-1.24,2.37-1.56.95-.3,1.63-1.43,2.43-2.2.06-.06.1-.18.16-.18,1.79-.18,2.48-2.24,4.25-2.48.28-.04.52-.36.77-.57.69-.59,1.14-1.53,2.29-1.44.23.02.48-.41.74-.6.69-.52,1.08-1.49,2.2-1.37.21.02.47-.29.68-.47.71-.63,1.17-1.61,2.37-1.53.23.01.48-.41.73-.61.69-.52,1.08-1.48,2.2-1.37.21.02.47-.29.68-.48.71-.63,1.17-1.6,2.38-1.53.23.01.47-.42.73-.61.69-.52,1.08-1.49,2.21-1.36.21.02.46-.3.68-.49.71-.63,1.18-1.6,2.38-1.53.23.01.47-.42.73-.62.69-.52,1.08-1.5,2.21-1.36.2.03.46-.3.67-.49.71-.63,1.18-1.6,2.38-1.52.2.01.43-.34.65-.53.69-.59,1.13-1.55,2.29-1.44.18.02.42-.24.59-.41.71-.7,1.24-1.64,2.46-1.61.21,0,.43-.34.65-.53.69-.59,1.13-1.55,2.29-1.44.18.02.42-.24.59-.41.71-.71,1.47-1.22,2.41-1.68,1.36-.67,2.37-2.06,3.53-3.15.21.11.42.25.64.31,2.87.69,5.72.92,8.7.55,3.53-.44,6.56-1.83,8.92-4.35,2.66-2.85,4.46-6.23,4.93-10.2.16-1.31.51-2.6.77-3.9,1.62,1.38,2.66,1.15,4.1-.24,1.18-1.13,2.74-1.85,4.13-2.76.27-.17.62-.28.81-.51,1.14-1.39,2.93-1.67,4.36-2.56.25-.16.64-.11.96-.15.11,2.51.07,5.03.36,7.51.23,1.93.68,3.88,1.37,5.69.72,1.91,1.84,3.67,2.79,5.5.09.16.18.31.27.47,1.55,1.3,2.94,2.88,4.68,3.83,1.6.88,3.56,1.09,5.36,1.6.39.11.78.22,1.17.32Zm-25.61-5.74c-.53,1.12-1.07,2.24-1.58,3.37-.46,1.01-.75,2.12-1.34,3.04-.58.88-.51,1.5.29,2,.65.4,1.42.61,2.13.92.7.3,1.24.16,1.64-.52,1.39-2.33,2.81-4.63,4.17-6.97.53-.91.93-1.9,1.39-2.86.36.15.73.3,1.42.58-.08-.69.03-1.3-.22-1.59-.37-.43-.99-.63-1.51-.92-.16.38-.32.77-.47,1.15-.97-.49-1.96-.94-2.9-1.48-.72-.41-1.27-.26-1.72.36-.26.36-.44.77-.65,1.16-.32.19-.84.33-.92.6-.1.34.16.78.27,1.17Z"/>
      <path class="cls-15" d="m322.07,87.65c-.06-.64-.39-1.45-.12-1.88.55-.87,1.35-1.64,2.2-2.23.32-.22,1.08.21,1.65.34-1.24,1.25-2.48,2.51-3.73,3.76Z"/>
      <path class="cls-15" d="m318.57,94.57c-1.09-.99-1.05-1.54.08-2.36.21-.15.27-.61.26-.92-.05-.93.22-1.37,1.2-.94l-1.54,4.22Z"/>
      <path class="cls-15" d="m331.52,80.84c0-.08,0-.16-.01-.25-.02-.46-1.01-.93-.03-1.38.55-.25,1.61.46,1.79,1.13-.58.17-1.16.33-1.75.5Z"/>
      <path class="cls-20" d="m.05,158.99c.06.26.13.52.19.78-.06.26-.13.52-.19.78,0-.52,0-1.04,0-1.55Z"/>
      <path class="cls-15" d="m329.53,81.37c.17-.07.34-.14.51-.21-.04.07-.08.14-.11.21-.13,0-.27,0-.4,0Z"/>
      <path class="cls-13" d="m336.01,5.22c-.17-.24-.34-.48-.51-.72.17.24.34.48.51.72Z"/>
      <path class="cls-20" d="m0,11.18c.01.35.03.69.04,1.04-.01-.35-.03-.69-.04-1.04Z"/>
      <path class="cls-6" d="m333.53,80.16c.24-.04.48-.07.72-.11-.24.04-.48.07-.72.11Z"/>
      <path class="cls-6" d="m335.52,79.84c.24,0,.48-.02.73-.03-.24,0-.48.02-.73.03Z"/>
      <path class="cls-20" d="m.04,59.44c0,.19,0,.37,0,.56,0-.19,0-.37,0-.56Z"/>
      <path class="cls-20" d="m.05,150.03c0,.19,0,.37,0,.56,0-.19,0-.37,0-.56Z"/>
      <path class="cls-20" d="m.04,77.36c0,.19,0,.37,0,.56,0-.19,0-.37,0-.56Z"/>
      <path class="cls-20" d="m.04,79.35c0,.19,0,.37,0,.56,0-.19,0-.37,0-.56Z"/>
      <path class="cls-20" d="m.04,76.37c0,.19,0,.37,0,.56,0-.19,0-.37,0-.56Z"/>
      <path class="cls-20" d="m.04,75.37c0,.19,0,.37,0,.56,0-.19,0-.37,0-.56Z"/>
      <path class="cls-20" d="m.04,80.35c0,.19,0,.37,0,.56,0-.19,0-.37,0-.56Z"/>
      <path class="cls-20" d="m.04,74.38c0,.19,0,.37,0,.56,0-.19,0-.37,0-.56Z"/>
      <path class="cls-20" d="m.04,73.38c0,.19,0,.37,0,.56,0-.19,0-.37,0-.56Z"/>
      <path class="cls-20" d="m.04,81.34c0,.19,0,.37,0,.56,0-.19,0-.37,0-.56Z"/>
      <path class="cls-13" d="m329.53,81.37c.13,0,.27,0,.4,0-.13.07-.27.14-.4.21,0-.07,0-.14,0-.22Z"/>
      <path class="cls-20" d="m.05,128.13c0,.19,0,.37,0,.56,0-.19,0-.37,0-.56Z"/>
      <path class="cls-20" d="m.04,82.34c0,.19,0,.37,0,.56,0-.19,0-.37,0-.56Z"/>
      <path class="cls-20" d="m.04,72.38c0,.19,0,.37,0,.56,0-.19,0-.37,0-.56Z"/>
      <path class="cls-20" d="m.04,83.33c0,.19,0,.37,0,.56,0-.19,0-.37,0-.56Z"/>
      <path class="cls-20" d="m.04,71.39c0,.19,0,.37,0,.56,0-.19,0-.37,0-.56Z"/>
      <path class="cls-20" d="m.04,84.33c0,.19,0,.37,0,.56,0-.19,0-.37,0-.56Z"/>
      <path class="cls-20" d="m.04,85.33c0,.19,0,.37,0,.56,0-.19,0-.37,0-.56Z"/>
      <path class="cls-20" d="m.04,86.32c0,.19,0,.37,0,.56,0-.19,0-.37,0-.56Z"/>
      <path class="cls-20" d="m.04,87.32c0,.19,0,.37,0,.56,0-.19,0-.37,0-.56Z"/>
      <path class="cls-20" d="m.04,88.31c0,.19,0,.37,0,.56,0-.19,0-.37,0-.56Z"/>
      <path class="cls-20" d="m.04,89.31c0,.19,0,.37,0,.56,0-.19,0-.37,0-.56Z"/>
      <path class="cls-20" d="m.04,70.39c0,.19,0,.37,0,.56,0-.19,0-.37,0-.56Z"/>
      <path class="cls-20" d="m.06,186.86c0,.19,0,.37,0,.56,0-.19,0-.37,0-.56Z"/>
      <path class="cls-20" d="m.04,90.3c0,.19,0,.37,0,.56,0-.19,0-.37,0-.56Z"/>
      <path class="cls-20" d="m.04,91.3c0,.19,0,.37,0,.56,0-.19,0-.37,0-.56Z"/>
      <path class="cls-20" d="m.04,69.4c0,.19,0,.37,0,.56,0-.19,0-.37,0-.56Z"/>
      <path class="cls-20" d="m.05,185.86c0,.19,0,.37,0,.56,0-.19,0-.37,0-.56Z"/>
      <path class="cls-20" d="m.05,184.87c0,.19,0,.37,0,.56,0-.19,0-.37,0-.56Z"/>
      <path class="cls-20" d="m.04,92.29c0,.19,0,.37,0,.56,0-.19,0-.37,0-.56Z"/>
      <path class="cls-20" d="m.04,68.4c0,.19,0,.37,0,.56,0-.19,0-.37,0-.56Z"/>
      <path class="cls-20" d="m.05,183.87c0,.19,0,.37,0,.56,0-.19,0-.37,0-.56Z"/>
      <path class="cls-20" d="m.04,93.29c0,.19,0,.37,0,.56,0-.19,0-.37,0-.56Z"/>
      <path class="cls-20" d="m.05,182.88c0,.19,0,.37,0,.56,0-.19,0-.37,0-.56Z"/>
      <path class="cls-20" d="m.04,67.41c0,.19,0,.37,0,.56,0-.19,0-.37,0-.56Z"/>
      <path class="cls-20" d="m.04,66.41c0,.19,0,.37,0,.56,0-.19,0-.37,0-.56Z"/>
      <path class="cls-20" d="m.05,94.28c0,.19,0,.37,0,.56,0-.19,0-.37,0-.56Z"/>
      <path class="cls-20" d="m.03,12.66c0,.18,0,.37,0,.55,0-.18,0-.37,0-.55Z"/>
      <path class="cls-20" d="m.05,181.88c0,.19,0,.37,0,.56,0-.19,0-.37,0-.56Z"/>
      <path class="cls-20" d="m.05,95.28c0,.19,0,.37,0,.56,0-.19,0-.37,0-.56Z"/>
      <path class="cls-20" d="m.04,65.42c0,.19,0,.37,0,.56,0-.19,0-.37,0-.56Z"/>
      <path class="cls-20" d="m.05,180.88c0,.19,0,.37,0,.56,0-.19,0-.37,0-.56Z"/>
      <path class="cls-20" d="m.04,64.42c0,.19,0,.37,0,.56,0-.19,0-.37,0-.56Z"/>
      <path class="cls-20" d="m.05,179.89c0,.19,0,.37,0,.56,0-.19,0-.37,0-.56Z"/>
      <path class="cls-20" d="m.05,127.13c0,.19,0,.37,0,.56,0-.19,0-.37,0-.56Z"/>
      <path class="cls-20" d="m.05,98.27c0,.19,0,.37,0,.56,0-.19,0-.37,0-.56Z"/>
      <path class="cls-20" d="m.05,178.89c0,.19,0,.37,0,.56,0-.19,0-.37,0-.56Z"/>
      <path class="cls-20" d="m.05,99.26c0,.19,0,.37,0,.56,0-.19,0-.37,0-.56Z"/>
      <path class="cls-20" d="m.04,63.43c0,.19,0,.37,0,.56,0-.19,0-.37,0-.56Z"/>
      <path class="cls-20" d="m.05,100.26c0,.19,0,.37,0,.56,0-.19,0-.37,0-.56Z"/>
      <path class="cls-20" d="m.05,101.25c0,.19,0,.37,0,.56,0-.19,0-.37,0-.56Z"/>
      <path class="cls-20" d="m.04,62.43c0,.19,0,.37,0,.56,0-.19,0-.37,0-.56Z"/>
      <path class="cls-20" d="m.02,13.66c0,.18,0,.37,0,.55,0-.18,0-.37,0-.55Z"/>
      <path class="cls-20" d="m.05,102.25c0,.19,0,.37,0,.56,0-.19,0-.37,0-.56Z"/>
      <path class="cls-20" d="m.04,61.44c0,.19,0,.37,0,.56,0-.19,0-.37,0-.56Z"/>
      <path class="cls-20" d="m.04,60.44c0,.19,0,.37,0,.56,0-.19,0-.37,0-.56Z"/>
      <path class="cls-20" d="m.05,177.9c0,.19,0,.37,0,.56,0-.19,0-.37,0-.56Z"/>
      <path class="cls-20" d="m.05,103.24c0,.19,0,.37,0,.56,0-.19,0-.37,0-.56Z"/>
      <path class="cls-20" d="m.04,17.64c0,.19,0,.37,0,.56,0-.19,0-.37,0-.56Z"/>
      <path class="cls-20" d="m.05,176.9c0,.19,0,.37,0,.56,0-.19,0-.37,0-.56Z"/>
      <path class="cls-20" d="m.05,175.91c0,.19,0,.37,0,.56,0-.19,0-.37,0-.56Z"/>
      <path class="cls-20" d="m.05,174.91c0,.19,0,.37,0,.56,0-.19,0-.37,0-.56Z"/>
      <path class="cls-20" d="m.05,173.92c0,.19,0,.37,0,.56,0-.19,0-.37,0-.56Z"/>
      <path class="cls-20" d="m.05,172.92c0,.19,0,.37,0,.56,0-.19,0-.37,0-.56Z"/>
      <path class="cls-20" d="m.04,16.64c0,.19,0,.37,0,.56,0-.19,0-.37,0-.56Z"/>
      <path class="cls-20" d="m.04,15.65c0,.19,0,.37,0,.56,0-.19,0-.37,0-.56Z"/>
      <path class="cls-20" d="m.05,104.24c0,.19,0,.37,0,.56,0-.19,0-.37,0-.56Z"/>
      <path class="cls-20" d="m.05,105.23c0,.19,0,.37,0,.56,0-.19,0-.37,0-.56Z"/>
      <path class="cls-20" d="m.05,171.93c0,.19,0,.37,0,.56,0-.19,0-.37,0-.56Z"/>
      <path class="cls-20" d="m.05,170.93c0,.19,0,.37,0,.56,0-.19,0-.37,0-.56Z"/>
      <path class="cls-20" d="m.05,106.23c0,.19,0,.37,0,.56,0-.19,0-.37,0-.56Z"/>
      <path class="cls-20" d="m.05,107.22c0,.19,0,.37,0,.56,0-.19,0-.37,0-.56Z"/>
      <path class="cls-20" d="m.04,108.22c0,.19,0,.37,0,.56,0-.19,0-.37,0-.56Z"/>
      <path class="cls-20" d="m.04,58.45c0,.19,0,.37,0,.56,0-.19,0-.37,0-.56Z"/>
      <path class="cls-20" d="m.04,109.22c0,.19,0,.37,0,.56,0-.19,0-.37,0-.56Z"/>
      <path class="cls-20" d="m.05,169.94c0,.19,0,.37,0,.56,0-.19,0-.37,0-.56Z"/>
      <path class="cls-20" d="m.04,57.45c0,.19,0,.37,0,.56,0-.19,0-.37,0-.56Z"/>
      <path class="cls-20" d="m.04,110.21c0,.19,0,.37,0,.56,0-.19,0-.37,0-.56Z"/>
      <path class="cls-20" d="m.04,56.46c0,.19,0,.37,0,.56,0-.19,0-.37,0-.56Z"/>
      <path class="cls-20" d="m.05,168.94c0,.19,0,.37,0,.56,0-.19,0-.37,0-.56Z"/>
      <path class="cls-20" d="m.04,55.46c0,.19,0,.37,0,.56,0-.19,0-.37,0-.56Z"/>
      <path class="cls-20" d="m.05,167.94c0,.19,0,.37,0,.56,0-.19,0-.37,0-.56Z"/>
      <path class="cls-20" d="m.05,166.95c0,.19,0,.37,0,.56,0-.19,0-.37,0-.56Z"/>
      <path class="cls-20" d="m.04,111.21c0,.19,0,.37,0,.56,0-.19,0-.37,0-.56Z"/>
      <path class="cls-20" d="m.04,54.47c0,.19,0,.37,0,.56,0-.19,0-.37,0-.56Z"/>
      <path class="cls-20" d="m.04,112.2c0,.19,0,.37,0,.56,0-.19,0-.37,0-.56Z"/>
      <path class="cls-20" d="m.05,165.95c0,.19,0,.37,0,.56,0-.19,0-.37,0-.56Z"/>
      <path class="cls-20" d="m.05,164.96c0,.19,0,.37,0,.56,0-.19,0-.37,0-.56Z"/>
      <path class="cls-20" d="m.04,53.47c0,.19,0,.37,0,.56,0-.19,0-.37,0-.56Z"/>
      <path class="cls-20" d="m.05,113.2c0,.19,0,.37,0,.56,0-.19,0-.37,0-.56Z"/>
      <path class="cls-20" d="m.05,163.96c0,.19,0,.37,0,.56,0-.19,0-.37,0-.56Z"/>
      <path class="cls-20" d="m.04,114.19c0,.19,0,.37,0,.56,0-.19,0-.37,0-.56Z"/>
      <path class="cls-20" d="m.05,162.97c0,.19,0,.37,0,.56,0-.19,0-.37,0-.56Z"/>
      <path class="cls-20" d="m.04,52.48c0,.19,0,.37,0,.56,0-.19,0-.37,0-.56Z"/>
      <path class="cls-20" d="m.05,161.97c0,.19,0,.37,0,.56,0-.19,0-.37,0-.56Z"/>
      <path class="cls-20" d="m.04,115.19c0,.19,0,.37,0,.56,0-.19,0-.37,0-.56Z"/>
      <path class="cls-20" d="m.04,51.48c0,.19,0,.37,0,.56,0-.19,0-.37,0-.56Z"/>
      <path class="cls-20" d="m.04,50.49c0,.19,0,.37,0,.56,0-.19,0-.37,0-.56Z"/>
      <path class="cls-20" d="m.04,116.18c0,.19,0,.37,0,.56,0-.19,0-.37,0-.56Z"/>
      <path class="cls-20" d="m.05,160.98c0,.19,0,.37,0,.56,0-.19,0-.37,0-.56Z"/>
      <path class="cls-20" d="m.05,117.18c0,.19,0,.37-.01.56,0-.19,0-.37.01-.56Z"/>
      <path class="cls-20" d="m.04,49.49c0,.19,0,.37,0,.56,0-.19,0-.37,0-.56Z"/>
      <path class="cls-20" d="m.04,118.18c0,.19,0,.37,0,.56,0-.19,0-.37,0-.56Z"/>
      <path class="cls-20" d="m.04,48.49c0,.19,0,.37,0,.56,0-.19,0-.37,0-.56Z"/>
      <path class="cls-20" d="m.04,119.17c0,.19,0,.37,0,.56,0-.19,0-.37,0-.56Z"/>
      <path class="cls-20" d="m.04,47.5c0,.19,0,.37,0,.56,0-.19,0-.37,0-.56Z"/>
      <path class="cls-20" d="m.04,78.36c0,.19,0,.37,0,.56,0-.19,0-.37,0-.56Z"/>
      <path class="cls-20" d="m.05,120.17c0,.19,0,.37,0,.56,0-.19,0-.37,0-.56Z"/>
      <path class="cls-20" d="m.04,46.5c0,.19,0,.37,0,.56,0-.19,0-.37,0-.56Z"/>
      <path class="cls-20" d="m.04,45.51c0,.19,0,.37,0,.56,0-.19,0-.37,0-.56Z"/>
      <path class="cls-20" d="m.05,121.16c0,.19,0,.37,0,.56,0-.19,0-.37,0-.56Z"/>
      <path class="cls-20" d="m.04,44.51c0,.19,0,.37,0,.56,0-.19,0-.37,0-.56Z"/>
      <path class="cls-20" d="m.05,122.16c0,.19,0,.37,0,.56,0-.19,0-.37,0-.56Z"/>
      <path class="cls-20" d="m.04,43.52c0,.19,0,.37,0,.56,0-.19,0-.37,0-.56Z"/>
      <path class="cls-20" d="m.05,97.27c0,.19,0,.37,0,.56,0-.19,0-.37,0-.56Z"/>
      <path class="cls-20" d="m.04,42.52c0,.19,0,.37,0,.56,0-.19,0-.37,0-.56Z"/>
      <path class="cls-20" d="m.04,41.53c0,.19,0,.37,0,.56,0-.19,0-.37,0-.56Z"/>
      <path class="cls-20" d="m.04,40.53c0,.19,0,.37,0,.56,0-.19,0-.37,0-.56Z"/>
      <path class="cls-20" d="m.05,123.15c0,.19,0,.37,0,.56,0-.19,0-.37,0-.56Z"/>
      <path class="cls-20" d="m.04,39.54c0,.19,0,.37,0,.56,0-.19,0-.37,0-.56Z"/>
      <path class="cls-20" d="m.04,38.54c0,.19,0,.37,0,.56,0-.19,0-.37,0-.56Z"/>
      <path class="cls-20" d="m.05,124.15c0,.19,0,.37,0,.56,0-.19,0-.37,0-.56Z"/>
      <path class="cls-20" d="m.05,125.14c0,.19,0,.37,0,.56,0-.19,0-.37,0-.56Z"/>
      <path class="cls-20" d="m.05,126.14c0,.19,0,.37,0,.56,0-.19,0-.37,0-.56Z"/>
      <path class="cls-20" d="m.1,187.86c.02.19.04.38.05.57-.02-.19-.04-.38-.05-.57Z"/>
      <path class="cls-20" d="m.04,37.55c0,.19,0,.37,0,.56,0-.19,0-.37,0-.56Z"/>
      <path class="cls-20" d="m.04,36.55c0,.19,0,.37,0,.56,0-.19,0-.37,0-.56Z"/>
      <path class="cls-20" d="m.04,35.55c0,.19,0,.37,0,.56,0-.19,0-.37,0-.56Z"/>
      <path class="cls-20" d="m.05,129.12c0,.19,0,.37,0,.56,0-.19,0-.37,0-.56Z"/>
      <path class="cls-20" d="m.05,130.12c0,.19,0,.37,0,.56,0-.19,0-.37,0-.56Z"/>
      <path class="cls-20" d="m.05,131.12c0,.19,0,.37,0,.56,0-.19,0-.37,0-.56Z"/>
      <path class="cls-20" d="m.04,34.56c0,.19,0,.37,0,.56,0-.19,0-.37,0-.56Z"/>
      <path class="cls-20" d="m.05,132.11c0,.19,0,.37,0,.56,0-.19,0-.37,0-.56Z"/>
      <path class="cls-20" d="m.04,33.56c0,.19,0,.37,0,.56,0-.19,0-.37,0-.56Z"/>
      <path class="cls-20" d="m.05,133.11c0,.19,0,.37,0,.56,0-.19,0-.37,0-.56Z"/>
      <path class="cls-20" d="m.05,134.1c0,.19,0,.37,0,.56,0-.19,0-.37,0-.56Z"/>
      <path class="cls-20" d="m.04,32.57c0,.19,0,.37,0,.56,0-.19,0-.37,0-.56Z"/>
      <path class="cls-20" d="m.05,135.1c0,.19,0,.37,0,.56,0-.19,0-.37,0-.56Z"/>
      <path class="cls-20" d="m.04,31.57c0,.19,0,.37,0,.56,0-.19,0-.37,0-.56Z"/>
      <path class="cls-20" d="m.04,136.09c0,.19,0,.37,0,.56,0-.19,0-.37,0-.56Z"/>
      <path class="cls-20" d="m.04,30.58c0,.19,0,.37,0,.56,0-.19,0-.37,0-.56Z"/>
      <path class="cls-20" d="m.04,29.58c0,.19,0,.37,0,.56,0-.19,0-.37,0-.56Z"/>
      <path class="cls-20" d="m.04,137.09c0,.19,0,.37,0,.56,0-.19,0-.37,0-.56Z"/>
      <path class="cls-20" d="m.04,28.59c0,.19,0,.37,0,.56,0-.19,0-.37,0-.56Z"/>
      <path class="cls-20" d="m.04,138.08c0,.19,0,.37,0,.56,0-.19,0-.37,0-.56Z"/>
      <path class="cls-20" d="m.04,27.59c0,.19,0,.37,0,.56,0-.19,0-.37,0-.56Z"/>
      <path class="cls-20" d="m.04,139.08c0,.19,0,.37,0,.56,0-.19,0-.37,0-.56Z"/>
      <path class="cls-20" d="m.05,157.99c0,.19,0,.37,0,.56,0-.19,0-.37,0-.56Z"/>
      <path class="cls-20" d="m.05,157c0,.19,0,.37,0,.56,0-.19,0-.37,0-.56Z"/>
      <path class="cls-20" d="m.04,26.6c0,.19,0,.37,0,.56,0-.19,0-.37,0-.56Z"/>
      <path class="cls-20" d="m.05,156c0,.19,0,.37,0,.56,0-.19,0-.37,0-.56Z"/>
      <path class="cls-20" d="m.04,140.07c0,.19,0,.37,0,.56,0-.19,0-.37,0-.56Z"/>
      <path class="cls-20" d="m.05,155.01c0,.19,0,.37,0,.56,0-.19,0-.37,0-.56Z"/>
      <path class="cls-20" d="m.04,25.6c0,.19,0,.37,0,.56,0-.19,0-.37,0-.56Z"/>
      <path class="cls-20" d="m.05,141.07c0,.19,0,.37,0,.56,0-.19,0-.37,0-.56Z"/>
      <path class="cls-20" d="m.04,24.6c0,.19,0,.37,0,.56,0-.19,0-.37,0-.56Z"/>
      <path class="cls-20" d="m.04,23.61c0,.19,0,.37,0,.56,0-.19,0-.37,0-.56Z"/>
      <path class="cls-20" d="m.05,154.01c0,.19,0,.37,0,.56,0-.19,0-.37,0-.56Z"/>
      <path class="cls-20" d="m.05,142.06c0,.19,0,.37,0,.56,0-.19,0-.37,0-.56Z"/>
      <path class="cls-20" d="m.05,153.01c0,.19,0,.37,0,.56,0-.19,0-.37,0-.56Z"/>
      <path class="cls-20" d="m.04,22.61c0,.19,0,.37,0,.56,0-.19,0-.37,0-.56Z"/>
      <path class="cls-20" d="m.05,152.02c0,.19,0,.37,0,.56,0-.19,0-.37,0-.56Z"/>
      <path class="cls-20" d="m.05,151.02c0,.19,0,.37,0,.56,0-.19,0-.37,0-.56Z"/>
      <path class="cls-20" d="m.05,143.06c0,.19,0,.37,0,.56,0-.19,0-.37,0-.56Z"/>
      <path class="cls-20" d="m.04,21.62c0,.19,0,.37,0,.56,0-.19,0-.37,0-.56Z"/>
      <path class="cls-20" d="m.04,20.62c0,.19,0,.37,0,.56,0-.19,0-.37,0-.56Z"/>
      <path class="cls-20" d="m.04,19.63c0,.19,0,.37,0,.56,0-.19,0-.37,0-.56Z"/>
      <path class="cls-20" d="m.04,18.63c0,.19,0,.37,0,.56,0-.19,0-.37,0-.56Z"/>
      <path class="cls-20" d="m.05,144.06c0,.19,0,.37,0,.56,0-.19,0-.37,0-.56Z"/>
      <path class="cls-20" d="m.04,14.65c0,.19,0,.37,0,.56,0-.19,0-.37,0-.56Z"/>
      <path class="cls-20" d="m.05,145.05c0,.19,0,.37,0,.56,0-.19,0-.37,0-.56Z"/>
      <path class="cls-20" d="m.05,146.05c0,.19,0,.37,0,.56,0-.19,0-.37,0-.56Z"/>
      <path class="cls-20" d="m.05,147.04c0,.19,0,.37,0,.56,0-.19,0-.37,0-.56Z"/>
      <path class="cls-20" d="m.05,148.04c0,.19,0,.37,0,.56,0-.19,0-.37,0-.56Z"/>
      <path class="cls-20" d="m.05,149.03c0,.19,0,.37,0,.56,0-.19,0-.37,0-.56Z"/>
      <path class="cls-20" d="m.05,96.28c0,.19,0,.37,0,.56,0-.19,0-.37,0-.56Z"/>
      <path class="cls-15" d="m320.31,90.27c.06-.06.11-.12.17-.18-.06.06-.11.12-.17.18Z"/>
      <path class="cls-13" d="m329.03,81.84c.11-.06.21-.12.32-.19-.11.06-.21.12-.32.19Z"/>
      <path class="cls-26" d="m77.74,76.69c-8.3-.01-16.61-.03-24.91-.04-3.94,0-7.88,0-11.9,0v-37.75h37.81c0,.43,0,.87,0,1.31,0,11.48,0,22.97,0,34.45,0,.5.03.99.04,1.49-.35.18-.69.36-1.04.54Zm-14.73-27.45c-.05.26-.11.52-.16.78v.74c0,.17,0,.34.01.51,0,.16,0,.32,0,.49,0,.09,0,.17-.01.26,0,.25,0,.49-.01.74v.26c0,.25,0,.5,0,.74,0,.08,0,.17,0,.25,0,.25.01.49.02.74,0,.09,0,.18.01.26,0,.16.02.33.03.49l-.39,2.06c-1.42-2.08-2.99-4.08-4.2-6.28-1-1.81-2.22-2.59-4.26-2.27-1.15.18-2.33.17-3.49.25-.06.25-.13.51-.19.76,0,.16,0,.32,0,.49.01,4.49.02,8.97.03,13.46,0,.16,0,.32,0,.48.05.6.09,1.2.14,1.8.09.07.19.18.28.19,1.62.1,3.24.2,4.86.24.3,0,.61-.29.92-.45.05-.18.1-.35.14-.53l-.02-1.2c0-.11,0-.22,0-.33l-.06-3.64c0-.11,0-.23,0-.34,0-.22,0-.43,0-.65.04-.35.07-.7.11-1.05.04-.2.08-.39.15-.77.38.49.67.83.92,1.2,1.42,2.14,2.85,4.27,4.24,6.42.53.82,1.12,1.28,2.2,1.15,1.14-.14,2.32-.08,3.48,0,1.2.08,1.56-.41,1.55-1.59-.05-4.93-.01-9.85-.01-14.78,0-.27-.07-.54-.1-.7-1.66-.13-3.22-.27-4.77-.35-.46-.02-.93.13-1.4.2Z"/>
      <path class="cls-18" d="m142.55,144.87c-.39-.11-.78-.22-1.17-.32-1.8-.51-3.77-.72-5.36-1.6-1.74-.96-3.13-2.53-4.68-3.83-.09-.16-.18-.31-.27-.47-.95-1.83-2.07-3.59-2.79-5.5-.69-1.81-1.14-3.77-1.37-5.69-.29-2.48-.26-5.01-.36-7.51.01-1.73-.02-3.47.05-5.2.21-5.31,1.07-10.48,4.39-14.82,1.66-2.17,3.66-4.11,6.39-5.04.41-.14.79-.4,1.18-.61.25-.07.5-.14.75-.21,0,0,0,0,0,0,.58-.1,1.16-.19,1.74-.29,1.26-.07,2.53-.16,3.79-.21,1.99-.08,3.88.36,5.75,1.03,2.6.93,4.62,2.63,6.56,4.48,1.82,2.39,3.33,4.98,3.97,7.92.58,2.7.79,5.47,1.17,8.21,0,2.74,0,5.49-.01,8.23-.35,3.73-.73,7.45-2.24,10.94-1.41,3.94-3.92,7.08-7.68,8.81-2.19,1.01-4.78,1.17-7.21,1.62-.84.16-1.73.05-2.6.06Zm-6-29.68c-.06,2.58-.12,5.17-.18,7.75.07.47.14.95.2,1.42.32,2.51.68,4.99,1.85,7.29,1.51,2.98,4.28,4.56,7.44,3.92,2.34-.47,3.65-2.26,4.63-4.3,1.69-3.54,1.58-7.41,1.97-11.17.2-1.96-.25-3.98-.42-5.98-.21-2.48-.31-4.96-1.5-7.26-1.16-2.24-2.73-3.98-5.32-4.31-2.87-.36-5.09.88-6.51,3.36-1.63,2.86-1.97,6.06-2.17,9.27Z"/>
      <path class="cls-18" d="m112.19,126.17c-.26,1.3-.61,2.59-.77,3.9-.48,3.98-2.27,7.36-4.93,10.2-2.36,2.52-5.39,3.91-8.92,4.35-2.98.37-5.83.13-8.7-.55-.23-.05-.43-.2-.64-.31-1.48-.78-3.03-1.45-4.42-2.37-.86-.56-1.59-1.41-2.19-2.26-2.31-3.26-3.87-6.88-4.53-10.82-.3-1.77-.3-3.6-.33-5.4-.05-3.1-.07-6.21.01-9.31.03-1.32.34-2.64.52-3.96.05-.13.09-.26.14-.39.33-3.38,1.61-6.41,3.58-9.12,2.65-3.64,6.17-5.82,10.75-6.35,2.82-.33,5.54-.04,8.22.7,4.49,1.23,7.6,4.16,9.64,8.22,1.62,3.23,2.43,6.71,2.54,10.33.02.64.18,1.28.27,1.93,0,2.82,0,5.65,0,8.47-.08.91-.15,1.82-.23,2.73Zm-25.49-2.72c.1,2.84.54,5.62,1.86,8.17,1.67,3.24,4.86,5.04,8.22,3.73,1.92-.75,3.06-2.33,3.89-4.16,1.59-3.51,1.56-7.32,1.93-11.03.2-1.96-.25-3.99-.42-5.99-.22-2.48-.28-4.97-1.48-7.27-1.17-2.24-2.73-4-5.32-4.33-2.87-.37-5.08.87-6.52,3.36-1.61,2.79-1.91,5.92-2.15,9.05,0,2.83,0,5.65,0,8.48Z"/>
      <path class="cls-9" d="m66.24,140.37c0,.61-.05,1.23-.02,1.84.04.72-.12,1.15-.97,1.14-2.97-.03-5.95-.03-8.92-.03-.02-.33-.06-.66-.06-.99,0-11.58.02-23.15.02-34.73,0-.53-.06-1.07-.09-1.6,0-.15,0-.31-.01-.46,0-.1-.01-.2-.02-.29,0-.24,0-.47.01-.71.02-.17.05-.33.07-.5.08-.62-.16-.87-.79-.67-.12,0-.25,0-.37-.01-.11,0-.21.01-.32.02-.57.02-1.14.05-1.71.07-.1,0-.19,0-.29,0,0,0,.02.08.02.08-.24-.02-.49-.05-.73-.07-.09,0-.19,0-.28,0-.57,0-1.14,0-1.71,0-.1,0-.19,0-.29,0-.24,0-.47,0-.71,0-.09,0-.19,0-.28,0-.32,0-.65,0-.97,0-.42,0-.84-.01-1.26-.02-1.5-.23-.37-.9-.24-1.41.24-.34.48-.67.72-1.01.44-.66.88-1.31,1.31-1.97.7-1.01,1.49-1.98,2.08-3.05.48-.87,1.03-1.23,2.05-1.22,4.01.04,8.03,0,12.04-.02.51.17,1.02.33,1.54.5.01.11.03.23.04.34,0,.14,0,.27,0,.41-.03.24-.1.49-.1.73,0,14.15,0,28.3.03,42.44,0,.39.14.79.21,1.18Z"/>
      <path class="cls-5" d="m93.65,66.94c.01-6.75.03-13.5.04-20.25,0-.58,0-1.15,0-1.9,3.9.12,7.78-.4,11.58.62,1.83.5,3.05,1.76,3.83,3.45.04.22.08.44.11.66.08.41.16.82.24,1.23,0,.33,0,.67-.01,1,0,.66,0,1.33,0,1.99-.08.17-.17.33-.25.5-.4,1.79-1.61,2.95-3.05,3.94-1,.28-1.99.56-2.99.85-.25.06-.5.13-.75.19-1.33.02-2.65.03-3.98.05-.52.15-1.04.29-1.56.44-.01.09-.03.19-.04.28,0,.24-.01.48-.02.71.02,1.75.04,3.5.07,5.26,0,.16,0,.31.01.47,0,.17,0,.35,0,.52,0,.16,0,.32,0,.47-.06.1-.11.2-.17.3-.35.23-.7.45-1.05.68-.33.03-.67.05-1,.08-.31-.07-.63-.14-.94-.2-.03-.45-.06-.89-.09-1.34Zm3.32-19.13c-.1.21-.28.41-.29.62-.02,2.39-.03,4.78,0,7.16,0,.21.19.41.28.61,1.38.09,2.77.32,4.14.25,3.69-.2,4.91-1.36,5.13-4.67.15-2.24-.59-3.41-2.87-3.73-2.1-.29-4.26-.18-6.39-.24Z"/>
      <path class="cls-23" d="m119.86,50.21c.66.11,1.31.22,1.97.32.18.07.35.14.53.21.23.1.46.21.69.31.58.5,1.15.99,1.73,1.49.2.32.39.65.59.97.18,1.49.35,2.98.53,4.47,0,.25,0,.51,0,.76,0,1.41,0,2.81,0,4.22,0,.25,0,.51,0,.76-.05.08-.05.16,0,.24,0,.25,0,.51,0,.76,0,.82,0,1.65,0,2.47,0,.17,0,.34.01.52-.05.07-.06.15-.02.24-1.24,1.1-2.8.67-3.49-1.06-1.36,1.38-3.05,1.9-4.91,1.81-2.2-.11-4.06-.9-5.13-2.98-.07-.09-.14-.17-.21-.26,0,0,0,0,0,0-.08-.25-.17-.5-.25-.75-.02-.33-.03-.66-.05-.99,0-.41,0-.83,0-1.24.12-.57.24-1.14.36-1.72.24-.41.48-.82.72-1.24,0,0-.02.01-.02.01.09-.09.18-.18.27-.28,1.15-.94,2.41-1.59,3.95-1.55.42,0,.83,0,1.25,0,1,0,1.99,0,2.99,0,.41-.1.81-.2,1.27-.31-.12-1.27.35-2.61-.98-3.47-2.03-1.17-4.03-.9-6.02.14-.25.15-.5.3-.75.46-.24.08-.47.15-.71.23-.34-.41-.69-.83-1.03-1.24-.06-.13-.12-.26-.18-.39.16-.44.33-.88.49-1.31.72-.35,1.45-.7,2.17-1.05.41-.09.83-.19,1.24-.28.51-.08,1.01-.16,1.52-.25.16,0,.32-.01.47-.02.26,0,.52,0,.77,0,0,0,.11.04.11.04,0,0,.12-.03.12-.03Zm2.64,9.91c-1.79.12-3.51.23-5.23.36-1.45.11-2.37,1.03-2.16,3.2.1,1.01,1.28,1.98,2.54,2.02,3.66.12,5.27-1.64,4.84-5.58Z"/>
      <path class="cls-22" d="m140.82,61.46c-.32.75-.64,1.5-.96,2.25,0,.16-.02.33-.03.49-.17.41-.35.82-.52,1.23-.09.25-.18.5-.28.75-.25.79-.5,1.57-.75,2.36-.08.13-.16.25-.24.38,0,0,0-.01,0-.01-.11.33-.23.66-.34.99-.63,1.61-1.27,3.21-1.88,4.83-.3.81-.9,1.01-1.58.69-.75-.34-2.18-.23-1.5-1.81.4-.95.73-1.93,1.1-2.9.2-.39.39-.79.59-1.18,0,0,0-.01,0-.01.04-.11.07-.22.11-.33.19-1.45-.32-2.66-1.22-3.78-.21-.27-.11-.77-.23-1.14-.57-1.73-1.15-3.45-1.74-5.17-.84-2.45-1.7-4.89-2.55-7.33.2-.4-.76-1.07.3-1.28.34,0,.67-.01,1.01-.02.49,0,.99.02,1.48.03.32.55.75,1.06.94,1.65.9,2.77,1.74,5.55,2.6,8.33.14.29.28.58.42.87.24.86.47,1.71.72,2.61.94-.71,1.92-3.93,1.7-4.77.36-.63.73-1.03.82-1.48.17-.87.36-1.71.74-2.54.28-.6.12-1.38.36-2,.35-.9.88-1.72,1.37-2.65.68,0,1.49-.04,2.3.02.28.02.53.32.8.49-.02.24-.04.49-.06.73,0,0,0,0,0,0-.08.25-.16.49-.25.74,0,0,0,0,0,0-.08.25-.16.5-.25.74,0,0,0,0,0,0-.04.08-.08.15-.12.23-.04.08-.09.17-.13.25-.09.25-.18.5-.27.76-.08.3-.17.59-.25.89-.07.2-.14.41-.21.61-.24.5-.47,1-.71,1.5-.04.24-.07.48-.11.71,0,0,.02-.02.02-.02-.16.35-.32.69-.48,1.04-.14.34-.28.67-.43,1.01-.02.16-.05.32-.07.48,0,0,.01-.01.01-.01-.07.26-.15.51-.22.77Z"/>
      <path class="cls-8" d="m129.09,50.49c-1.06.2-.1.87-.3,1.28-.39.27-.78.54-1.26.86-.79-1.2-1.8-.03-2.76-.09-.58-.5-1.15-.99-1.73-1.49.37-.84-.54-1.88-1.79-2.02-.9-.1-1.81-.13-2.7-.27-.41-.06-.8-.31-1.2-.47.03-.13.07-.27.1-.4.46,0,.92-.02,1.37,0,.41.02.85.22,1.22.12,1.42-.39,2.44.49,3.55,1.03.94.46,1.78,1.11,2.71,1.59.15.08.53-.33.82-.5.46-.28.92-.55,1.37-.83.2.4.4.79.6,1.19Z"/>
      <path class="cls-8" d="m64.17,93.19c-.87.06-1.73.16-2.6.18-2.56.06-5.13.1-7.69.14-.16,0-.34.09-.49.05-.36-.1-.7-.26-1.05-.39.27-.25.5-.66.81-.73,1.28-.26,2.58-.52,3.88-.59,1.82-.1,3.66-.08,5.48,0,.6.03,1.18.42,1.78.65-.04.23-.08.45-.11.68Z"/>
      <path class="cls-8" d="m96.81,60.71c0-.24.01-.48.02-.71.01-.09.03-.19.04-.28.52-.15,1.04-.29,1.56-.44-.08,1.5-.26,3-.21,4.49.04,1.13.37,2.25.56,3.38.06.38.08.77.09.85-.75.36-1.32.55-1.79.87-.72.5-1.02-.05-1.41-.45.35-.23.7-.45,1.05-.68.06-.1.11-.2.17-.3,0-.16,0-.32,0-.47,0-.17,0-.35,0-.52,0-.16,0-.31-.01-.47-.02-1.75-.04-3.5-.07-5.26Z"/>
      <path class="cls-8" d="m47.83,103.45c.32,0,.65,0,.97,0,.09,0,.19,0,.28,0,.24,0,.47,0,.71,0,.1,0,.19,0,.29,0,.57,0,1.14,0,1.71,0,.09,0,.19,0,.28,0,.24.02.49.05.73.07-.41,1-1.06,1.57-2.23,1.8-1.42.28-2.79.64-4.22.18-.32-.1-.64-.24-1.22-.45.71-.31,1.14-.5,1.72-.75-.77-.48-1.87-.66-1.48-1.8.08-.24.62-.32.95-.47-.13.5-1.26,1.18.24,1.41.42,0,.84.01,1.26.02Z"/>
      <path class="cls-24" d="m66.24,140.37c-.07-.39-.21-.79-.21-1.18-.02-14.15-.02-28.3-.03-42.44,0-.24.06-.49.1-.73.05.41.14.81.14,1.22.01,14.26.02,28.51.03,42.77,0,.12-.02.25-.04.37Z"/>
      <path class="cls-10" d="m56.21,105.99c.03.53.09,1.07.09,1.6,0,11.58-.01,23.15-.02,34.73,0,.33.04.66.06.99-.1-.33-.3-.67-.3-1,0-11.79,0-23.58.02-35.37,0-.32.1-.64.15-.96Z"/>
      <path class="cls-8" d="m106.14,58.19c1.44-.98,2.66-2.14,3.05-3.94.4.38.81.75,1.01.94-.27.9-.47,1.57-.67,2.24-.27.92-1.62,1.96-2.59,2.03-1.08.07-.71-.74-.81-1.28Z"/>
      <path class="cls-8" d="m113.45,51.79c-.16.44-.33.88-.49,1.31-.19.94-.95.72-1.48.57-.27-.08-.49-.66-.57-1.04-.1-.47-.02-.97-.02-1.36.76-.15,1.37-.26,2.02-.39.11.18.32.55.54.91Z"/>
      <path class="cls-8" d="m125.89,57.98c-.18-1.49-.35-2.98-.53-4.47.49-.06.97-.12,1.73-.21-.37,1.63-.05,3.3-1.2,4.68Z"/>
      <path class="cls-8" d="m121.65,53.91c1.34.86.86,2.21.98,3.47-.45.11-.86.21-1.27.31-.03-.28.04-.63-.11-.82-.51-.67-.45-1.2.12-1.82.23-.25.19-.75.28-1.14Z"/>
      <path class="cls-8" d="m116.87,50.46c-.41.09-.83.19-1.24.28-.52-.57-1.09-1.1-1.54-1.72-.14-.19.06-.62.1-.93.24.15.51.27.72.44.25.2.45.65.68.66.9,0,1.02.69,1.29,1.27Z"/>
      <path class="cls-8" d="m132.42,49.31c-.66-.1-1.34-.13-1.98-.31-.38-.11-.77-.4-1-.73-.1-.14.17-.81.29-.81.35-.01.75.12,1.07.31.66.39,1.27.85,1.9,1.29-.09.08-.18.16-.28.25Z"/>
      <path class="cls-8" d="m66.07,95.27c-.51-.17-1.02-.33-1.54-.5.26-.1.52-.2.51-.2.38-.61.63-1.02.89-1.43.31.2.74.33.89.62.35.65.27,1.26-.55,1.56-.07-.02-.13-.04-.2-.04Z"/>
      <path class="cls-8" d="m118.37,57.69c-.42,0-.83,0-1.25,0,.05-.71.11-1.41.16-2.12,1.57.29,1.66.49,1.09,2.12Z"/>
      <path class="cls-8" d="m48.36,99.06c-.44.66-.88,1.31-1.31,1.97-.26-.58-.51-1.16-.87-1.97h2.18Z"/>
      <path class="cls-19" d="m112.42,123.44c0-2.82,0-5.65,0-8.47.08,1.93.18,3.86.21,5.79.01.89-.13,1.79-.21,2.68Z"/>
      <path class="cls-8" d="m109.45,53.75c0-.66,0-1.33,0-1.99.81-.02,1.02.57.91,1.14-.07.33-.58.57-.9.85Z"/>
      <path class="cls-8" d="m93.71,70.33c.4-.29.62-.56.86-.58.18-.01.39.3.58.47-.2.21-.38.51-.62.6-.14.05-.41-.23-.81-.49Z"/>
      <path class="cls-8" d="m112.93,59.51c-.24.41-.48.82-.72,1.24-.27-.22-.54-.44-.82-.66.01-.13.02-.26.04-.4.5-.06,1-.12,1.5-.18Z"/>
      <path class="cls-8" d="m105.2,60.76c-.33-.12-.66-.24-.99-.36l.24-.61c.31.18.63.35.94.53-.06.15-.13.3-.19.45Z"/>
      <path class="cls-8" d="m125.89,62.95c0-1.41,0-2.81,0-4.22,0,1.41,0,2.81,0,4.22Z"/>
      <path class="cls-8" d="m49.05,95.41c0,.33.02.66-.02.98,0,.04-.35.04-.54.05v-1.03c.19,0,.37,0,.56,0Z"/>
      <path class="cls-8" d="m113.14,53.49c.34.41.69.83,1.03,1.24-.65.65-1.01.52-1.04-.4,0-.28,0-.56,0-.83Z"/>
      <path class="cls-16" d="m141.06,93.79c-.58.1-1.16.19-1.74.29.64-.75,1.14-.83,1.74-.29Z"/>
      <path class="cls-8" d="m111.85,62.46c0,.41,0,.83,0,1.24-.23-.29-.45-.59-.68-.88.23-.12.45-.24.68-.36Z"/>
      <path class="cls-12" d="m134.44,69.53c-.2.39-.39.79-.59,1.18-.27-.63-.55-1.26.59-1.18Z"/>
      <path class="cls-8" d="m43.88,102.72c-.07-.25-.13-.5-.2-.75.15-.03.41-.11.42-.09.1.23.15.47.21.71l-.43.13Z"/>
      <path class="cls-8" d="m45.83,100.16h-1.13c-.09-.12-.17-.23-.26-.35.19-.06.39-.2.56-.17.19.03.35.21.82.51Z"/>
      <path class="cls-8" d="m125.91,67.18c0-.82,0-1.65,0-2.47,0,.82,0,1.65,0,2.47Z"/>
      <path class="cls-8" d="m49.82,92.6c.15.14.3.28.45.41l-.36.37c-.03-.26-.06-.52-.09-.78Z"/>
      <path class="cls-8" d="m109.45,50.76c-.08-.41-.16-.82-.24-1.23.08.41.16.82.24,1.23Z"/>
      <path class="cls-4" d="m55.48,103.36c.62-.2.86.06.79.67-.08-.02-.16-.02-.24,0-.18-.22-.37-.44-.55-.67Z"/>
      <path class="cls-8" d="m131.58,50.49c-.49,0-.99-.02-1.48-.03.49,0,.99.02,1.48.03Z"/>
      <path class="cls-8" d="m93.74,68.28c.31.07.63.14.94.2-.36.15-.86.91-.94-.2Z"/>
      <path class="cls-8" d="m113.09,49.32c-.15.07-.28.18-.33.15-.1-.06-.16-.19-.23-.29.1-.03.21-.11.31-.09.08.01.15.13.26.23Z"/>
      <path class="cls-12" d="m141.53,59.22c.16-.35.32-.69.48-1.04-.16.35-.32.69-.48,1.04Z"/>
      <path class="cls-8" d="m111.9,64.69c.08.25.17.5.25.75-.08-.25-.17-.5-.25-.75Z"/>
      <path class="cls-8" d="m113.07,56.1c.07.03.14.06.21.09-.03.07-.04.18-.09.2-.05.02-.13-.05-.2-.08.03-.07.06-.14.09-.21Z"/>
      <path class="cls-8" d="m114.88,54.5c.25-.15.5-.3.75-.46-.25.15-.5.3-.75.46Z"/>
      <path class="cls-12" d="m135.54,61.34c-.14-.29-.28-.58-.42-.87.14.29.28.58.42.87Z"/>
      <path class="cls-8" d="m109.24,61.78c.03-.07.05-.18.1-.2.05-.02.13.05.2.08-.03.07-.05.18-.1.2-.05.02-.13-.05-.2-.08Z"/>
      <path class="cls-8" d="m66.43,92.26c-.03.07-.05.18-.09.2-.05.02-.13-.05-.2-.08.03-.07.04-.18.09-.2.05-.02.13.05.2.08Z"/>
      <path class="cls-12" d="m137.71,69.9c.11-.33.23-.66.34-.99-.11.33-.23.66-.34.99Z"/>
      <path class="cls-8" d="m44.23,103.7c-.03.07-.05.18-.1.2-.05.02-.13-.05-.2-.08.03-.07.05-.18.1-.2.05-.02.13.05.2.08Z"/>
      <path class="cls-12" d="m140.82,61.46c.07-.26.15-.51.22-.77-.07.26-.15.51-.22.77Z"/>
      <path class="cls-16" d="m139.32,94.08c-.25.07-.5.14-.75.21.25-.07.5-.14.75-.21Z"/>
      <path class="cls-8" d="m102.4,59.22c.25-.06.5-.13.75-.19-.25.06-.5.13-.75.19Z"/>
      <path class="cls-12" d="m139.03,66.18c.09-.25.18-.5.28-.75-.09.25-.18.5-.28.75Z"/>
      <path class="cls-12" d="m144.3,51.76c.02-.24.04-.49.06-.73-.02.24-.04.49-.06.73Z"/>
      <path class="cls-12" d="m144.05,52.5c.08-.25.16-.49.25-.74-.08.25-.16.49-.25.74Z"/>
      <path class="cls-12" d="m143.8,53.25c.08-.25.16-.5.25-.74-.08.25-.16.5-.25.74Z"/>
      <path class="cls-12" d="m141.99,58.2c.04-.24.07-.48.11-.71-.04.24-.07.48-.11.71Z"/>
      <path class="cls-12" d="m143.27,54.49c.09-.25.18-.5.27-.76-.09.25-.18.5-.27.76Z"/>
      <path class="cls-12" d="m139.83,64.2c0-.16.02-.33.03-.49,0,.16-.02.33-.03.49Z"/>
      <path class="cls-12" d="m141.03,60.71c.02-.16.05-.32.07-.48-.02.16-.05.32-.07.48Z"/>
      <path class="cls-10" d="m56.03,104.03c.08-.02.16-.02.24,0-.02.17-.05.33-.07.5-.05-.17-.11-.34-.16-.51Z"/>
      <path class="cls-12" d="m142.81,55.99c.07-.2.14-.41.21-.61-.07.2-.14.41-.21.61Z"/>
      <path class="cls-8" d="m122.36,50.74c-.18-.07-.35-.14-.53-.21.18.07.35.14.53.21Z"/>
      <path class="cls-8" d="m118.86,50.19c-.16,0-.32.01-.47.02.16,0,.32-.01.47-.02Z"/>
      <path class="cls-8" d="m112.15,65.43c.07.09.14.17.21.26-.07-.09-.14-.17-.21-.26Z"/>
      <path class="cls-8" d="m119.86,50.21l-.12.03s-.11-.04-.11-.04c.08,0,.15,0,.23.01Z"/>
      <path class="cls-12" d="m143.68,53.48c.04-.08.08-.15.12-.23-.04.08-.08.15-.12.23Z"/>
      <path class="cls-12" d="m77.42,109.26c-.05.13-.09.26-.14.39.05-.13.09-.26.14-.39Z"/>
      <path class="cls-8" d="m113.18,59.24c-.09.09-.18.18-.27.28.09-.09.18-.18.27-.28Z"/>
      <path class="cls-10" d="m56.18,105.24c0,.1.01.2.02.29,0-.1-.01-.2-.02-.29Z"/>
      <path class="cls-4" d="m54.79,103.37c.11,0,.21-.01.32-.02-.11,0-.21.01-.32.02Z"/>
      <path class="cls-4" d="m52.78,103.45c.1,0,.19,0,.29,0-.1,0-.19,0-.29,0Z"/>
      <path class="cls-8" d="m125.9,63.95c-.05-.08-.05-.16,0-.24.03.06.06.11.08.17,0,.01-.05.05-.08.07Z"/>
      <path class="cls-24" d="m66.07,95.27c.07,0,.14.02.2.04-.05.1-.11.2-.16.3-.01-.11-.03-.23-.04-.34Z"/>
      <path class="cls-8" d="m125.89,67.93c-.03-.08-.03-.16.02-.24.02.06.05.11.06.17,0,.02-.05.04-.08.06Z"/>
      <path class="cls-12" d="m138.04,68.92c.08-.13.16-.25.24-.38-.08.13-.16.25-.24.38Z"/>
      <path class="cls-12" d="m134.54,69.19c-.04.11-.07.22-.11.33.04-.11.07-.22.11-.33Z"/>
      <path class="cls-18" d="m213.36,137.86c-.91-1.89-1.98-3.72-2.69-5.68-.57-1.57-.9-3.29-.99-4.96-.21-4.15-.38-8.32-.26-12.48.09-3.53.5-7.09,1.98-10.35.96-2.11,2.32-4.03,3.5-6.04,0,0,0,0,0,0,.34-.34.68-.68,1.02-1.03l5.43-2.97c2.39-.43,4.74-.8,7.23-.65,1.96.13,3.85.45,5.53,1.23,1.89.88,3.69,2.16,5.2,3.61,2.91,2.79,4.36,6.42,4.99,10.36.33,2.08.52,4.19.77,6.29,0,2.74,0,5.49-.01,8.23-.08.91-.16,1.82-.23,2.73-.1.91-.2,1.83-.29,2.74-.48,1.74-.97,3.48-1.45,5.22-.1.24-.21.49-.31.73-.2.41-.4.82-.6,1.23-.06.14-.12.28-.18.42-.28.44-.55.88-.83,1.32-.29.42-.59.84-.88,1.26-.07.09-.14.18-.21.27-.05.07-.11.14-.16.21-.16.18-.31.36-.47.54-.08.03-.13.09-.15.17-1,.76-2,1.52-3,2.28-.66.35-1.32.7-1.98,1.05-.17.07-.34.15-.5.22-.58.1-1.16.2-1.74.31-.42.09-.83.18-1.25.27-3.36.93-6.64.38-9.89-.59-.36-.15-.72-.31-1.08-.46,0,0,0,0,0,0-.24-.1-.48-.21-.72-.31,0,0,.02.02.02.02-.1-.06-.2-.12-.3-.18l-.05-.07s-.08,0-.08,0c-.12-.07-.24-.14-.37-.21-.5-.33-1-.66-1.49-.99-.24-.19-.48-.38-.72-.57-.26-.22-.53-.45-.79-.67-.08-.08-.15-.16-.23-.24,0,0-.01-.01-.01-.01-.08-.08-.15-.16-.23-.25-.16-.17-.32-.34-.47-.51-.08-.1-.15-.2-.23-.3,0,0,.02.02.02.02-.11-.15-.21-.3-.32-.46-.17-.25-.33-.49-.5-.74Zm5.49-18.56c.33,2.88.44,5.8,1.08,8.61.44,1.94,1.45,3.83,2.55,5.5,1.17,1.78,4.28,3.27,7.04,1.93,1.8-.87,2.97-2.34,3.78-4.13,1.58-3.51,1.6-7.32,1.92-11.03.21-2.38-.17-4.83-.48-7.22-.25-1.93-.62-3.88-1.26-5.71-1.11-3.17-3.78-4.92-7.07-4.69-2.39.16-4.69,1.94-5.72,5.11-1.22,3.77-1.69,7.65-1.84,11.63Z"/>
      <path class="cls-9" d="m255.02,132.95c1.08-.02,2.15-.05,3.23-.05.82,0,1.31-.25,1.24-1.21-.07-.94-.02-1.9-.02-2.93-.42-.11-.83-.21-1.24-.32h-6.23c-.28-.11-.72.32-.82-.4-.16-1.14-.52-2.25-.87-3.65,2.72,0,5.2,0,7.67,0l1.74-.25h4.49c.25-.08.5-.16.75-.24,1.17-.07,2.33-.14,3.5-.21,1.12-.84,2.34-.13,3.51-.21.22-.01.51.43.69.71.1.15.04.4.04.61-.04,2.28.49,2.66-2.45,2.66-1.89,0-3.79.5-5.72.78v6.15c-1.24,0-2.39-.04-3.54.02-.34.02-.95.3-.95.47-.01,1.34.09,2.68.16,4.02.18.04.37.07.55.11.15,0,.31,0,.46,0,.41.03.82.09,1.23.09,5.91,0,11.83,0,17.74.01.07,1.08.13,2.15.2,3.23-2.86,0-5.72-.02-8.58.02-5.58.06-11.17.16-16.75.24l-.21-.29c0-.22,0-.45-.01-.67,0-.11,0-.22,0-.32.02-2.38.03-4.76.05-7.14.05-.41.11-.82.16-1.23Z"/>
      <path class="cls-9" d="m279.6,110.52c.04.15.09.29.13.44.02.11.05.21.07.32,0,.14,0,.28.01.42-.05.24-.14.47-.14.71,0,6.32-.01,12.63,0,18.95,0,.35.14.7.21,1.05-.09.9-.18,1.8-.29,2.93-1.44,0-3.03.05-4.62-.06-.21-.01-.59-.86-.51-1.25.2-1.01-.21-1.17-1.07-1.15-1.37.04-2.74-.05-4.11.02-.91.04-1.17-.32-1.11-1.16.05-.73.01-1.47.01-2.29h6.25v-5.74c.07-.43.21-.85.21-1.28.02-3.54.01-7.09.04-10.63,0-.43.15-.86.24-1.29,1.49-.01,2.99-.02,4.48-.03l.08.05h.1Z"/>
      <path class="cls-7" d="m261.47,110.7c.33,0,.67,0,1,0l1,.22c.33.03.65.07.98.1,1.15.49,2.3.98,3.45,1.47.1.07.2.14.3.22,0,0,.02.01.02.01.16.14.33.28.49.42.07.06.14.11.21.17.17.23.35.46.52.69.27.9.53,1.81.8,2.71-.08.58-.17,1.16-.25,1.74-.09.25-.18.5-.26.75-.17.25-.33.5-.5.75-.18.24-.36.48-.54.72l-1.74,1.03c-.58.18-1.17.35-1.75.53-.17,0-.33,0-.5.01-.09.06-.18.12-.28.18-.32.09-.65.19-.97.28-1.13.03-2.26.07-3.39.1,0,0-.02,0-.02,0-.19-.03-.38-.06-.57-.09-.33-.11-.67-.22-1-.34,0,0-.08,0-.08,0-.3-.05-.6-.1-.9-.15-.66-.44-1.33-.87-1.99-1.31-.17-.14-.34-.28-.51-.41,0-.07-.04-.11-.11-.11-.13-.14-.26-.28-.39-.42,0,0-.02-.03-.02-.03-.07-.09-.14-.18-.21-.26-.33-.26-.65-.53-.98-.79.01-.06.02-.12.03-.18-.01-.34-.03-.68-.04-1.02,0-.08-.01-.16-.05-.24-.33-4.34,3.17-5.78,6.1-6.48.63-.15,1.28-.19,1.92-.27.08,0,.16,0,.25,0Zm.44,8.54c.53-.14,1.43-.26,2.23-.62,1.45-.66,1.58-2.71.29-3.56-1.14-.75-4.46-1.05-5.83.31-.71.7-.85,1.4-.32,2.29.75,1.28,1.97,1.48,3.63,1.59Z"/>
      <path class="cls-25" d="m255.04,142.59c5.58-.08,11.17-.18,16.75-.24,2.86-.03,5.72-.01,8.58-.02v1.98c-8.36,0-16.75,0-25.14,0-.13-.17-.26-.33-.39-.5-.01-.4-.02-.79-.03-1.19.08,0,.15-.02.23-.03Z"/>
      <path class="cls-15" d="m252,128.45c2.08,0,4.16,0,6.23-.01.1.68.62,1.36-.25,1.99-.87.63-1.55,1.43-2.78.52-.52-.39-1.45-.56-2.09-.4-1.01.24-1.53-.16-2.05-.84.33-.44.63-.85.94-1.25Z"/>
      <path class="cls-15" d="m236.28,142.55c1-.76,2-1.52,3-2.28.48,1.37.2,2.38-1.16,3-.42.19-1.22-.46-1.84-.72Z"/>
      <path class="cls-15" d="m243.07,134.13c.48-1.74.97-3.48,1.45-5.22.21.31.64.65.61.92-.16,1.26-.45,2.51-.72,3.95-.25.06-.79.21-1.34.35Z"/>
      <path class="cls-24" d="m279.89,132.41c-.07-.35-.21-.7-.21-1.05-.01-6.32,0-12.63,0-18.95,0-.24.09-.47.14-.71.03,1.4.08,2.8.08,4.21,0,5.5,0,11-.01,16.5Z"/>
      <path class="cls-13" d="m260.07,122.81c1.13-.03,2.26-.07,3.39-.1-.71.98.78.81.75,1.43h-4.49c.12-.45.23-.89.35-1.33Z"/>
      <path class="cls-10" d="m280.17,139.11c-5.91,0-11.83,0-17.74-.01-.41,0-.82-.06-1.23-.09.36-.05.72-.14,1.09-.14,5.57,0,11.14,0,16.7.01.39,0,.79.15,1.18.24Z"/>
      <path class="cls-15" d="m279.6,110.52h-.1s-.08-.04-.08-.04c-.29-.24-.54-.61-.87-.7-.65-.18-1.33-.2-2.01-.29v-.46h3.14c-.03.4,1.14.95-.09,1.49Z"/>
      <path class="cls-10" d="m274.94,110.51c-.08.43-.23.86-.24,1.29-.02,3.54-.01,7.09-.04,10.63,0,.43-.14.85-.21,1.28,0-4.09-.03-8.19,0-12.28,0-.31.32-.61.49-.91Z"/>
      <path class="cls-15" d="m230.8,144.4c.42-.09.83-.18,1.25-.27.01.33.05.66.04.99-.02.37.03.85-.18,1.06-.15.16-.75.08-.99-.11-.18-.14-.14-.61-.16-.93-.02-.25.03-.49.04-.74Z"/>
      <path class="cls-15" d="m260.07,122.81c-.12.44-.23.88-.35,1.33l-1.74.25c.17-.66.33-1.33.5-1.99.33.11.67.22,1,.34.19.03.38.06.57.09,0,0,.02,0,.02,0Z"/>
      <path class="cls-15" d="m251.87,122.85c.81-.04,1.62-.11,2.44-.1.11,0,.22.37.32.57-.2.11-.42.32-.61.3-.71-.06-1.42-.21-2.13-.32,0-.15-.01-.3-.02-.46Z"/>
      <path class="cls-15" d="m266.95,121.7c.58-.34,1.16-.69,1.74-1.03.01.25.09.51.03.74-.09.35-.24.93-.43.96-.52.07-1.34.41-1.33-.67Z"/>
      <path class="cls-15" d="m269.99,118.45c.08-.58.17-1.16.25-1.74.29.2.85.42.83.58-.07.58-.2,1.26-1.08,1.16Z"/>
      <path class="cls-15" d="m272.07,122.19h-1.76c0-.13-.02-.26-.03-.39.58-.04,1.16-.08,1.74-.12.02.17.03.34.05.51Z"/>
      <path class="cls-15" d="m269.23,119.95c.17-.25.33-.5.5-.75.75.24,1.27.57.58,1.49-.39-.27-.73-.51-1.08-.75Z"/>
      <path class="cls-15" d="m254.69,133.39c-.08,0-.2.03-.23-.01-.24-.3-.49-.59-.65-.93-.03-.06.28-.3.44-.46.17.31.35.63.52.94-.02.15-.05.31-.07.46Z"/>
      <path class="cls-15" d="m267.14,110.07c.5.13,1.01.26,1.51.38-.03.18-.07.35-.1.53-.5-.08-1.01-.17-1.51-.25l.11-.66Z"/>
      <path class="cls-15" d="m241.15,137.83c.28-.44.55-.88.83-1.32.19.34.37.68.67,1.23-.61.04-1.06.06-1.5.09Z"/>
      <path class="cls-15" d="m324.02,81.1c.43-.16.86-.33,1.29-.49.07.14.13.27.2.41-.42.22-.84.43-1.25.65-.08-.19-.15-.37-.23-.56Z"/>
      <path class="cls-15" d="m242.16,136.08c.2-.41.4-.82.6-1.23.21.27.42.54.81,1.02-.55.08-.98.14-1.41.2Z"/>
      <path class="cls-13" d="m268.46,123.68c-1.17.07-2.33.14-3.5.21,1.17-.07,2.33-.14,3.5-.21Z"/>
      <path class="cls-15" d="m253.26,118.9c.33.26.65.53.98.79,0,.08,0,.16,0,.25-.83.12-1.1-.27-.97-1.04Z"/>
      <path class="cls-15" d="m282.74,117.56c.1-.25.21-.5.32-.77.16.1.28.15.27.18-.04.25-.1.5-.16.76-.15-.05-.29-.11-.44-.16Z"/>
      <path class="cls-15" d="m283.37,113.89l-.05.95c-.09,0-.18,0-.27,0v-.96c.11,0,.22.01.33.02Z"/>
      <path class="cls-15" d="m323.5,82.59c-.14.24-.28.47-.42.71-.09-.05-.19-.09-.28-.14.12-.26.23-.51.35-.77.12.07.23.13.35.2Z"/>
      <path class="cls-15" d="m269.43,114c-.17-.23-.35-.46-.52-.69.19-.09.38-.17.58-.26-.02.32-.04.63-.05.95Z"/>
      <path class="cls-15" d="m233.79,143.82c.17-.07.34-.15.5-.22l-.08.84c-.07.02-.15.03-.22.05-.07-.22-.14-.44-.21-.66Z"/>
      <path class="cls-15" d="m219.83,143.35c.36.15.72.31,1.08.46-.36-.15-.72-.31-1.08-.46Z"/>
      <path class="cls-15" d="m253.25,117.7c.01.34.03.68.04,1.02-.01-.34-.03-.68-.04-1.02Z"/>
      <path class="cls-15" d="m239.42,140.1c.16-.18.31-.36.47-.54.08.11.17.22.25.33-.24.07-.48.14-.72.21Z"/>
      <path class="cls-24" d="m254.69,133.39c.02-.15.05-.31.07-.46.09,0,.18.01.27.02-.05.41-.11.82-.16,1.23-.06-.26-.12-.52-.18-.79Z"/>
      <path class="cls-13" d="m264.45,111.03c-.33-.03-.65-.07-.98-.1.33.03.65.07.98.1Z"/>
      <path class="cls-13" d="m216.12,141.03c.24.19.48.38.72.57-.24-.19-.48-.38-.72-.57Z"/>
      <path class="cls-13" d="m254.98,120.52c.17.14.34.28.51.41-.17-.14-.34-.28-.51-.41Z"/>
      <path class="cls-15" d="m257.49,122.24c.3.05.6.1.9.15-.3-.05-.6-.1-.9-.15Z"/>
      <path class="cls-13" d="m219.12,143.03c.24.1.48.21.72.31-.24-.1-.48-.21-.72-.31Z"/>
      <path class="cls-13" d="m268.7,113.15c-.16-.14-.33-.28-.49-.42.16.14.33.28.49.42Z"/>
      <path class="cls-24" d="m254.85,143.81c.13.17.26.33.39.5-.13-.17-.26-.33-.39-.5Z"/>
      <path class="cls-13" d="m254.48,119.99c.13.14.26.28.39.42-.13-.14-.26-.28-.39-.42Z"/>
      <path class="cls-13" d="m264.71,122.24c.17,0,.33,0,.5-.01-.17.07-.33.14-.5.21,0-.06,0-.13,0-.19Z"/>
      <path class="cls-13" d="m213.86,138.61c.11.15.21.3.32.46-.11-.15-.21-.3-.32-.46Z"/>
      <path class="cls-10" d="m260.74,139c-.18-.04-.37-.07-.55-.11.18.04.37.07.55.11Z"/>
      <path class="cls-13" d="m218.84,142.87c.1.06.2.12.3.18-.1-.06-.2-.12-.3-.18Z"/>
      <path class="cls-24" d="m255.04,142.59c-.08.01-.15.02-.23.03,0-.11.01-.21.02-.32.07.1.14.19.21.29Z"/>
      <path class="cls-24" d="m254.82,141.31c0,.11,0,.22,0,.32,0-.11,0-.22,0-.32Z"/>
      <path class="cls-13" d="m215.1,140.11c.08.08.15.16.23.24-.08-.08-.15-.16-.23-.24Z"/>
      <path class="cls-13" d="m214.86,139.85c.08.08.15.16.23.25-.08-.08-.15-.16-.23-.25Z"/>
      <path class="cls-15" d="m240.06,139.35c.07-.09.14-.18.21-.27-.07.09-.14.18-.21.27Z"/>
      <path class="cls-13" d="m214.16,139.04c.08.1.15.2.23.3-.08-.1-.15-.2-.23-.3Z"/>
      <path class="cls-15" d="m264.71,122.24c0,.06,0,.13,0,.19-.09,0-.18,0-.28-.01.09-.06.18-.12.28-.18Z"/>
      <path class="cls-13" d="m218.34,142.59c.12.07.24.14.37.21-.12-.07-.24-.14-.37-.21Z"/>
      <path class="cls-13" d="m268.2,112.72c-.1-.07-.2-.14-.3-.22.1.07.2.14.3.22Z"/>
      <path class="cls-24" d="m279.81,111.28c-.02-.11-.05-.21-.07-.32.02.11.05.21.07.32Z"/>
      <path class="cls-13" d="m254.23,119.94c0-.08,0-.16,0-.25.07.09.14.18.21.26-.07,0-.15,0-.22-.02Z"/>
      <path class="cls-18" d="m202.35,104.78c1.21,3.37,1.53,6.9,1.82,10.43,0,2.74,0,5.49-.01,8.23-.32,4.93-1.15,9.73-3.76,14.05-2.27,3.76-5.57,5.97-9.9,6.86-3.31.69-6.57.71-9.76-.31-1.44-.46-2.82-1.12-4.15-1.97-1.97-1.27-3.42-2.89-4.58-4.83-1.48-2.49-2.53-5.16-3.04-8.02-.09-.52-.19-1.03-.28-1.55-.07-4.04-.23-8.09-.18-12.13.04-3.54.26-7.16,1.55-10.43,2.01-5.11,5.23-9.33,10.94-10.79,2.24-.57,4.53-1.02,6.89-.51,1.89.41,3.84.56,5.71,1.03.85.21,1.61.87,2.34,1.42,2.92,2.24,5.07,5.09,6.41,8.52Zm-24.26,14.48c.12,1.72.18,3.45.38,5.16.28,2.51.64,5.01,1.86,7.28,1.7,3.14,4.82,4.94,8.15,3.66,1.93-.74,3.08-2.31,3.91-4.13,1.6-3.5,1.57-7.32,1.94-11.03.2-2-.28-4.07-.42-6.11-.18-2.53-.43-5.02-1.51-7.39-1.19-2.6-3.88-4.32-6.98-4.17-2.15.1-4.73,2.43-5.51,4.77-1.3,3.89-1.77,7.88-1.82,11.96Z"/>
      <path class="cls-19" d="m162.28,123.44c0-2.74,0-5.49.01-8.23,0,2.74,0,5.49-.01,8.23Z"/>
      <path class="cls-15" d="m215.91,97.33c-.34.34-.68.68-1.02,1.03-.13-.8.25-1.11,1.02-1.03Z"/>
      <path class="cls-19" d="m245.05,123.44c0-2.74,0-5.49.01-8.23,0,2.74,0,5.49-.01,8.23Z"/>
      <path class="cls-14" d="m232.93,92.73c-.78.75-1.39.22-1.97-.64.66.06,1.33.12,1.99.19,0,.15-.01.3-.02.45Z"/>
      <path class="cls-13" d="m261.47,110.7c-.08,0-.16,0-.25,0,.08,0,.16,0,.25,0Z"/>
      <path class="cls-19" d="m204.16,123.44c0-2.74,0-5.49.01-8.23,0,2.74,0,5.49-.01,8.23Z"/>
      <path class="cls-3" d="m117.59,137.37c.21-.39.39-.8.65-1.16.45-.62.99-.77,1.72-.36.94.54,1.93.99,2.9,1.48.26.26.53.53.79.79-.46.96-.86,1.94-1.39,2.86-1.36,2.34-2.79,4.64-4.17,6.97-.4.68-.94.82-1.64.52-.71-.31-1.48-.52-2.13-.92-.8-.5-.87-1.13-.29-2,.6-.91.89-2.03,1.34-3.04.51-1.13,1.05-2.24,1.58-3.37.22-.59.43-1.18.65-1.77Z"/>
      <path class="cls-17" d="m123.65,138.11c-.26-.26-.53-.53-.79-.79.16-.38.32-.77.47-1.15.52.3,1.14.5,1.51.92.25.3.15.9.22,1.59-.69-.28-1.05-.43-1.42-.58Z"/>
      <path class="cls-17" d="m117.59,137.37c-.22.59-.43,1.18-.65,1.77-.11-.4-.37-.84-.27-1.17.08-.26.6-.4.92-.6Z"/>
      <path class="cls-13" d="m131.08,138.65c.09.16.18.31.27.47-.09-.15-.18-.31-.27-.47Z"/>
      <path class="cls-1" d="m50.36,50.51c0-.16,0-.32,0-.49.06-.25.13-.51.19-.76,1.17-.08,2.34-.07,3.49-.25,2.04-.32,3.26.46,4.26,2.27,1.21,2.2,2.78,4.19,4.2,6.28.17,0,.34,0,.5,0-.04-.69-.08-1.38-.12-2.07,0-.16-.02-.33-.03-.49.03-.03.09-.06.08-.07-.02-.07-.06-.13-.09-.19,0-.25-.01-.49-.02-.74.03-.02.08-.06.08-.07-.02-.06-.05-.12-.08-.18,0-.25,0-.5,0-.74.03-.02.08-.05.08-.07-.01-.06-.04-.12-.07-.18,0-.25,0-.49.01-.74.03-.02.09-.05.08-.07-.01-.06-.05-.13-.07-.19,0-.16,0-.32,0-.49,0-.17,0-.34-.01-.51,0-.25,0-.5,0-.74.05-.26.11-.52.16-.78.47-.07.94-.23,1.4-.2,1.56.08,3.11.23,4.77.35.02.16.1.43.1.7,0,4.93-.04,9.86.01,14.78.01,1.18-.35,1.66-1.55,1.59-1.16-.07-2.34-.13-3.48,0-1.08.13-1.67-.33-2.2-1.15-1.39-2.16-2.82-4.29-4.24-6.42-.25-.37-.54-.71-.92-1.2-.08.38-.12.58-.15.77-.04.35-.07.7-.11,1.05,0,.22,0,.43,0,.65,0,.11,0,.23,0,.34.02,1.21.04,2.43.06,3.64,0,.11,0,.22,0,.33,0,.4.01.8.02,1.2-.05.18-.1.35-.14.53-.31.16-.61.46-.92.45-1.62-.04-3.24-.14-4.86-.24-.1,0-.19-.12-.28-.19-.05-.6-.09-1.2-.14-1.8,0-.16,0-.32,0-.48.05-.19.15-.39.15-.58.01-4.02.02-8.04,0-12.06,0-.27-.13-.54-.2-.82Z"/>
      <path class="cls-10" d="m50.36,50.51c.07.27.19.54.2.82,0,4.02,0,8.04,0,12.06,0,.19-.1.39-.15.58-.01-4.49-.02-8.97-.03-13.46Z"/>
      <path class="cls-10" d="m62.89,55.5c.04.69.08,1.38.12,2.07-.17,0-.34,0-.5,0,.13-.69.26-1.38.39-2.06Z"/>
      <path class="cls-10" d="m50.39,64.44c.05.6.09,1.2.14,1.8-.05-.6-.09-1.2-.14-1.8Z"/>
      <path class="cls-24" d="m56.64,59.52c.04-.35.07-.7.11-1.05-.04.35-.07.7-.11,1.05Z"/>
      <path class="cls-10" d="m50.55,49.26c-.06.25-.13.51-.19.76.06-.25.13-.51.19-.76Z"/>
      <path class="cls-10" d="m63,49.24c-.05.26-.11.52-.16.78.05-.26.11-.52.16-.78Z"/>
      <path class="cls-24" d="m56.59,66.22c.05-.18.1-.35.14-.53-.05.18-.1.35-.14.53Z"/>
      <path class="cls-10" d="m62.84,50.76c0,.17,0,.34.01.51,0-.17,0-.34-.01-.51Z"/>
      <path class="cls-10" d="m62.83,52.75c.02.06.06.12.07.18,0,.02-.05.05-.08.07,0-.09,0-.17,0-.26Z"/>
      <path class="cls-10" d="m62.83,53.75c.03.06.06.12.08.18,0,.02-.05.05-.08.07,0-.08,0-.17,0-.25Z"/>
      <path class="cls-10" d="m62.85,54.74c.03.06.07.12.09.19,0,.01-.05.05-.08.07,0-.09,0-.18-.01-.26Z"/>
      <path class="cls-24" d="m56.65,60.52c0-.11,0-.23,0-.34,0,.11,0,.23,0,.34Z"/>
      <path class="cls-24" d="m56.72,64.49c0-.11,0-.22,0-.33,0,.11,0,.22,0,.33Z"/>
      <path class="cls-10" d="m62.85,51.76c.03.06.06.12.07.19,0,.02-.05.05-.08.07,0-.09,0-.17.01-.26Z"/>
      <path class="cls-17" d="m136.55,115.19c.19-3.21.53-6.41,2.17-9.27,1.42-2.49,3.64-3.73,6.51-3.36,2.59.33,4.16,2.07,5.32,4.31,1.19,2.3,1.29,4.78,1.5,7.26.17,1.99.62,4.02.42,5.98-.39,3.76-.28,7.63-1.97,11.17-.98,2.04-2.29,3.83-4.63,4.3-3.16.64-5.93-.94-7.44-3.92-1.17-2.3-1.53-4.79-1.85-7.29-.06-.48-.13-.95-.2-1.42.07-.14.2-.28.2-.43,0-2.44,0-4.88-.02-7.33Z"/>
      <path class="cls-10" d="m136.55,115.19c0,2.44.02,4.88.02,7.33,0,.14-.13.28-.2.43.06-2.58.12-5.17.18-7.75Z"/>
      <path class="cls-2" d="m86.71,114.97c.24-3.13.54-6.26,2.15-9.05,1.43-2.49,3.65-3.73,6.52-3.36,2.59.33,4.15,2.09,5.32,4.33,1.2,2.3,1.26,4.79,1.48,7.27.18,2,.62,4.03.42,5.99-.37,3.71-.34,7.53-1.93,11.03-.83,1.83-1.97,3.41-3.89,4.16-3.36,1.31-6.55-.49-8.22-3.73-1.31-2.55-1.75-5.33-1.86-8.17,0-2.83,0-5.65,0-8.48Z"/>
      <path class="cls-10" d="m86.71,114.97c0,2.83,0,5.65,0,8.48,0-2.83,0-5.65,0-8.48Z"/>
      <path class="cls-4" d="m47.83,103.45c-.42,0-.84-.01-1.26-.02.42,0,.84.01,1.26.02Z"/>
      <path class="cls-4" d="m52.07,103.45c-.09,0-.19,0-.28,0,.09,0,.19,0,.28,0Z"/>
      <path class="cls-4" d="m50.08,103.45c-.1,0-.19,0-.29,0,.1,0,.19,0,.29,0Z"/>
      <path class="cls-4" d="m49.08,103.46c-.09,0-.19,0-.28,0,.09,0,.19,0,.28,0Z"/>
      <path class="cls-1" d="m96.97,47.82c2.13.07,4.29-.05,6.39.24,2.28.32,3.02,1.49,2.87,3.73-.22,3.31-1.44,4.48-5.13,4.67-1.37.07-2.76-.16-4.14-.25,0-2.8,0-5.6,0-8.39Z"/>
      <path class="cls-4" d="m96.97,47.82c0,2.8,0,5.6,0,8.39-.1-.2-.28-.41-.28-.61-.02-2.39-.02-4.78,0-7.16,0-.21.19-.41.29-.62Z"/>
      <path class="cls-4" d="m96.81,60.71c.02,1.75.04,3.5.07,5.26-.02-1.75-.04-3.5-.07-5.26Z"/>
      <path class="cls-4" d="m96.89,66.43c0,.17,0,.35,0,.52,0-.17,0-.35,0-.52Z"/>
      <path class="cls-4" d="m96.9,67.43c-.06.1-.11.2-.17.3.06-.1.11-.2.17-.3Z"/>
      <path class="cls-4" d="m96.87,59.71c-.01.09-.03.19-.04.28.01-.09.03-.19.04-.28Z"/>
      <path class="cls-12" d="m122.49,60.11c.42,3.95-1.19,5.7-4.84,5.58-1.26-.04-2.44-1.01-2.54-2.02-.22-2.18.71-3.1,2.16-3.2,1.72-.13,3.44-.23,5.23-.36Z"/>
      <path class="cls-6" d="m218.85,119.3c.16-3.98.62-7.86,1.84-11.63,1.03-3.17,3.33-4.95,5.72-5.11,3.29-.22,5.96,1.53,7.07,4.69.64,1.83,1.01,3.78,1.26,5.71.31,2.39.69,4.84.48,7.22-.33,3.71-.34,7.52-1.92,11.03-.81,1.79-1.98,3.26-3.78,4.13-2.76,1.34-5.87-.15-7.04-1.93-1.11-1.68-2.11-3.57-2.55-5.5-.64-2.8-.75-5.73-1.08-8.61Z"/>
      <path class="cls-6" d="m261.91,119.25c-1.67-.11-2.88-.31-3.63-1.59-.53-.89-.39-1.58.32-2.29,1.37-1.35,4.69-1.05,5.83-.31,1.3.85,1.16,2.9-.29,3.56-.8.36-1.7.48-2.23.62Z"/>
      <path class="cls-13" d="m260.05,122.81c-.19-.03-.38-.06-.57-.09.19.03.38.06.57.09Z"/>
      <path class="cls-16" d="m178.09,119.25c.05-4.08.53-8.07,1.82-11.96.78-2.34,3.36-4.66,5.51-4.77,3.1-.15,5.8,1.57,6.98,4.17,1.08,2.37,1.33,4.86,1.51,7.39.14,2.04.63,4.11.42,6.11-.37,3.71-.34,7.53-1.94,11.03-.83,1.82-1.98,3.39-3.91,4.13-3.33,1.28-6.46-.51-8.15-3.66-1.23-2.27-1.58-4.78-1.86-7.28-.19-1.71-.26-3.44-.38-5.16Z"/>
    </g>
  </g>
</svg>