<svg width="170" height="140" viewBox="0 0 170 140" fill="none" xmlns="http://www.w3.org/2000/svg">
<path d="M111.818 81.1429C120.873 81.1429 128.127 73.9643 128.127 65.0714C128.127 56.1786 120.873 49 111.818 49C102.764 49 95.4545 56.1786 95.4545 65.0714C95.4545 73.9643 102.764 81.1429 111.818 81.1429ZM68.1818 81.1429C77.2364 81.1429 84.4909 73.9643 84.4909 65.0714C84.4909 56.1786 77.2364 49 68.1818 49C59.1273 49 51.8182 56.1786 51.8182 65.0714C51.8182 73.9643 59.1273 81.1429 68.1818 81.1429ZM68.1818 91.8571C55.4727 91.8571 30 98.125 30 110.607V124H106.364V110.607C106.364 98.125 80.8909 91.8571 68.1818 91.8571ZM111.818 91.8571C110.236 91.8571 108.436 91.9643 106.527 92.125C112.855 96.625 117.273 102.679 117.273 110.607V124H150V110.607C150 98.125 124.527 91.8571 111.818 91.8571Z" fill="#E0E7FF"/>
</svg>
