<svg width="46" height="45" viewBox="0 0 46 45" fill="none" xmlns="http://www.w3.org/2000/svg">
<path d="M31.3636 27.8571C34.8345 27.8571 37.6155 24.9857 37.6155 21.4286C37.6155 17.8714 34.8345 15 31.3636 15C27.8927 15 25.0909 17.8714 25.0909 21.4286C25.0909 24.9857 27.8927 27.8571 31.3636 27.8571ZM14.6364 27.8571C18.1073 27.8571 20.8882 24.9857 20.8882 21.4286C20.8882 17.8714 18.1073 15 14.6364 15C11.1655 15 8.36364 17.8714 8.36364 21.4286C8.36364 24.9857 11.1655 27.8571 14.6364 27.8571ZM14.6364 32.1429C9.76455 32.1429 0 34.65 0 39.6429V45H29.2727V39.6429C29.2727 34.65 19.5082 32.1429 14.6364 32.1429ZM31.3636 32.1429C30.7573 32.1429 30.0673 32.1857 29.3355 32.25C31.7609 34.05 33.4545 36.4714 33.4545 39.6429V45H46V39.6429C46 34.65 36.2355 32.1429 31.3636 32.1429Z" fill="#E0E7FF"/>
</svg>
