<?xml version="1.0" encoding="UTF-8"?>
<svg id="_레이어_2" data-name="레이어 2" xmlns="http://www.w3.org/2000/svg" viewBox="0 0 70.2 73.29">
  <defs>
    <style>
      .cls-1 {
        fill: #ffa4b8;
      }

      .cls-2 {
        fill: #ffbfcb;
      }
    </style>
  </defs>
  <g id="_레이어_1-2" data-name="레이어 1">
    <g>
      <path class="cls-2" d="m13.71,73.16c-9.71.55-10.96-.18-12.6-10.42C-1.79,44.77.8,27.78,11.45,12.54,15.93,6.11,21.45,1.16,29.62.09c.77-.1,1.48-.25,2.03.46,2.91,9.07,4.04,18.35,3.81,27.9-.4,16.6-6.76,30.28-19.21,41.2-1.08.95-2.5,1.76-2.54,3.51Z"/>
      <path class="cls-1" d="m13.71,73.16c.04-1.75,1.47-2.57,2.54-3.51,12.45-10.93,18.81-24.6,19.21-41.2.23-9.55-.89-18.82-3.81-27.9,8.78.31,15.19,6.35,16.33,15.87.28,2.31.98,2.34,2.89,2.26,7.07-.29,13.05,2.09,16.76,8.38,3.86,6.55,3.19,13.37-.8,19.47-9.23,14.14-22.96,21.67-39.1,25.21-4.6,1.01-9.3,1.52-14.03,1.42Z"/>
    </g>
  </g>
</svg>