<svg width="25" height="25" viewBox="0 0 25 25" fill="none" xmlns="http://www.w3.org/2000/svg">
<path d="M23.75 11.2518C23.4185 11.2518 23.1005 11.3835 22.8661 11.6179C22.6317 11.8524 22.5 12.1703 22.5 12.5018C22.5149 14.8431 21.7129 17.1163 20.2321 18.9299C18.7513 20.7435 16.6844 21.9839 14.3875 22.4376C12.0905 22.8912 9.70723 22.5297 7.64813 21.4153C5.58903 20.3008 3.98301 18.5033 3.10666 16.3321C2.23031 14.161 2.13849 11.7522 2.84703 9.52066C3.55556 7.28912 5.02009 5.37449 6.98838 4.10655C8.95667 2.83861 11.3055 2.29672 13.6303 2.57422C15.9552 2.85171 18.1105 3.93122 19.725 5.62682H16.725C16.3935 5.62682 16.0755 5.75852 15.8411 5.99294C15.6067 6.22736 15.475 6.5453 15.475 6.87682C15.475 7.20834 15.6067 7.52628 15.8411 7.7607C16.0755 7.99512 16.3935 8.12682 16.725 8.12682H22.3875C22.719 8.12682 23.037 7.99512 23.2714 7.7607C23.5058 7.52628 23.6375 7.20834 23.6375 6.87682V1.25183C23.6375 0.920309 23.5058 0.602367 23.2714 0.367947C23.037 0.133527 22.719 0.00183068 22.3875 0.00183068C22.056 0.00183068 21.738 0.133527 21.5036 0.367947C21.2692 0.602367 21.1375 0.920309 21.1375 1.25183V3.46433C19.0558 1.4744 16.3509 0.264271 13.48 0.038492C10.6091 -0.187287 7.74829 0.585136 5.38115 2.22519C3.01402 3.86525 1.28576 6.27233 0.488539 9.03956C-0.308686 11.8068 -0.125984 14.7644 1.00576 17.4125C2.13751 20.0605 4.14888 22.2366 6.69987 23.5729C9.25087 24.9091 12.185 25.3236 15.0063 24.7461C17.8276 24.1687 20.363 22.6349 22.1839 20.4039C24.0048 18.1729 24.9996 15.3816 25 12.5018C25 12.1703 24.8683 11.8524 24.6339 11.6179C24.3995 11.3835 24.0815 11.2518 23.75 11.2518Z" fill="#3B82F6"/>
</svg>
