<svg width="168" height="178" viewBox="0 0 168 178" fill="none" xmlns="http://www.w3.org/2000/svg">
<g filter="url(#filter0_d_719_182)">
<path fill-rule="evenodd" clip-rule="evenodd" d="M4 25.5C4 18.737 6.80952 12.251 11.8105 7.46878C16.8115 2.6866 23.5942 0 30.6667 0H101.778C118.28 0 134.107 6.26873 145.776 17.4271C157.444 28.5856 164 43.7196 164 59.5V144.5C164 151.263 161.19 157.749 156.19 162.531C151.189 167.313 144.406 170 137.333 170H30.6667C23.5942 170 16.8115 167.313 11.8105 162.531C6.80952 157.749 4 151.263 4 144.5V25.5ZM92.8889 17H30.6667C28.3092 17 26.0483 17.8955 24.3813 19.4896C22.7143 21.0837 21.7778 23.2457 21.7778 25.5V144.5C21.7778 146.754 22.7143 148.916 24.3813 150.51C26.0483 152.104 28.3092 153 30.6667 153H137.333C139.691 153 141.952 152.104 143.619 150.51C145.286 148.916 146.222 146.754 146.222 144.5V59.5H92.8889V17ZM142.524 42.5C139.667 36.2518 135.282 30.7515 129.738 26.4618C124.194 22.1721 117.653 19.2187 110.667 17.85V42.5H142.524Z" fill="#E0E7FF"/>
</g>
<defs>
<filter id="filter0_d_719_182" x="0" y="0" width="168" height="178" filterUnits="userSpaceOnUse" color-interpolation-filters="sRGB">
<feFlood flood-opacity="0" result="BackgroundImageFix"/>
<feColorMatrix in="SourceAlpha" type="matrix" values="0 0 0 0 0 0 0 0 0 0 0 0 0 0 0 0 0 0 127 0" result="hardAlpha"/>
<feOffset dy="4"/>
<feGaussianBlur stdDeviation="2"/>
<feComposite in2="hardAlpha" operator="out"/>
<feColorMatrix type="matrix" values="0 0 0 0 0 0 0 0 0 0 0 0 0 0 0 0 0 0 0.25 0"/>
<feBlend mode="normal" in2="BackgroundImageFix" result="effect1_dropShadow_719_182"/>
<feBlend mode="normal" in="SourceGraphic" in2="effect1_dropShadow_719_182" result="shape"/>
</filter>
</defs>
</svg>
