<svg width="35" height="41" viewBox="0 0 35 41" fill="none" xmlns="http://www.w3.org/2000/svg">
<path fill-rule="evenodd" clip-rule="evenodd" d="M2 11.25C2 9.85761 2.5619 8.52226 3.5621 7.53769C4.56229 6.55312 5.91885 6 7.33333 6H21.5556C24.856 6 28.0213 7.29062 30.3551 9.58794C32.6889 11.8853 34 15.0011 34 18.25V35.75C34 37.1424 33.4381 38.4777 32.4379 39.4623C31.4377 40.4469 30.0812 41 28.6667 41H7.33333C5.91885 41 4.56229 40.4469 3.5621 39.4623C2.5619 38.4777 2 37.1424 2 35.75V11.25ZM19.7778 9.5H7.33333C6.86184 9.5 6.40965 9.68437 6.07626 10.0126C5.74286 10.3408 5.55556 10.7859 5.55556 11.25V35.75C5.55556 36.2141 5.74286 36.6592 6.07626 36.9874C6.40965 37.3156 6.86184 37.5 7.33333 37.5H28.6667C29.1382 37.5 29.5904 37.3156 29.9237 36.9874C30.2571 36.6592 30.4444 36.2141 30.4444 35.75V18.25H19.7778V9.5ZM29.7049 14.75C29.1334 13.4636 28.2563 12.3312 27.1475 11.448C26.0387 10.5649 24.7306 9.95679 23.3333 9.675V14.75H29.7049Z" fill="#E0E7FF"/>
</svg>
