<svg width="37" height="37" viewBox="0 0 37 37" fill="none" xmlns="http://www.w3.org/2000/svg">
<path fill-rule="evenodd" clip-rule="evenodd" d="M4.625 9.48125C4.625 8.19329 5.11228 6.95809 5.97963 6.04736C6.84699 5.13664 8.02337 4.625 9.25 4.625H21.5833C24.4455 4.625 27.1904 5.81882 29.2142 7.94385C31.238 10.0689 32.375 12.951 32.375 15.9562V32.1437C32.375 33.4317 31.8877 34.6669 31.0204 35.5776C30.153 36.4884 28.9766 37 27.75 37H9.25C8.02337 37 6.84699 36.4884 5.97963 35.5776C5.11228 34.6669 4.625 33.4317 4.625 32.1437V9.48125ZM20.0417 7.8625H9.25C8.84112 7.8625 8.449 8.03305 8.15988 8.33662C7.87076 8.6402 7.70833 9.05193 7.70833 9.48125V32.1437C7.70833 32.5731 7.87076 32.9848 8.15988 33.2884C8.449 33.592 8.84112 33.7625 9.25 33.7625H27.75C28.1589 33.7625 28.551 33.592 28.8401 33.2884C29.1292 32.9848 29.2917 32.5731 29.2917 32.1437V15.9562H20.0417V7.8625ZM28.6503 12.7187C28.1547 11.5288 27.3941 10.4813 26.4326 9.66442C25.4711 8.84749 24.3367 8.28503 23.125 8.02437V12.7187H28.6503Z" fill="#E0E7FF"/>
</svg>
