<svg width="100" height="100" viewBox="0 0 100 100" fill="none" xmlns="http://www.w3.org/2000/svg">
<g clip-path="url(#clip0_850_1885)">
<path fill-rule="evenodd" clip-rule="evenodd" d="M20.8333 12.5C18.6232 12.5 16.5036 13.378 14.9408 14.9408C13.378 16.5036 12.5 18.6232 12.5 20.8333V79.1667C12.5 81.3768 13.378 83.4964 14.9408 85.0592C16.5036 86.622 18.6232 87.5 20.8333 87.5H58.3333C60.6708 87.5 62.7833 86.5375 64.2958 84.9875L66.7417 85.6417C67.7988 85.9252 68.9015 85.9978 69.9866 85.8551C71.0718 85.7125 72.1183 85.3575 73.0662 84.8104C74.0142 84.2633 74.8451 83.5348 75.5115 82.6665C76.1779 81.7982 76.6667 80.8072 76.95 79.75L87.7292 39.5C88.3006 37.3656 88.001 35.0916 86.8961 33.178C85.7913 31.2645 83.9717 29.8681 81.8375 29.2958L66.6667 25.2292V20.8333C66.6667 18.6232 65.7887 16.5036 64.2259 14.9408C62.6631 13.378 60.5435 12.5 58.3333 12.5H20.8333ZM66.6667 76.9958V33.8583L79.6833 37.3458L68.9 77.5958L66.6667 76.9958Z" fill="#9CA3AF"/>
</g>
<defs>
<clipPath id="clip0_850_1885">
<rect width="100" height="100" fill="white"/>
</clipPath>
</defs>
</svg>
