<svg width="53" height="53" viewBox="0 0 53 53" fill="none" xmlns="http://www.w3.org/2000/svg">
<path d="M29.1156 39.2243C29.1156 40.4209 28.1455 41.391 26.9489 41.391C25.7523 41.391 24.7822 40.4209 24.7822 39.2243C24.7822 38.0277 25.7523 37.0576 26.9489 37.0576C28.1455 37.0576 29.1156 38.0277 29.1156 39.2243Z" fill="white"/>
<path fill-rule="evenodd" clip-rule="evenodd" d="M26.9491 4.55762C27.7359 4.55762 28.4609 4.98422 28.8431 5.67206L50.5097 44.6721C50.8826 45.3431 50.8724 46.1614 50.4831 46.8231C50.0938 47.4847 49.3834 47.8909 48.6157 47.8909H5.28239C4.5147 47.8909 3.80432 47.4847 3.415 46.8231C3.02568 46.1614 3.01556 45.3431 3.38838 44.6721L25.055 5.67206C25.4372 4.98422 26.1622 4.55762 26.9491 4.55762ZM8.96467 43.5576H44.9334L26.9491 11.1857L8.96467 43.5576ZM26.9491 19.7243C28.1457 19.7243 29.1157 20.6943 29.1157 21.8909V30.5576C29.1157 31.7542 28.1457 32.7243 26.9491 32.7243C25.7524 32.7243 24.7824 31.7542 24.7824 30.5576V21.8909C24.7824 20.6943 25.7524 19.7243 26.9491 19.7243Z" fill="white"/>
</svg>
